{
.appVersion = "1192";
copyright = "Copyright 2019 Christopher Blanchard\012\012Licensed under the Apache License, Version 2.0 (the \"License\");\012you may not use this file except in compliance with the License.\012You may obtain a copy of the License at\012\012    http://www.apache.org/licenses/LICENSE-2.0\012\012Unless required by applicable law or agreed to in writing, software\012distributed under the License is distributed on an \"AS IS\" BASIS,\012WITHOUT WARRANTIES OR CONDITIONS OF ANY KIND, either express or implied.\012See the License for the specific language governing permissions and\012limitations under the License.";
date = "2019-01-24 21:48:33 +0000";
designer = "Christopher Blanchard";
designerURL = "https://github.com/stallmanifold";
familyName = "Googly Blocks";
fontMaster = (
{
ascender = 800;
capHeight = 700;
customParameters = (
{
name = "Color Palettes";
value = (
(
"255,255,255,255",
"0,0,0,255",
"255,0,255,255"
)
);
}
);
descender = -200;
guideLines = (
{
angle = 90;
position = "{622, 136}";
},
{
angle = 90;
position = "{526, 131}";
},
{
angle = 90;
position = "{540, 131}";
},
{
angle = 90;
position = "{444, 132}";
},
{
angle = 90;
position = "{430, 275}";
},
{
angle = 90;
position = "{348, 276}";
},
{
angle = 90;
position = "{334, 283}";
},
{
angle = 90;
position = "{252, 283}";
},
{
angle = 90;
position = "{238, 423}";
},
{
angle = 90;
position = "{156, 427}";
},
{
angle = 90;
position = "{142, 569}";
},
{
angle = 90;
position = "{60, 570}";
}
);
id = "3BA1B4B2-6ACF-4D2C-A9DD-A548EEBF9DB3";
xHeight = 500;
}
);
glyphs = (
{
glyphname = A;
lastChange = "2019-02-09 05:37:41 +0000";
layers = (
{
layerId = "3BA1B4B2-6ACF-4D2C-A9DD-A548EEBF9DB3";
paths = (
{
closed = 1;
nodes = (
"156 572 LINE",
"238 572 LINE",
"238 700 LINE",
"156 700 LINE"
);
},
{
closed = 1;
nodes = (
"252 572 LINE",
"334 572 LINE",
"334 700 LINE",
"252 700 LINE"
);
},
{
closed = 1;
nodes = (
"348 572 LINE",
"430 572 LINE",
"430 700 LINE",
"348 700 LINE"
);
},
{
closed = 1;
nodes = (
"444 572 LINE",
"526 572 LINE",
"526 700 LINE",
"444 700 LINE"
);
},
{
closed = 1;
nodes = (
"60 429 LINE",
"142 429 LINE",
"142 557 LINE",
"60 557 LINE"
);
},
{
closed = 1;
nodes = (
"156 429 LINE",
"238 429 LINE",
"238 557 LINE",
"156 557 LINE"
);
},
{
closed = 1;
nodes = (
"444 429 LINE",
"526 429 LINE",
"526 557 LINE",
"444 557 LINE"
);
},
{
closed = 1;
nodes = (
"540 429 LINE",
"622 429 LINE",
"622 557 LINE",
"540 557 LINE"
);
},
{
closed = 1;
nodes = (
"60 286 LINE",
"142 286 LINE",
"142 414 LINE",
"60 414 LINE"
);
},
{
closed = 1;
nodes = (
"156 286 LINE",
"238 286 LINE",
"238 414 LINE",
"156 414 LINE"
);
},
{
closed = 1;
nodes = (
"444 286 LINE",
"526 286 LINE",
"526 414 LINE",
"444 414 LINE"
);
},
{
closed = 1;
nodes = (
"540 286 LINE",
"622 286 LINE",
"622 414 LINE",
"540 414 LINE"
);
},
{
closed = 1;
nodes = (
"60 143 LINE",
"142 143 LINE",
"142 271 LINE",
"60 271 LINE"
);
},
{
closed = 1;
nodes = (
"156 143 LINE",
"238 143 LINE",
"238 271 LINE",
"156 271 LINE"
);
},
{
closed = 1;
nodes = (
"60 0 LINE",
"142 0 LINE",
"142 128 LINE",
"60 128 LINE"
);
},
{
closed = 1;
nodes = (
"156 0 LINE",
"238 0 LINE",
"238 128 LINE",
"156 128 LINE"
);
},
{
closed = 1;
nodes = (
"444 143 LINE",
"526 143 LINE",
"526 271 LINE",
"444 271 LINE"
);
},
{
closed = 1;
nodes = (
"540 143 LINE",
"622 143 LINE",
"622 271 LINE",
"540 271 LINE"
);
},
{
closed = 1;
nodes = (
"444 0 LINE",
"526 0 LINE",
"526 128 LINE",
"444 128 LINE"
);
},
{
closed = 1;
nodes = (
"540 0 LINE",
"622 0 LINE",
"622 128 LINE",
"540 128 LINE"
);
},
{
closed = 1;
nodes = (
"252 286 LINE",
"334 286 LINE",
"334 414 LINE",
"252 414 LINE"
);
},
{
closed = 1;
nodes = (
"348 286 LINE",
"430 286 LINE",
"430 414 LINE",
"348 414 LINE"
);
}
);
width = 682;
}
);
unicode = 0041;
},
{
glyphname = B;
lastChange = "2019-02-09 05:39:33 +0000";
layers = (
{
layerId = "3BA1B4B2-6ACF-4D2C-A9DD-A548EEBF9DB3";
paths = (
{
closed = 1;
nodes = (
"60 572 LINE",
"142 572 LINE",
"142 700 LINE",
"60 700 LINE"
);
},
{
closed = 1;
nodes = (
"156 572 LINE",
"238 572 LINE",
"238 700 LINE",
"156 700 LINE"
);
},
{
closed = 1;
nodes = (
"60 429 LINE",
"142 429 LINE",
"142 557 LINE",
"60 557 LINE"
);
},
{
closed = 1;
nodes = (
"156 429 LINE",
"238 429 LINE",
"238 557 LINE",
"156 557 LINE"
);
},
{
closed = 1;
nodes = (
"60 286 LINE",
"142 286 LINE",
"142 414 LINE",
"60 414 LINE"
);
},
{
closed = 1;
nodes = (
"156 286 LINE",
"238 286 LINE",
"238 414 LINE",
"156 414 LINE"
);
},
{
closed = 1;
nodes = (
"60 143 LINE",
"142 143 LINE",
"142 271 LINE",
"60 271 LINE"
);
},
{
closed = 1;
nodes = (
"156 143 LINE",
"238 143 LINE",
"238 271 LINE",
"156 271 LINE"
);
},
{
closed = 1;
nodes = (
"60 0 LINE",
"142 0 LINE",
"142 128 LINE",
"60 128 LINE"
);
},
{
closed = 1;
nodes = (
"156 0 LINE",
"238 0 LINE",
"238 128 LINE",
"156 128 LINE"
);
},
{
closed = 1;
nodes = (
"252 286 LINE",
"334 286 LINE",
"334 414 LINE",
"252 414 LINE"
);
},
{
closed = 1;
nodes = (
"348 286 LINE",
"430 286 LINE",
"430 414 LINE",
"348 414 LINE"
);
},
{
closed = 1;
nodes = (
"444 286 LINE",
"526 286 LINE",
"526 414 LINE",
"444 414 LINE"
);
},
{
closed = 1;
nodes = (
"444 429 LINE",
"526 429 LINE",
"526 557 LINE",
"444 557 LINE"
);
},
{
closed = 1;
nodes = (
"540 429 LINE",
"622 429 LINE",
"622 557 LINE",
"540 557 LINE"
);
},
{
closed = 1;
nodes = (
"444 572 LINE",
"526 572 LINE",
"526 700 LINE",
"444 700 LINE"
);
},
{
closed = 1;
nodes = (
"252 572 LINE",
"334 572 LINE",
"334 700 LINE",
"252 700 LINE"
);
},
{
closed = 1;
nodes = (
"348 572 LINE",
"430 572 LINE",
"430 700 LINE",
"348 700 LINE"
);
},
{
closed = 1;
nodes = (
"444 143 LINE",
"526 143 LINE",
"526 271 LINE",
"444 271 LINE"
);
},
{
closed = 1;
nodes = (
"540 143 LINE",
"622 143 LINE",
"622 271 LINE",
"540 271 LINE"
);
},
{
closed = 1;
nodes = (
"444 0 LINE",
"526 0 LINE",
"526 128 LINE",
"444 128 LINE"
);
},
{
closed = 1;
nodes = (
"252 0 LINE",
"334 0 LINE",
"334 128 LINE",
"252 128 LINE"
);
},
{
closed = 1;
nodes = (
"348 0 LINE",
"430 0 LINE",
"430 128 LINE",
"348 128 LINE"
);
}
);
width = 682;
}
);
unicode = 0042;
},
{
glyphname = C;
lastChange = "2019-02-09 05:38:04 +0000";
layers = (
{
layerId = "3BA1B4B2-6ACF-4D2C-A9DD-A548EEBF9DB3";
paths = (
{
closed = 1;
nodes = (
"156 572 LINE",
"238 572 LINE",
"238 700 LINE",
"156 700 LINE"
);
},
{
closed = 1;
nodes = (
"252 572 LINE",
"334 572 LINE",
"334 700 LINE",
"252 700 LINE"
);
},
{
closed = 1;
nodes = (
"348 572 LINE",
"430 572 LINE",
"430 700 LINE",
"348 700 LINE"
);
},
{
closed = 1;
nodes = (
"444 572 LINE",
"526 572 LINE",
"526 700 LINE",
"444 700 LINE"
);
},
{
closed = 1;
nodes = (
"444 429 LINE",
"526 429 LINE",
"526 557 LINE",
"444 557 LINE"
);
},
{
closed = 1;
nodes = (
"540 429 LINE",
"622 429 LINE",
"622 557 LINE",
"540 557 LINE"
);
},
{
closed = 1;
nodes = (
"60 429 LINE",
"142 429 LINE",
"142 557 LINE",
"60 557 LINE"
);
},
{
closed = 1;
nodes = (
"156 429 LINE",
"238 429 LINE",
"238 557 LINE",
"156 557 LINE"
);
},
{
closed = 1;
nodes = (
"60 286 LINE",
"142 286 LINE",
"142 414 LINE",
"60 414 LINE"
);
},
{
closed = 1;
nodes = (
"156 286 LINE",
"238 286 LINE",
"238 414 LINE",
"156 414 LINE"
);
},
{
closed = 1;
nodes = (
"60 143 LINE",
"142 143 LINE",
"142 271 LINE",
"60 271 LINE"
);
},
{
closed = 1;
nodes = (
"156 143 LINE",
"238 143 LINE",
"238 271 LINE",
"156 271 LINE"
);
},
{
closed = 1;
nodes = (
"156 0 LINE",
"238 0 LINE",
"238 128 LINE",
"156 128 LINE"
);
},
{
closed = 1;
nodes = (
"252 0 LINE",
"334 0 LINE",
"334 128 LINE",
"252 128 LINE"
);
},
{
closed = 1;
nodes = (
"348 0 LINE",
"430 0 LINE",
"430 128 LINE",
"348 128 LINE"
);
},
{
closed = 1;
nodes = (
"444 0 LINE",
"526 0 LINE",
"526 128 LINE",
"444 128 LINE"
);
},
{
closed = 1;
nodes = (
"444 143 LINE",
"526 143 LINE",
"526 271 LINE",
"444 271 LINE"
);
},
{
closed = 1;
nodes = (
"540 143 LINE",
"622 143 LINE",
"622 271 LINE",
"540 271 LINE"
);
}
);
width = 682;
}
);
unicode = 0043;
},
{
glyphname = D;
lastChange = "2019-02-09 05:39:33 +0000";
layers = (
{
layerId = "3BA1B4B2-6ACF-4D2C-A9DD-A548EEBF9DB3";
paths = (
{
closed = 1;
nodes = (
"60 572 LINE",
"142 572 LINE",
"142 700 LINE",
"60 700 LINE"
);
},
{
closed = 1;
nodes = (
"156 572 LINE",
"238 572 LINE",
"238 700 LINE",
"156 700 LINE"
);
},
{
closed = 1;
nodes = (
"60 429 LINE",
"142 429 LINE",
"142 557 LINE",
"60 557 LINE"
);
},
{
closed = 1;
nodes = (
"156 429 LINE",
"238 429 LINE",
"238 557 LINE",
"156 557 LINE"
);
},
{
closed = 1;
nodes = (
"60 286 LINE",
"142 286 LINE",
"142 414 LINE",
"60 414 LINE"
);
},
{
closed = 1;
nodes = (
"156 286 LINE",
"238 286 LINE",
"238 414 LINE",
"156 414 LINE"
);
},
{
closed = 1;
nodes = (
"60 143 LINE",
"142 143 LINE",
"142 271 LINE",
"60 271 LINE"
);
},
{
closed = 1;
nodes = (
"156 143 LINE",
"238 143 LINE",
"238 271 LINE",
"156 271 LINE"
);
},
{
closed = 1;
nodes = (
"60 0 LINE",
"142 0 LINE",
"142 128 LINE",
"60 128 LINE"
);
},
{
closed = 1;
nodes = (
"156 0 LINE",
"238 0 LINE",
"238 128 LINE",
"156 128 LINE"
);
},
{
closed = 1;
nodes = (
"252 572 LINE",
"334 572 LINE",
"334 700 LINE",
"252 700 LINE"
);
},
{
closed = 1;
nodes = (
"348 572 LINE",
"430 572 LINE",
"430 700 LINE",
"348 700 LINE"
);
},
{
closed = 1;
nodes = (
"252 0 LINE",
"334 0 LINE",
"334 128 LINE",
"252 128 LINE"
);
},
{
closed = 1;
nodes = (
"348 0 LINE",
"430 0 LINE",
"430 128 LINE",
"348 128 LINE"
);
},
{
closed = 1;
nodes = (
"444 572 LINE",
"526 572 LINE",
"526 700 LINE",
"444 700 LINE"
);
},
{
closed = 1;
nodes = (
"444 429 LINE",
"526 429 LINE",
"526 557 LINE",
"444 557 LINE"
);
},
{
closed = 1;
nodes = (
"540 429 LINE",
"622 429 LINE",
"622 557 LINE",
"540 557 LINE"
);
},
{
closed = 1;
nodes = (
"444 0 LINE",
"526 0 LINE",
"526 128 LINE",
"444 128 LINE"
);
},
{
closed = 1;
nodes = (
"444 143 LINE",
"526 143 LINE",
"526 271 LINE",
"444 271 LINE"
);
},
{
closed = 1;
nodes = (
"540 143 LINE",
"622 143 LINE",
"622 271 LINE",
"540 271 LINE"
);
},
{
closed = 1;
nodes = (
"444 286 LINE",
"526 286 LINE",
"526 414 LINE",
"444 414 LINE"
);
},
{
closed = 1;
nodes = (
"540 286 LINE",
"622 286 LINE",
"622 414 LINE",
"540 414 LINE"
);
}
);
width = 682;
}
);
unicode = 0044;
},
{
glyphname = E;
lastChange = "2019-02-09 05:39:33 +0000";
layers = (
{
layerId = "3BA1B4B2-6ACF-4D2C-A9DD-A548EEBF9DB3";
paths = (
{
closed = 1;
nodes = (
"60 572 LINE",
"142 572 LINE",
"142 700 LINE",
"60 700 LINE"
);
},
{
closed = 1;
nodes = (
"156 572 LINE",
"238 572 LINE",
"238 700 LINE",
"156 700 LINE"
);
},
{
closed = 1;
nodes = (
"252 572 LINE",
"334 572 LINE",
"334 700 LINE",
"252 700 LINE"
);
},
{
closed = 1;
nodes = (
"348 572 LINE",
"430 572 LINE",
"430 700 LINE",
"348 700 LINE"
);
},
{
closed = 1;
nodes = (
"444 572 LINE",
"526 572 LINE",
"526 700 LINE",
"444 700 LINE"
);
},
{
closed = 1;
nodes = (
"540 572 LINE",
"622 572 LINE",
"622 700 LINE",
"540 700 LINE"
);
},
{
closed = 1;
nodes = (
"60 429 LINE",
"142 429 LINE",
"142 557 LINE",
"60 557 LINE"
);
},
{
closed = 1;
nodes = (
"156 429 LINE",
"238 429 LINE",
"238 557 LINE",
"156 557 LINE"
);
},
{
closed = 1;
nodes = (
"60 286 LINE",
"142 286 LINE",
"142 414 LINE",
"60 414 LINE"
);
},
{
closed = 1;
nodes = (
"156 286 LINE",
"238 286 LINE",
"238 414 LINE",
"156 414 LINE"
);
},
{
closed = 1;
nodes = (
"252 286 LINE",
"334 286 LINE",
"334 414 LINE",
"252 414 LINE"
);
},
{
closed = 1;
nodes = (
"348 286 LINE",
"430 286 LINE",
"430 414 LINE",
"348 414 LINE"
);
},
{
closed = 1;
nodes = (
"444 286 LINE",
"526 286 LINE",
"526 414 LINE",
"444 414 LINE"
);
},
{
closed = 1;
nodes = (
"60 143 LINE",
"142 143 LINE",
"142 271 LINE",
"60 271 LINE"
);
},
{
closed = 1;
nodes = (
"156 143 LINE",
"238 143 LINE",
"238 271 LINE",
"156 271 LINE"
);
},
{
closed = 1;
nodes = (
"60 0 LINE",
"142 0 LINE",
"142 128 LINE",
"60 128 LINE"
);
},
{
closed = 1;
nodes = (
"156 0 LINE",
"238 0 LINE",
"238 128 LINE",
"156 128 LINE"
);
},
{
closed = 1;
nodes = (
"252 0 LINE",
"334 0 LINE",
"334 128 LINE",
"252 128 LINE"
);
},
{
closed = 1;
nodes = (
"348 0 LINE",
"430 0 LINE",
"430 128 LINE",
"348 128 LINE"
);
},
{
closed = 1;
nodes = (
"444 0 LINE",
"526 0 LINE",
"526 128 LINE",
"444 128 LINE"
);
},
{
closed = 1;
nodes = (
"540 0 LINE",
"622 0 LINE",
"622 128 LINE",
"540 128 LINE"
);
}
);
width = 682;
}
);
unicode = 0045;
},
{
glyphname = F;
lastChange = "2019-02-09 05:39:33 +0000";
layers = (
{
layerId = "3BA1B4B2-6ACF-4D2C-A9DD-A548EEBF9DB3";
paths = (
{
closed = 1;
nodes = (
"60 572 LINE",
"142 572 LINE",
"142 700 LINE",
"60 700 LINE"
);
},
{
closed = 1;
nodes = (
"156 572 LINE",
"238 572 LINE",
"238 700 LINE",
"156 700 LINE"
);
},
{
closed = 1;
nodes = (
"252 572 LINE",
"334 572 LINE",
"334 700 LINE",
"252 700 LINE"
);
},
{
closed = 1;
nodes = (
"348 572 LINE",
"430 572 LINE",
"430 700 LINE",
"348 700 LINE"
);
},
{
closed = 1;
nodes = (
"444 572 LINE",
"526 572 LINE",
"526 700 LINE",
"444 700 LINE"
);
},
{
closed = 1;
nodes = (
"540 572 LINE",
"622 572 LINE",
"622 700 LINE",
"540 700 LINE"
);
},
{
closed = 1;
nodes = (
"60 429 LINE",
"142 429 LINE",
"142 557 LINE",
"60 557 LINE"
);
},
{
closed = 1;
nodes = (
"156 429 LINE",
"238 429 LINE",
"238 557 LINE",
"156 557 LINE"
);
},
{
closed = 1;
nodes = (
"60 286 LINE",
"142 286 LINE",
"142 414 LINE",
"60 414 LINE"
);
},
{
closed = 1;
nodes = (
"156 286 LINE",
"238 286 LINE",
"238 414 LINE",
"156 414 LINE"
);
},
{
closed = 1;
nodes = (
"60 143 LINE",
"142 143 LINE",
"142 271 LINE",
"60 271 LINE"
);
},
{
closed = 1;
nodes = (
"156 143 LINE",
"238 143 LINE",
"238 271 LINE",
"156 271 LINE"
);
},
{
closed = 1;
nodes = (
"60 0 LINE",
"142 0 LINE",
"142 128 LINE",
"60 128 LINE"
);
},
{
closed = 1;
nodes = (
"156 0 LINE",
"238 0 LINE",
"238 128 LINE",
"156 128 LINE"
);
},
{
closed = 1;
nodes = (
"252 286 LINE",
"334 286 LINE",
"334 414 LINE",
"252 414 LINE"
);
},
{
closed = 1;
nodes = (
"348 286 LINE",
"430 286 LINE",
"430 414 LINE",
"348 414 LINE"
);
},
{
closed = 1;
nodes = (
"444 286 LINE",
"526 286 LINE",
"526 414 LINE",
"444 414 LINE"
);
}
);
width = 682;
}
);
unicode = 0046;
},
{
glyphname = G;
lastChange = "2019-02-09 05:39:33 +0000";
layers = (
{
layerId = "3BA1B4B2-6ACF-4D2C-A9DD-A548EEBF9DB3";
paths = (
{
closed = 1;
nodes = (
"540 572 LINE",
"622 572 LINE",
"622 700 LINE",
"540 700 LINE"
);
},
{
closed = 1;
nodes = (
"444 572 LINE",
"526 572 LINE",
"526 700 LINE",
"444 700 LINE"
);
},
{
closed = 1;
nodes = (
"348 572 LINE",
"430 572 LINE",
"430 700 LINE",
"348 700 LINE"
);
},
{
closed = 1;
nodes = (
"252 572 LINE",
"334 572 LINE",
"334 700 LINE",
"252 700 LINE"
);
},
{
closed = 1;
nodes = (
"156 572 LINE",
"238 572 LINE",
"238 700 LINE",
"156 700 LINE"
);
},
{
closed = 1;
nodes = (
"60 429 LINE",
"142 429 LINE",
"142 557 LINE",
"60 557 LINE"
);
},
{
closed = 1;
nodes = (
"156 429 LINE",
"238 429 LINE",
"238 557 LINE",
"156 557 LINE"
);
},
{
closed = 1;
nodes = (
"60 286 LINE",
"142 286 LINE",
"142 414 LINE",
"60 414 LINE"
);
},
{
closed = 1;
nodes = (
"156 286 LINE",
"238 286 LINE",
"238 414 LINE",
"156 414 LINE"
);
},
{
closed = 1;
nodes = (
"60 143 LINE",
"142 143 LINE",
"142 271 LINE",
"60 271 LINE"
);
},
{
closed = 1;
nodes = (
"156 143 LINE",
"238 143 LINE",
"238 271 LINE",
"156 271 LINE"
);
},
{
closed = 1;
nodes = (
"156 0 LINE",
"238 0 LINE",
"238 128 LINE",
"156 128 LINE"
);
},
{
closed = 1;
nodes = (
"252 0 LINE",
"334 0 LINE",
"334 128 LINE",
"252 128 LINE"
);
},
{
closed = 1;
nodes = (
"348 0 LINE",
"430 0 LINE",
"430 128 LINE",
"348 128 LINE"
);
},
{
closed = 1;
nodes = (
"444 0 LINE",
"526 0 LINE",
"526 128 LINE",
"444 128 LINE"
);
},
{
closed = 1;
nodes = (
"540 0 LINE",
"622 0 LINE",
"622 128 LINE",
"540 128 LINE"
);
},
{
closed = 1;
nodes = (
"540 143 LINE",
"622 143 LINE",
"622 271 LINE",
"540 271 LINE"
);
},
{
closed = 1;
nodes = (
"540 286 LINE",
"622 286 LINE",
"622 414 LINE",
"540 414 LINE"
);
},
{
closed = 1;
nodes = (
"444 286 LINE",
"526 286 LINE",
"526 414 LINE",
"444 414 LINE"
);
},
{
closed = 1;
nodes = (
"348 286 LINE",
"430 286 LINE",
"430 414 LINE",
"348 414 LINE"
);
}
);
width = 682;
}
);
unicode = 0047;
},
{
glyphname = H;
lastChange = "2019-02-09 05:39:33 +0000";
layers = (
{
layerId = "3BA1B4B2-6ACF-4D2C-A9DD-A548EEBF9DB3";
paths = (
{
closed = 1;
nodes = (
"60 572 LINE",
"142 572 LINE",
"142 700 LINE",
"60 700 LINE"
);
},
{
closed = 1;
nodes = (
"156 572 LINE",
"238 572 LINE",
"238 700 LINE",
"156 700 LINE"
);
},
{
closed = 1;
nodes = (
"60 429 LINE",
"142 429 LINE",
"142 557 LINE",
"60 557 LINE"
);
},
{
closed = 1;
nodes = (
"156 429 LINE",
"238 429 LINE",
"238 557 LINE",
"156 557 LINE"
);
},
{
closed = 1;
nodes = (
"60 286 LINE",
"142 286 LINE",
"142 414 LINE",
"60 414 LINE"
);
},
{
closed = 1;
nodes = (
"156 286 LINE",
"238 286 LINE",
"238 414 LINE",
"156 414 LINE"
);
},
{
closed = 1;
nodes = (
"60 143 LINE",
"142 143 LINE",
"142 271 LINE",
"60 271 LINE"
);
},
{
closed = 1;
nodes = (
"156 143 LINE",
"238 143 LINE",
"238 271 LINE",
"156 271 LINE"
);
},
{
closed = 1;
nodes = (
"60 0 LINE",
"142 0 LINE",
"142 128 LINE",
"60 128 LINE"
);
},
{
closed = 1;
nodes = (
"156 0 LINE",
"238 0 LINE",
"238 128 LINE",
"156 128 LINE"
);
},
{
closed = 1;
nodes = (
"252 286 LINE",
"334 286 LINE",
"334 414 LINE",
"252 414 LINE"
);
},
{
closed = 1;
nodes = (
"348 286 LINE",
"430 286 LINE",
"430 414 LINE",
"348 414 LINE"
);
},
{
closed = 1;
nodes = (
"444 286 LINE",
"526 286 LINE",
"526 414 LINE",
"444 414 LINE"
);
},
{
closed = 1;
nodes = (
"540 286 LINE",
"622 286 LINE",
"622 414 LINE",
"540 414 LINE"
);
},
{
closed = 1;
nodes = (
"444 429 LINE",
"526 429 LINE",
"526 557 LINE",
"444 557 LINE"
);
},
{
closed = 1;
nodes = (
"540 429 LINE",
"622 429 LINE",
"622 557 LINE",
"540 557 LINE"
);
},
{
closed = 1;
nodes = (
"444 572 LINE",
"526 572 LINE",
"526 700 LINE",
"444 700 LINE"
);
},
{
closed = 1;
nodes = (
"540 572 LINE",
"622 572 LINE",
"622 700 LINE",
"540 700 LINE"
);
},
{
closed = 1;
nodes = (
"444 143 LINE",
"526 143 LINE",
"526 271 LINE",
"444 271 LINE"
);
},
{
closed = 1;
nodes = (
"540 143 LINE",
"622 143 LINE",
"622 271 LINE",
"540 271 LINE"
);
},
{
closed = 1;
nodes = (
"444 0 LINE",
"526 0 LINE",
"526 128 LINE",
"444 128 LINE"
);
},
{
closed = 1;
nodes = (
"540 0 LINE",
"622 0 LINE",
"622 128 LINE",
"540 128 LINE"
);
}
);
width = 682;
}
);
unicode = 0048;
},
{
glyphname = I;
lastChange = "2019-02-09 05:39:33 +0000";
layers = (
{
layerId = "3BA1B4B2-6ACF-4D2C-A9DD-A548EEBF9DB3";
paths = (
{
closed = 1;
nodes = (
"60 572 LINE",
"142 572 LINE",
"142 700 LINE",
"60 700 LINE"
);
},
{
closed = 1;
nodes = (
"156 572 LINE",
"238 572 LINE",
"238 700 LINE",
"156 700 LINE"
);
},
{
closed = 1;
nodes = (
"252 572 LINE",
"334 572 LINE",
"334 700 LINE",
"252 700 LINE"
);
},
{
closed = 1;
nodes = (
"348 572 LINE",
"430 572 LINE",
"430 700 LINE",
"348 700 LINE"
);
},
{
closed = 1;
nodes = (
"444 572 LINE",
"526 572 LINE",
"526 700 LINE",
"444 700 LINE"
);
},
{
closed = 1;
nodes = (
"540 572 LINE",
"622 572 LINE",
"622 700 LINE",
"540 700 LINE"
);
},
{
closed = 1;
nodes = (
"252 429 LINE",
"334 429 LINE",
"334 557 LINE",
"252 557 LINE"
);
},
{
closed = 1;
nodes = (
"348 429 LINE",
"430 429 LINE",
"430 557 LINE",
"348 557 LINE"
);
},
{
closed = 1;
nodes = (
"252 286 LINE",
"334 286 LINE",
"334 414 LINE",
"252 414 LINE"
);
},
{
closed = 1;
nodes = (
"348 286 LINE",
"430 286 LINE",
"430 414 LINE",
"348 414 LINE"
);
},
{
closed = 1;
nodes = (
"252 143 LINE",
"334 143 LINE",
"334 271 LINE",
"252 271 LINE"
);
},
{
closed = 1;
nodes = (
"348 143 LINE",
"430 143 LINE",
"430 271 LINE",
"348 271 LINE"
);
},
{
closed = 1;
nodes = (
"252 0 LINE",
"334 0 LINE",
"334 128 LINE",
"252 128 LINE"
);
},
{
closed = 1;
nodes = (
"348 0 LINE",
"430 0 LINE",
"430 128 LINE",
"348 128 LINE"
);
},
{
closed = 1;
nodes = (
"156 0 LINE",
"238 0 LINE",
"238 128 LINE",
"156 128 LINE"
);
},
{
closed = 1;
nodes = (
"444 0 LINE",
"526 0 LINE",
"526 128 LINE",
"444 128 LINE"
);
},
{
closed = 1;
nodes = (
"60 0 LINE",
"142 0 LINE",
"142 128 LINE",
"60 128 LINE"
);
},
{
closed = 1;
nodes = (
"540 0 LINE",
"622 0 LINE",
"622 128 LINE",
"540 128 LINE"
);
}
);
width = 682;
}
);
unicode = 0049;
},
{
glyphname = J;
lastChange = "2019-02-09 05:39:33 +0000";
layers = (
{
layerId = "3BA1B4B2-6ACF-4D2C-A9DD-A548EEBF9DB3";
paths = (
{
closed = 1;
nodes = (
"444 572 LINE",
"526 572 LINE",
"526 700 LINE",
"444 700 LINE"
);
},
{
closed = 1;
nodes = (
"540 572 LINE",
"622 572 LINE",
"622 700 LINE",
"540 700 LINE"
);
},
{
closed = 1;
nodes = (
"444 429 LINE",
"526 429 LINE",
"526 557 LINE",
"444 557 LINE"
);
},
{
closed = 1;
nodes = (
"540 429 LINE",
"622 429 LINE",
"622 557 LINE",
"540 557 LINE"
);
},
{
closed = 1;
nodes = (
"444 286 LINE",
"526 286 LINE",
"526 414 LINE",
"444 414 LINE"
);
},
{
closed = 1;
nodes = (
"540 286 LINE",
"622 286 LINE",
"622 414 LINE",
"540 414 LINE"
);
},
{
closed = 1;
nodes = (
"444 143 LINE",
"526 143 LINE",
"526 271 LINE",
"444 271 LINE"
);
},
{
closed = 1;
nodes = (
"540 143 LINE",
"622 143 LINE",
"622 271 LINE",
"540 271 LINE"
);
},
{
closed = 1;
nodes = (
"444 0 LINE",
"526 0 LINE",
"526 128 LINE",
"444 128 LINE"
);
},
{
closed = 1;
nodes = (
"348 0 LINE",
"430 0 LINE",
"430 128 LINE",
"348 128 LINE"
);
},
{
closed = 1;
nodes = (
"252 0 LINE",
"334 0 LINE",
"334 128 LINE",
"252 128 LINE"
);
},
{
closed = 1;
nodes = (
"156 0 LINE",
"238 0 LINE",
"238 128 LINE",
"156 128 LINE"
);
},
{
closed = 1;
nodes = (
"156 143 LINE",
"238 143 LINE",
"238 271 LINE",
"156 271 LINE"
);
},
{
closed = 1;
nodes = (
"60 143 LINE",
"142 143 LINE",
"142 271 LINE",
"60 271 LINE"
);
}
);
width = 682;
}
);
unicode = 004A;
},
{
glyphname = K;
lastChange = "2019-02-09 05:39:33 +0000";
layers = (
{
layerId = "3BA1B4B2-6ACF-4D2C-A9DD-A548EEBF9DB3";
paths = (
{
closed = 1;
nodes = (
"60 572 LINE",
"142 572 LINE",
"142 700 LINE",
"60 700 LINE"
);
},
{
closed = 1;
nodes = (
"156 572 LINE",
"238 572 LINE",
"238 700 LINE",
"156 700 LINE"
);
},
{
closed = 1;
nodes = (
"60 429 LINE",
"142 429 LINE",
"142 557 LINE",
"60 557 LINE"
);
},
{
closed = 1;
nodes = (
"156 429 LINE",
"238 429 LINE",
"238 557 LINE",
"156 557 LINE"
);
},
{
closed = 1;
nodes = (
"60 286 LINE",
"142 286 LINE",
"142 414 LINE",
"60 414 LINE"
);
},
{
closed = 1;
nodes = (
"156 286 LINE",
"238 286 LINE",
"238 414 LINE",
"156 414 LINE"
);
},
{
closed = 1;
nodes = (
"60 143 LINE",
"142 143 LINE",
"142 271 LINE",
"60 271 LINE"
);
},
{
closed = 1;
nodes = (
"156 143 LINE",
"238 143 LINE",
"238 271 LINE",
"156 271 LINE"
);
},
{
closed = 1;
nodes = (
"60 0 LINE",
"142 0 LINE",
"142 128 LINE",
"60 128 LINE"
);
},
{
closed = 1;
nodes = (
"156 0 LINE",
"238 0 LINE",
"238 128 LINE",
"156 128 LINE"
);
},
{
closed = 1;
nodes = (
"252 286 LINE",
"334 286 LINE",
"334 414 LINE",
"252 414 LINE"
);
},
{
closed = 1;
nodes = (
"348 286 LINE",
"430 286 LINE",
"430 414 LINE",
"348 414 LINE"
);
},
{
closed = 1;
nodes = (
"348 429 LINE",
"430 429 LINE",
"430 557 LINE",
"348 557 LINE"
);
},
{
closed = 1;
nodes = (
"444 429 LINE",
"526 429 LINE",
"526 557 LINE",
"444 557 LINE"
);
},
{
closed = 1;
nodes = (
"444 572 LINE",
"526 572 LINE",
"526 700 LINE",
"444 700 LINE"
);
},
{
closed = 1;
nodes = (
"540 572 LINE",
"622 572 LINE",
"622 700 LINE",
"540 700 LINE"
);
},
{
closed = 1;
nodes = (
"348 143 LINE",
"430 143 LINE",
"430 271 LINE",
"348 271 LINE"
);
},
{
closed = 1;
nodes = (
"444 143 LINE",
"526 143 LINE",
"526 271 LINE",
"444 271 LINE"
);
},
{
closed = 1;
nodes = (
"444 0 LINE",
"526 0 LINE",
"526 128 LINE",
"444 128 LINE"
);
},
{
closed = 1;
nodes = (
"540 0 LINE",
"622 0 LINE",
"622 128 LINE",
"540 128 LINE"
);
}
);
width = 682;
}
);
unicode = 004B;
},
{
glyphname = L;
lastChange = "2019-02-09 05:39:33 +0000";
layers = (
{
layerId = "3BA1B4B2-6ACF-4D2C-A9DD-A548EEBF9DB3";
paths = (
{
closed = 1;
nodes = (
"60 572 LINE",
"142 572 LINE",
"142 700 LINE",
"60 700 LINE"
);
},
{
closed = 1;
nodes = (
"156 572 LINE",
"238 572 LINE",
"238 700 LINE",
"156 700 LINE"
);
},
{
closed = 1;
nodes = (
"60 429 LINE",
"142 429 LINE",
"142 557 LINE",
"60 557 LINE"
);
},
{
closed = 1;
nodes = (
"156 429 LINE",
"238 429 LINE",
"238 557 LINE",
"156 557 LINE"
);
},
{
closed = 1;
nodes = (
"60 286 LINE",
"142 286 LINE",
"142 414 LINE",
"60 414 LINE"
);
},
{
closed = 1;
nodes = (
"156 286 LINE",
"238 286 LINE",
"238 414 LINE",
"156 414 LINE"
);
},
{
closed = 1;
nodes = (
"60 143 LINE",
"142 143 LINE",
"142 271 LINE",
"60 271 LINE"
);
},
{
closed = 1;
nodes = (
"156 143 LINE",
"238 143 LINE",
"238 271 LINE",
"156 271 LINE"
);
},
{
closed = 1;
nodes = (
"60 0 LINE",
"142 0 LINE",
"142 128 LINE",
"60 128 LINE"
);
},
{
closed = 1;
nodes = (
"156 0 LINE",
"238 0 LINE",
"238 128 LINE",
"156 128 LINE"
);
},
{
closed = 1;
nodes = (
"252 0 LINE",
"334 0 LINE",
"334 128 LINE",
"252 128 LINE"
);
},
{
closed = 1;
nodes = (
"348 0 LINE",
"430 0 LINE",
"430 128 LINE",
"348 128 LINE"
);
},
{
closed = 1;
nodes = (
"444 0 LINE",
"526 0 LINE",
"526 128 LINE",
"444 128 LINE"
);
},
{
closed = 1;
nodes = (
"540 0 LINE",
"622 0 LINE",
"622 128 LINE",
"540 128 LINE"
);
}
);
width = 682;
}
);
unicode = 004C;
},
{
glyphname = M;
lastChange = "2019-02-09 05:39:33 +0000";
layers = (
{
layerId = "3BA1B4B2-6ACF-4D2C-A9DD-A548EEBF9DB3";
paths = (
{
closed = 1;
nodes = (
"60 572 LINE",
"142 572 LINE",
"142 700 LINE",
"60 700 LINE"
);
},
{
closed = 1;
nodes = (
"60 429 LINE",
"142 429 LINE",
"142 557 LINE",
"60 557 LINE"
);
},
{
closed = 1;
nodes = (
"156 429 LINE",
"238 429 LINE",
"238 557 LINE",
"156 557 LINE"
);
},
{
closed = 1;
nodes = (
"60 286 LINE",
"142 286 LINE",
"142 414 LINE",
"60 414 LINE"
);
},
{
closed = 1;
nodes = (
"156 286 LINE",
"238 286 LINE",
"238 414 LINE",
"156 414 LINE"
);
},
{
closed = 1;
nodes = (
"60 143 LINE",
"142 143 LINE",
"142 271 LINE",
"60 271 LINE"
);
},
{
closed = 1;
nodes = (
"156 143 LINE",
"238 143 LINE",
"238 271 LINE",
"156 271 LINE"
);
},
{
closed = 1;
nodes = (
"60 0 LINE",
"142 0 LINE",
"142 128 LINE",
"60 128 LINE"
);
},
{
closed = 1;
nodes = (
"156 0 LINE",
"238 0 LINE",
"238 128 LINE",
"156 128 LINE"
);
},
{
closed = 1;
nodes = (
"252 286 LINE",
"334 286 LINE",
"334 414 LINE",
"252 414 LINE"
);
},
{
closed = 1;
nodes = (
"348 286 LINE",
"430 286 LINE",
"430 414 LINE",
"348 414 LINE"
);
},
{
closed = 1;
nodes = (
"444 286 LINE",
"526 286 LINE",
"526 414 LINE",
"444 414 LINE"
);
},
{
closed = 1;
nodes = (
"540 286 LINE",
"622 286 LINE",
"622 414 LINE",
"540 414 LINE"
);
},
{
closed = 1;
nodes = (
"444 429 LINE",
"526 429 LINE",
"526 557 LINE",
"444 557 LINE"
);
},
{
closed = 1;
nodes = (
"540 429 LINE",
"622 429 LINE",
"622 557 LINE",
"540 557 LINE"
);
},
{
closed = 1;
nodes = (
"540 572 LINE",
"622 572 LINE",
"622 700 LINE",
"540 700 LINE"
);
},
{
closed = 1;
nodes = (
"444 143 LINE",
"526 143 LINE",
"526 271 LINE",
"444 271 LINE"
);
},
{
closed = 1;
nodes = (
"540 143 LINE",
"622 143 LINE",
"622 271 LINE",
"540 271 LINE"
);
},
{
closed = 1;
nodes = (
"444 0 LINE",
"526 0 LINE",
"526 128 LINE",
"444 128 LINE"
);
},
{
closed = 1;
nodes = (
"540 0 LINE",
"622 0 LINE",
"622 128 LINE",
"540 128 LINE"
);
}
);
width = 682;
}
);
unicode = 004D;
},
{
glyphname = N;
lastChange = "2019-02-09 05:39:33 +0000";
layers = (
{
layerId = "3BA1B4B2-6ACF-4D2C-A9DD-A548EEBF9DB3";
paths = (
{
closed = 1;
nodes = (
"60 572 LINE",
"142 572 LINE",
"142 700 LINE",
"60 700 LINE"
);
},
{
closed = 1;
nodes = (
"156 572 LINE",
"238 572 LINE",
"238 700 LINE",
"156 700 LINE"
);
},
{
closed = 1;
nodes = (
"60 429 LINE",
"142 429 LINE",
"142 557 LINE",
"60 557 LINE"
);
},
{
closed = 1;
nodes = (
"156 429 LINE",
"238 429 LINE",
"238 557 LINE",
"156 557 LINE"
);
},
{
closed = 1;
nodes = (
"60 286 LINE",
"142 286 LINE",
"142 414 LINE",
"60 414 LINE"
);
},
{
closed = 1;
nodes = (
"156 286 LINE",
"238 286 LINE",
"238 414 LINE",
"156 414 LINE"
);
},
{
closed = 1;
nodes = (
"60 143 LINE",
"142 143 LINE",
"142 271 LINE",
"60 271 LINE"
);
},
{
closed = 1;
nodes = (
"156 143 LINE",
"238 143 LINE",
"238 271 LINE",
"156 271 LINE"
);
},
{
closed = 1;
nodes = (
"60 0 LINE",
"142 0 LINE",
"142 128 LINE",
"60 128 LINE"
);
},
{
closed = 1;
nodes = (
"156 0 LINE",
"238 0 LINE",
"238 128 LINE",
"156 128 LINE"
);
},
{
closed = 1;
nodes = (
"444 572 LINE",
"526 572 LINE",
"526 700 LINE",
"444 700 LINE"
);
},
{
closed = 1;
nodes = (
"540 572 LINE",
"622 572 LINE",
"622 700 LINE",
"540 700 LINE"
);
},
{
closed = 1;
nodes = (
"444 429 LINE",
"526 429 LINE",
"526 557 LINE",
"444 557 LINE"
);
},
{
closed = 1;
nodes = (
"540 429 LINE",
"622 429 LINE",
"622 557 LINE",
"540 557 LINE"
);
},
{
closed = 1;
nodes = (
"444 286 LINE",
"526 286 LINE",
"526 414 LINE",
"444 414 LINE"
);
},
{
closed = 1;
nodes = (
"540 286 LINE",
"622 286 LINE",
"622 414 LINE",
"540 414 LINE"
);
},
{
closed = 1;
nodes = (
"444 143 LINE",
"526 143 LINE",
"526 271 LINE",
"444 271 LINE"
);
},
{
closed = 1;
nodes = (
"540 143 LINE",
"622 143 LINE",
"622 271 LINE",
"540 271 LINE"
);
},
{
closed = 1;
nodes = (
"444 0 LINE",
"526 0 LINE",
"526 128 LINE",
"444 128 LINE"
);
},
{
closed = 1;
nodes = (
"540 0 LINE",
"622 0 LINE",
"622 128 LINE",
"540 128 LINE"
);
},
{
closed = 1;
nodes = (
"252 429 LINE",
"334 429 LINE",
"334 557 LINE",
"252 557 LINE"
);
},
{
closed = 1;
nodes = (
"252 286 LINE",
"334 286 LINE",
"334 414 LINE",
"252 414 LINE"
);
},
{
closed = 1;
nodes = (
"348 286 LINE",
"430 286 LINE",
"430 414 LINE",
"348 414 LINE"
);
},
{
closed = 1;
nodes = (
"348 143 LINE",
"430 143 LINE",
"430 271 LINE",
"348 271 LINE"
);
}
);
width = 682;
}
);
unicode = 004E;
},
{
glyphname = O;
lastChange = "2019-02-09 05:39:33 +0000";
layers = (
{
layerId = "3BA1B4B2-6ACF-4D2C-A9DD-A548EEBF9DB3";
paths = (
{
closed = 1;
nodes = (
"156 572 LINE",
"238 572 LINE",
"238 700 LINE",
"156 700 LINE"
);
},
{
closed = 1;
nodes = (
"252 572 LINE",
"334 572 LINE",
"334 700 LINE",
"252 700 LINE"
);
},
{
closed = 1;
nodes = (
"348 572 LINE",
"430 572 LINE",
"430 700 LINE",
"348 700 LINE"
);
},
{
closed = 1;
nodes = (
"444 572 LINE",
"526 572 LINE",
"526 700 LINE",
"444 700 LINE"
);
},
{
closed = 1;
nodes = (
"60 429 LINE",
"142 429 LINE",
"142 557 LINE",
"60 557 LINE"
);
},
{
closed = 1;
nodes = (
"156 429 LINE",
"238 429 LINE",
"238 557 LINE",
"156 557 LINE"
);
},
{
closed = 1;
nodes = (
"444 429 LINE",
"526 429 LINE",
"526 557 LINE",
"444 557 LINE"
);
},
{
closed = 1;
nodes = (
"540 429 LINE",
"622 429 LINE",
"622 557 LINE",
"540 557 LINE"
);
},
{
closed = 1;
nodes = (
"60 286 LINE",
"142 286 LINE",
"142 414 LINE",
"60 414 LINE"
);
},
{
closed = 1;
nodes = (
"156 286 LINE",
"238 286 LINE",
"238 414 LINE",
"156 414 LINE"
);
},
{
closed = 1;
nodes = (
"444 286 LINE",
"526 286 LINE",
"526 414 LINE",
"444 414 LINE"
);
},
{
closed = 1;
nodes = (
"540 286 LINE",
"622 286 LINE",
"622 414 LINE",
"540 414 LINE"
);
},
{
closed = 1;
nodes = (
"60 143 LINE",
"142 143 LINE",
"142 271 LINE",
"60 271 LINE"
);
},
{
closed = 1;
nodes = (
"156 143 LINE",
"238 143 LINE",
"238 271 LINE",
"156 271 LINE"
);
},
{
closed = 1;
nodes = (
"444 143 LINE",
"526 143 LINE",
"526 271 LINE",
"444 271 LINE"
);
},
{
closed = 1;
nodes = (
"540 143 LINE",
"622 143 LINE",
"622 271 LINE",
"540 271 LINE"
);
},
{
closed = 1;
nodes = (
"156 0 LINE",
"238 0 LINE",
"238 128 LINE",
"156 128 LINE"
);
},
{
closed = 1;
nodes = (
"252 0 LINE",
"334 0 LINE",
"334 128 LINE",
"252 128 LINE"
);
},
{
closed = 1;
nodes = (
"348 0 LINE",
"430 0 LINE",
"430 128 LINE",
"348 128 LINE"
);
},
{
closed = 1;
nodes = (
"444 0 LINE",
"526 0 LINE",
"526 128 LINE",
"444 128 LINE"
);
}
);
width = 682;
}
);
unicode = 004F;
},
{
glyphname = P;
lastChange = "2019-02-09 05:39:33 +0000";
layers = (
{
layerId = "3BA1B4B2-6ACF-4D2C-A9DD-A548EEBF9DB3";
paths = (
{
closed = 1;
nodes = (
"60 572 LINE",
"142 572 LINE",
"142 700 LINE",
"60 700 LINE"
);
},
{
closed = 1;
nodes = (
"156 572 LINE",
"238 572 LINE",
"238 700 LINE",
"156 700 LINE"
);
},
{
closed = 1;
nodes = (
"252 572 LINE",
"334 572 LINE",
"334 700 LINE",
"252 700 LINE"
);
},
{
closed = 1;
nodes = (
"348 572 LINE",
"430 572 LINE",
"430 700 LINE",
"348 700 LINE"
);
},
{
closed = 1;
nodes = (
"444 572 LINE",
"526 572 LINE",
"526 700 LINE",
"444 700 LINE"
);
},
{
closed = 1;
nodes = (
"444 429 LINE",
"526 429 LINE",
"526 557 LINE",
"444 557 LINE"
);
},
{
closed = 1;
nodes = (
"540 429 LINE",
"622 429 LINE",
"622 557 LINE",
"540 557 LINE"
);
},
{
closed = 1;
nodes = (
"60 429 LINE",
"142 429 LINE",
"142 557 LINE",
"60 557 LINE"
);
},
{
closed = 1;
nodes = (
"156 429 LINE",
"238 429 LINE",
"238 557 LINE",
"156 557 LINE"
);
},
{
closed = 1;
nodes = (
"60 286 LINE",
"142 286 LINE",
"142 414 LINE",
"60 414 LINE"
);
},
{
closed = 1;
nodes = (
"156 286 LINE",
"238 286 LINE",
"238 414 LINE",
"156 414 LINE"
);
},
{
closed = 1;
nodes = (
"252 286 LINE",
"334 286 LINE",
"334 414 LINE",
"252 414 LINE"
);
},
{
closed = 1;
nodes = (
"348 286 LINE",
"430 286 LINE",
"430 414 LINE",
"348 414 LINE"
);
},
{
closed = 1;
nodes = (
"444 286 LINE",
"526 286 LINE",
"526 414 LINE",
"444 414 LINE"
);
},
{
closed = 1;
nodes = (
"60 143 LINE",
"142 143 LINE",
"142 271 LINE",
"60 271 LINE"
);
},
{
closed = 1;
nodes = (
"156 143 LINE",
"238 143 LINE",
"238 271 LINE",
"156 271 LINE"
);
},
{
closed = 1;
nodes = (
"60 0 LINE",
"142 0 LINE",
"142 128 LINE",
"60 128 LINE"
);
},
{
closed = 1;
nodes = (
"156 0 LINE",
"238 0 LINE",
"238 128 LINE",
"156 128 LINE"
);
}
);
width = 682;
}
);
unicode = 0050;
},
{
glyphname = Q;
lastChange = "2019-02-09 05:39:33 +0000";
layers = (
{
layerId = "3BA1B4B2-6ACF-4D2C-A9DD-A548EEBF9DB3";
paths = (
{
closed = 1;
nodes = (
"60 429 LINE",
"142 429 LINE",
"142 557 LINE",
"60 557 LINE"
);
},
{
closed = 1;
nodes = (
"156 429 LINE",
"238 429 LINE",
"238 557 LINE",
"156 557 LINE"
);
},
{
closed = 1;
nodes = (
"156 572 LINE",
"238 572 LINE",
"238 700 LINE",
"156 700 LINE"
);
},
{
closed = 1;
nodes = (
"252 572 LINE",
"334 572 LINE",
"334 700 LINE",
"252 700 LINE"
);
},
{
closed = 1;
nodes = (
"348 572 LINE",
"430 572 LINE",
"430 700 LINE",
"348 700 LINE"
);
},
{
closed = 1;
nodes = (
"444 572 LINE",
"526 572 LINE",
"526 700 LINE",
"444 700 LINE"
);
},
{
closed = 1;
nodes = (
"540 572 LINE",
"622 572 LINE",
"622 700 LINE",
"540 700 LINE"
);
},
{
closed = 1;
nodes = (
"156 286 LINE",
"238 286 LINE",
"238 414 LINE",
"156 414 LINE"
);
},
{
closed = 1;
nodes = (
"252 286 LINE",
"334 286 LINE",
"334 414 LINE",
"252 414 LINE"
);
},
{
closed = 1;
nodes = (
"348 286 LINE",
"430 286 LINE",
"430 414 LINE",
"348 414 LINE"
);
},
{
closed = 1;
nodes = (
"444 286 LINE",
"526 286 LINE",
"526 414 LINE",
"444 414 LINE"
);
},
{
closed = 1;
nodes = (
"540 286 LINE",
"622 286 LINE",
"622 414 LINE",
"540 414 LINE"
);
},
{
closed = 1;
nodes = (
"444 429 LINE",
"526 429 LINE",
"526 557 LINE",
"444 557 LINE"
);
},
{
closed = 1;
nodes = (
"540 429 LINE",
"622 429 LINE",
"622 557 LINE",
"540 557 LINE"
);
},
{
closed = 1;
nodes = (
"444 143 LINE",
"526 143 LINE",
"526 271 LINE",
"444 271 LINE"
);
},
{
closed = 1;
nodes = (
"540 143 LINE",
"622 143 LINE",
"622 271 LINE",
"540 271 LINE"
);
},
{
closed = 1;
nodes = (
"444 0 LINE",
"526 0 LINE",
"526 128 LINE",
"444 128 LINE"
);
},
{
closed = 1;
nodes = (
"540 0 LINE",
"622 0 LINE",
"622 128 LINE",
"540 128 LINE"
);
}
);
width = 682;
}
);
unicode = 0051;
},
{
glyphname = R;
lastChange = "2019-02-09 05:39:33 +0000";
layers = (
{
layerId = "3BA1B4B2-6ACF-4D2C-A9DD-A548EEBF9DB3";
paths = (
{
closed = 1;
nodes = (
"60 572 LINE",
"142 572 LINE",
"142 700 LINE",
"60 700 LINE"
);
},
{
closed = 1;
nodes = (
"156 572 LINE",
"238 572 LINE",
"238 700 LINE",
"156 700 LINE"
);
},
{
closed = 1;
nodes = (
"60 429 LINE",
"142 429 LINE",
"142 557 LINE",
"60 557 LINE"
);
},
{
closed = 1;
nodes = (
"156 429 LINE",
"238 429 LINE",
"238 557 LINE",
"156 557 LINE"
);
},
{
closed = 1;
nodes = (
"60 286 LINE",
"142 286 LINE",
"142 414 LINE",
"60 414 LINE"
);
},
{
closed = 1;
nodes = (
"156 286 LINE",
"238 286 LINE",
"238 414 LINE",
"156 414 LINE"
);
},
{
closed = 1;
nodes = (
"60 143 LINE",
"142 143 LINE",
"142 271 LINE",
"60 271 LINE"
);
},
{
closed = 1;
nodes = (
"156 143 LINE",
"238 143 LINE",
"238 271 LINE",
"156 271 LINE"
);
},
{
closed = 1;
nodes = (
"60 0 LINE",
"142 0 LINE",
"142 128 LINE",
"60 128 LINE"
);
},
{
closed = 1;
nodes = (
"156 0 LINE",
"238 0 LINE",
"238 128 LINE",
"156 128 LINE"
);
},
{
closed = 1;
nodes = (
"252 572 LINE",
"334 572 LINE",
"334 700 LINE",
"252 700 LINE"
);
},
{
closed = 1;
nodes = (
"348 572 LINE",
"430 572 LINE",
"430 700 LINE",
"348 700 LINE"
);
},
{
closed = 1;
nodes = (
"444 572 LINE",
"526 572 LINE",
"526 700 LINE",
"444 700 LINE"
);
},
{
closed = 1;
nodes = (
"444 429 LINE",
"526 429 LINE",
"526 557 LINE",
"444 557 LINE"
);
},
{
closed = 1;
nodes = (
"540 429 LINE",
"622 429 LINE",
"622 557 LINE",
"540 557 LINE"
);
},
{
closed = 1;
nodes = (
"444 286 LINE",
"526 286 LINE",
"526 414 LINE",
"444 414 LINE"
);
},
{
closed = 1;
nodes = (
"348 286 LINE",
"430 286 LINE",
"430 414 LINE",
"348 414 LINE"
);
},
{
closed = 1;
nodes = (
"252 286 LINE",
"334 286 LINE",
"334 414 LINE",
"252 414 LINE"
);
},
{
closed = 1;
nodes = (
"444 143 LINE",
"526 143 LINE",
"526 271 LINE",
"444 271 LINE"
);
},
{
closed = 1;
nodes = (
"540 143 LINE",
"622 143 LINE",
"622 271 LINE",
"540 271 LINE"
);
},
{
closed = 1;
nodes = (
"444 0 LINE",
"526 0 LINE",
"526 128 LINE",
"444 128 LINE"
);
},
{
closed = 1;
nodes = (
"540 0 LINE",
"622 0 LINE",
"622 128 LINE",
"540 128 LINE"
);
}
);
width = 682;
}
);
unicode = 0052;
},
{
glyphname = S;
lastChange = "2019-02-09 05:39:33 +0000";
layers = (
{
layerId = "3BA1B4B2-6ACF-4D2C-A9DD-A548EEBF9DB3";
paths = (
{
closed = 1;
nodes = (
"540 572 LINE",
"622 572 LINE",
"622 700 LINE",
"540 700 LINE"
);
},
{
closed = 1;
nodes = (
"444 572 LINE",
"526 572 LINE",
"526 700 LINE",
"444 700 LINE"
);
},
{
closed = 1;
nodes = (
"348 572 LINE",
"430 572 LINE",
"430 700 LINE",
"348 700 LINE"
);
},
{
closed = 1;
nodes = (
"252 572 LINE",
"334 572 LINE",
"334 700 LINE",
"252 700 LINE"
);
},
{
closed = 1;
nodes = (
"156 572 LINE",
"238 572 LINE",
"238 700 LINE",
"156 700 LINE"
);
},
{
closed = 1;
nodes = (
"60 572 LINE",
"142 572 LINE",
"142 700 LINE",
"60 700 LINE"
);
},
{
closed = 1;
nodes = (
"60 429 LINE",
"142 429 LINE",
"142 557 LINE",
"60 557 LINE"
);
},
{
closed = 1;
nodes = (
"156 429 LINE",
"238 429 LINE",
"238 557 LINE",
"156 557 LINE"
);
},
{
closed = 1;
nodes = (
"252 286 LINE",
"334 286 LINE",
"334 414 LINE",
"252 414 LINE"
);
},
{
closed = 1;
nodes = (
"348 286 LINE",
"430 286 LINE",
"430 414 LINE",
"348 414 LINE"
);
},
{
closed = 1;
nodes = (
"444 143 LINE",
"526 143 LINE",
"526 271 LINE",
"444 271 LINE"
);
},
{
closed = 1;
nodes = (
"540 143 LINE",
"622 143 LINE",
"622 271 LINE",
"540 271 LINE"
);
},
{
closed = 1;
nodes = (
"444 0 LINE",
"526 0 LINE",
"526 128 LINE",
"444 128 LINE"
);
},
{
closed = 1;
nodes = (
"540 0 LINE",
"622 0 LINE",
"622 128 LINE",
"540 128 LINE"
);
},
{
closed = 1;
nodes = (
"348 0 LINE",
"430 0 LINE",
"430 128 LINE",
"348 128 LINE"
);
},
{
closed = 1;
nodes = (
"252 0 LINE",
"334 0 LINE",
"334 128 LINE",
"252 128 LINE"
);
},
{
closed = 1;
nodes = (
"156 0 LINE",
"238 0 LINE",
"238 128 LINE",
"156 128 LINE"
);
},
{
closed = 1;
nodes = (
"60 0 LINE",
"142 0 LINE",
"142 128 LINE",
"60 128 LINE"
);
}
);
width = 682;
}
);
unicode = 0053;
},
{
glyphname = T;
lastChange = "2019-02-09 05:39:33 +0000";
layers = (
{
layerId = "3BA1B4B2-6ACF-4D2C-A9DD-A548EEBF9DB3";
paths = (
{
closed = 1;
nodes = (
"60 572 LINE",
"142 572 LINE",
"142 700 LINE",
"60 700 LINE"
);
},
{
closed = 1;
nodes = (
"156 572 LINE",
"238 572 LINE",
"238 700 LINE",
"156 700 LINE"
);
},
{
closed = 1;
nodes = (
"252 572 LINE",
"334 572 LINE",
"334 700 LINE",
"252 700 LINE"
);
},
{
closed = 1;
nodes = (
"348 572 LINE",
"430 572 LINE",
"430 700 LINE",
"348 700 LINE"
);
},
{
closed = 1;
nodes = (
"252 429 LINE",
"334 429 LINE",
"334 557 LINE",
"252 557 LINE"
);
},
{
closed = 1;
nodes = (
"348 429 LINE",
"430 429 LINE",
"430 557 LINE",
"348 557 LINE"
);
},
{
closed = 1;
nodes = (
"444 572 LINE",
"526 572 LINE",
"526 700 LINE",
"444 700 LINE"
);
},
{
closed = 1;
nodes = (
"540 572 LINE",
"622 572 LINE",
"622 700 LINE",
"540 700 LINE"
);
},
{
closed = 1;
nodes = (
"252 286 LINE",
"334 286 LINE",
"334 414 LINE",
"252 414 LINE"
);
},
{
closed = 1;
nodes = (
"348 286 LINE",
"430 286 LINE",
"430 414 LINE",
"348 414 LINE"
);
},
{
closed = 1;
nodes = (
"252 143 LINE",
"334 143 LINE",
"334 271 LINE",
"252 271 LINE"
);
},
{
closed = 1;
nodes = (
"348 143 LINE",
"430 143 LINE",
"430 271 LINE",
"348 271 LINE"
);
},
{
closed = 1;
nodes = (
"252 0 LINE",
"334 0 LINE",
"334 128 LINE",
"252 128 LINE"
);
},
{
closed = 1;
nodes = (
"348 0 LINE",
"430 0 LINE",
"430 128 LINE",
"348 128 LINE"
);
}
);
width = 682;
}
);
unicode = 0054;
},
{
glyphname = U;
lastChange = "2019-02-09 05:39:33 +0000";
layers = (
{
layerId = "3BA1B4B2-6ACF-4D2C-A9DD-A548EEBF9DB3";
paths = (
{
closed = 1;
nodes = (
"156 0 LINE",
"238 0 LINE",
"238 128 LINE",
"156 128 LINE"
);
},
{
closed = 1;
nodes = (
"252 0 LINE",
"334 0 LINE",
"334 128 LINE",
"252 128 LINE"
);
},
{
closed = 1;
nodes = (
"348 0 LINE",
"430 0 LINE",
"430 128 LINE",
"348 128 LINE"
);
},
{
closed = 1;
nodes = (
"444 0 LINE",
"526 0 LINE",
"526 128 LINE",
"444 128 LINE"
);
},
{
closed = 1;
nodes = (
"60 572 LINE",
"142 572 LINE",
"142 700 LINE",
"60 700 LINE"
);
},
{
closed = 1;
nodes = (
"156 572 LINE",
"238 572 LINE",
"238 700 LINE",
"156 700 LINE"
);
},
{
closed = 1;
nodes = (
"60 429 LINE",
"142 429 LINE",
"142 557 LINE",
"60 557 LINE"
);
},
{
closed = 1;
nodes = (
"156 429 LINE",
"238 429 LINE",
"238 557 LINE",
"156 557 LINE"
);
},
{
closed = 1;
nodes = (
"60 286 LINE",
"142 286 LINE",
"142 414 LINE",
"60 414 LINE"
);
},
{
closed = 1;
nodes = (
"156 286 LINE",
"238 286 LINE",
"238 414 LINE",
"156 414 LINE"
);
},
{
closed = 1;
nodes = (
"60 143 LINE",
"142 143 LINE",
"142 271 LINE",
"60 271 LINE"
);
},
{
closed = 1;
nodes = (
"156 143 LINE",
"238 143 LINE",
"238 271 LINE",
"156 271 LINE"
);
},
{
closed = 1;
nodes = (
"444 143 LINE",
"526 143 LINE",
"526 271 LINE",
"444 271 LINE"
);
},
{
closed = 1;
nodes = (
"540 143 LINE",
"622 143 LINE",
"622 271 LINE",
"540 271 LINE"
);
},
{
closed = 1;
nodes = (
"444 286 LINE",
"526 286 LINE",
"526 414 LINE",
"444 414 LINE"
);
},
{
closed = 1;
nodes = (
"540 286 LINE",
"622 286 LINE",
"622 414 LINE",
"540 414 LINE"
);
},
{
closed = 1;
nodes = (
"444 429 LINE",
"526 429 LINE",
"526 557 LINE",
"444 557 LINE"
);
},
{
closed = 1;
nodes = (
"540 429 LINE",
"622 429 LINE",
"622 557 LINE",
"540 557 LINE"
);
},
{
closed = 1;
nodes = (
"444 572 LINE",
"526 572 LINE",
"526 700 LINE",
"444 700 LINE"
);
},
{
closed = 1;
nodes = (
"540 572 LINE",
"622 572 LINE",
"622 700 LINE",
"540 700 LINE"
);
}
);
width = 682;
}
);
unicode = 0055;
},
{
glyphname = V;
lastChange = "2019-02-09 05:39:33 +0000";
layers = (
{
layerId = "3BA1B4B2-6ACF-4D2C-A9DD-A548EEBF9DB3";
paths = (
{
closed = 1;
nodes = (
"60 572 LINE",
"142 572 LINE",
"142 700 LINE",
"60 700 LINE"
);
},
{
closed = 1;
nodes = (
"156 572 LINE",
"238 572 LINE",
"238 700 LINE",
"156 700 LINE"
);
},
{
closed = 1;
nodes = (
"60 429 LINE",
"142 429 LINE",
"142 557 LINE",
"60 557 LINE"
);
},
{
closed = 1;
nodes = (
"156 429 LINE",
"238 429 LINE",
"238 557 LINE",
"156 557 LINE"
);
},
{
closed = 1;
nodes = (
"60 286 LINE",
"142 286 LINE",
"142 414 LINE",
"60 414 LINE"
);
},
{
closed = 1;
nodes = (
"156 286 LINE",
"238 286 LINE",
"238 414 LINE",
"156 414 LINE"
);
},
{
closed = 1;
nodes = (
"444 572 LINE",
"526 572 LINE",
"526 700 LINE",
"444 700 LINE"
);
},
{
closed = 1;
nodes = (
"540 572 LINE",
"622 572 LINE",
"622 700 LINE",
"540 700 LINE"
);
},
{
closed = 1;
nodes = (
"444 429 LINE",
"526 429 LINE",
"526 557 LINE",
"444 557 LINE"
);
},
{
closed = 1;
nodes = (
"540 429 LINE",
"622 429 LINE",
"622 557 LINE",
"540 557 LINE"
);
},
{
closed = 1;
nodes = (
"444 286 LINE",
"526 286 LINE",
"526 414 LINE",
"444 414 LINE"
);
},
{
closed = 1;
nodes = (
"540 286 LINE",
"622 286 LINE",
"622 414 LINE",
"540 414 LINE"
);
},
{
closed = 1;
nodes = (
"156 143 LINE",
"238 143 LINE",
"238 271 LINE",
"156 271 LINE"
);
},
{
closed = 1;
nodes = (
"252 143 LINE",
"334 143 LINE",
"334 271 LINE",
"252 271 LINE"
);
},
{
closed = 1;
nodes = (
"348 143 LINE",
"430 143 LINE",
"430 271 LINE",
"348 271 LINE"
);
},
{
closed = 1;
nodes = (
"444 143 LINE",
"526 143 LINE",
"526 271 LINE",
"444 271 LINE"
);
},
{
closed = 1;
nodes = (
"252 0 LINE",
"334 0 LINE",
"334 128 LINE",
"252 128 LINE"
);
},
{
closed = 1;
nodes = (
"348 0 LINE",
"430 0 LINE",
"430 128 LINE",
"348 128 LINE"
);
}
);
width = 682;
}
);
unicode = 0056;
},
{
glyphname = W;
lastChange = "2019-02-09 05:39:33 +0000";
layers = (
{
layerId = "3BA1B4B2-6ACF-4D2C-A9DD-A548EEBF9DB3";
paths = (
{
closed = 1;
nodes = (
"60 572 LINE",
"142 572 LINE",
"142 700 LINE",
"60 700 LINE"
);
},
{
closed = 1;
nodes = (
"60 429 LINE",
"142 429 LINE",
"142 557 LINE",
"60 557 LINE"
);
},
{
closed = 1;
nodes = (
"60 286 LINE",
"142 286 LINE",
"142 414 LINE",
"60 414 LINE"
);
},
{
closed = 1;
nodes = (
"60 143 LINE",
"142 143 LINE",
"142 271 LINE",
"60 271 LINE"
);
},
{
closed = 1;
nodes = (
"156 0 LINE",
"238 0 LINE",
"238 128 LINE",
"156 128 LINE"
);
},
{
closed = 1;
nodes = (
"252 0 LINE",
"334 0 LINE",
"334 128 LINE",
"252 128 LINE"
);
},
{
closed = 1;
nodes = (
"348 0 LINE",
"430 0 LINE",
"430 128 LINE",
"348 128 LINE"
);
},
{
closed = 1;
nodes = (
"444 0 LINE",
"526 0 LINE",
"526 128 LINE",
"444 128 LINE"
);
},
{
closed = 1;
nodes = (
"540 572 LINE",
"622 572 LINE",
"622 700 LINE",
"540 700 LINE"
);
},
{
closed = 1;
nodes = (
"540 429 LINE",
"622 429 LINE",
"622 557 LINE",
"540 557 LINE"
);
},
{
closed = 1;
nodes = (
"540 286 LINE",
"622 286 LINE",
"622 414 LINE",
"540 414 LINE"
);
},
{
closed = 1;
nodes = (
"540 143 LINE",
"622 143 LINE",
"622 271 LINE",
"540 271 LINE"
);
},
{
closed = 1;
nodes = (
"252 429 LINE",
"334 429 LINE",
"334 557 LINE",
"252 557 LINE"
);
},
{
closed = 1;
nodes = (
"348 429 LINE",
"430 429 LINE",
"430 557 LINE",
"348 557 LINE"
);
},
{
closed = 1;
nodes = (
"252 286 LINE",
"334 286 LINE",
"334 414 LINE",
"252 414 LINE"
);
},
{
closed = 1;
nodes = (
"348 286 LINE",
"430 286 LINE",
"430 414 LINE",
"348 414 LINE"
);
},
{
closed = 1;
nodes = (
"252 143 LINE",
"334 143 LINE",
"334 271 LINE",
"252 271 LINE"
);
},
{
closed = 1;
nodes = (
"348 143 LINE",
"430 143 LINE",
"430 271 LINE",
"348 271 LINE"
);
}
);
width = 682;
}
);
unicode = 0057;
},
{
glyphname = X;
lastChange = "2019-02-09 05:39:33 +0000";
layers = (
{
layerId = "3BA1B4B2-6ACF-4D2C-A9DD-A548EEBF9DB3";
paths = (
{
closed = 1;
nodes = (
"156 286 LINE",
"238 286 LINE",
"238 414 LINE",
"156 414 LINE"
);
},
{
closed = 1;
nodes = (
"252 286 LINE",
"334 286 LINE",
"334 414 LINE",
"252 414 LINE"
);
},
{
closed = 1;
nodes = (
"348 286 LINE",
"430 286 LINE",
"430 414 LINE",
"348 414 LINE"
);
},
{
closed = 1;
nodes = (
"444 286 LINE",
"526 286 LINE",
"526 414 LINE",
"444 414 LINE"
);
},
{
closed = 1;
nodes = (
"60 429 LINE",
"142 429 LINE",
"142 557 LINE",
"60 557 LINE"
);
},
{
closed = 1;
nodes = (
"156 429 LINE",
"238 429 LINE",
"238 557 LINE",
"156 557 LINE"
);
},
{
closed = 1;
nodes = (
"444 429 LINE",
"526 429 LINE",
"526 557 LINE",
"444 557 LINE"
);
},
{
closed = 1;
nodes = (
"540 429 LINE",
"622 429 LINE",
"622 557 LINE",
"540 557 LINE"
);
},
{
closed = 1;
nodes = (
"444 572 LINE",
"526 572 LINE",
"526 700 LINE",
"444 700 LINE"
);
},
{
closed = 1;
nodes = (
"540 572 LINE",
"622 572 LINE",
"622 700 LINE",
"540 700 LINE"
);
},
{
closed = 1;
nodes = (
"60 572 LINE",
"142 572 LINE",
"142 700 LINE",
"60 700 LINE"
);
},
{
closed = 1;
nodes = (
"156 572 LINE",
"238 572 LINE",
"238 700 LINE",
"156 700 LINE"
);
},
{
closed = 1;
nodes = (
"60 143 LINE",
"142 143 LINE",
"142 271 LINE",
"60 271 LINE"
);
},
{
closed = 1;
nodes = (
"156 143 LINE",
"238 143 LINE",
"238 271 LINE",
"156 271 LINE"
);
},
{
closed = 1;
nodes = (
"444 143 LINE",
"526 143 LINE",
"526 271 LINE",
"444 271 LINE"
);
},
{
closed = 1;
nodes = (
"540 143 LINE",
"622 143 LINE",
"622 271 LINE",
"540 271 LINE"
);
},
{
closed = 1;
nodes = (
"60 0 LINE",
"142 0 LINE",
"142 128 LINE",
"60 128 LINE"
);
},
{
closed = 1;
nodes = (
"156 0 LINE",
"238 0 LINE",
"238 128 LINE",
"156 128 LINE"
);
},
{
closed = 1;
nodes = (
"444 0 LINE",
"526 0 LINE",
"526 128 LINE",
"444 128 LINE"
);
},
{
closed = 1;
nodes = (
"540 0 LINE",
"622 0 LINE",
"622 128 LINE",
"540 128 LINE"
);
}
);
width = 682;
}
);
unicode = 0058;
},
{
glyphname = Y;
lastChange = "2019-02-09 05:39:33 +0000";
layers = (
{
layerId = "3BA1B4B2-6ACF-4D2C-A9DD-A548EEBF9DB3";
paths = (
{
closed = 1;
nodes = (
"60 572 LINE",
"142 572 LINE",
"142 700 LINE",
"60 700 LINE"
);
},
{
closed = 1;
nodes = (
"156 572 LINE",
"238 572 LINE",
"238 700 LINE",
"156 700 LINE"
);
},
{
closed = 1;
nodes = (
"60 429 LINE",
"142 429 LINE",
"142 557 LINE",
"60 557 LINE"
);
},
{
closed = 1;
nodes = (
"156 429 LINE",
"238 429 LINE",
"238 557 LINE",
"156 557 LINE"
);
},
{
closed = 1;
nodes = (
"60 286 LINE",
"142 286 LINE",
"142 414 LINE",
"60 414 LINE"
);
},
{
closed = 1;
nodes = (
"156 286 LINE",
"238 286 LINE",
"238 414 LINE",
"156 414 LINE"
);
},
{
closed = 1;
nodes = (
"252 286 LINE",
"334 286 LINE",
"334 414 LINE",
"252 414 LINE"
);
},
{
closed = 1;
nodes = (
"348 286 LINE",
"430 286 LINE",
"430 414 LINE",
"348 414 LINE"
);
},
{
closed = 1;
nodes = (
"444 286 LINE",
"526 286 LINE",
"526 414 LINE",
"444 414 LINE"
);
},
{
closed = 1;
nodes = (
"540 286 LINE",
"622 286 LINE",
"622 414 LINE",
"540 414 LINE"
);
},
{
closed = 1;
nodes = (
"444 429 LINE",
"526 429 LINE",
"526 557 LINE",
"444 557 LINE"
);
},
{
closed = 1;
nodes = (
"540 429 LINE",
"622 429 LINE",
"622 557 LINE",
"540 557 LINE"
);
},
{
closed = 1;
nodes = (
"444 572 LINE",
"526 572 LINE",
"526 700 LINE",
"444 700 LINE"
);
},
{
closed = 1;
nodes = (
"540 572 LINE",
"622 572 LINE",
"622 700 LINE",
"540 700 LINE"
);
},
{
closed = 1;
nodes = (
"252 143 LINE",
"334 143 LINE",
"334 271 LINE",
"252 271 LINE"
);
},
{
closed = 1;
nodes = (
"348 143 LINE",
"430 143 LINE",
"430 271 LINE",
"348 271 LINE"
);
},
{
closed = 1;
nodes = (
"252 0 LINE",
"334 0 LINE",
"334 128 LINE",
"252 128 LINE"
);
},
{
closed = 1;
nodes = (
"348 0 LINE",
"430 0 LINE",
"430 128 LINE",
"348 128 LINE"
);
}
);
width = 682;
}
);
unicode = 0059;
},
{
glyphname = Z;
lastChange = "2019-02-09 05:39:33 +0000";
layers = (
{
layerId = "3BA1B4B2-6ACF-4D2C-A9DD-A548EEBF9DB3";
paths = (
{
closed = 1;
nodes = (
"60 572 LINE",
"142 572 LINE",
"142 700 LINE",
"60 700 LINE"
);
},
{
closed = 1;
nodes = (
"156 572 LINE",
"238 572 LINE",
"238 700 LINE",
"156 700 LINE"
);
},
{
closed = 1;
nodes = (
"252 572 LINE",
"334 572 LINE",
"334 700 LINE",
"252 700 LINE"
);
},
{
closed = 1;
nodes = (
"348 572 LINE",
"430 572 LINE",
"430 700 LINE",
"348 700 LINE"
);
},
{
closed = 1;
nodes = (
"444 572 LINE",
"526 572 LINE",
"526 700 LINE",
"444 700 LINE"
);
},
{
closed = 1;
nodes = (
"540 572 LINE",
"622 572 LINE",
"622 700 LINE",
"540 700 LINE"
);
},
{
closed = 1;
nodes = (
"444 429 LINE",
"526 429 LINE",
"526 557 LINE",
"444 557 LINE"
);
},
{
closed = 1;
nodes = (
"540 429 LINE",
"622 429 LINE",
"622 557 LINE",
"540 557 LINE"
);
},
{
closed = 1;
nodes = (
"252 286 LINE",
"334 286 LINE",
"334 414 LINE",
"252 414 LINE"
);
},
{
closed = 1;
nodes = (
"348 286 LINE",
"430 286 LINE",
"430 414 LINE",
"348 414 LINE"
);
},
{
closed = 1;
nodes = (
"60 143 LINE",
"142 143 LINE",
"142 271 LINE",
"60 271 LINE"
);
},
{
closed = 1;
nodes = (
"156 143 LINE",
"238 143 LINE",
"238 271 LINE",
"156 271 LINE"
);
},
{
closed = 1;
nodes = (
"60 0 LINE",
"142 0 LINE",
"142 128 LINE",
"60 128 LINE"
);
},
{
closed = 1;
nodes = (
"156 0 LINE",
"238 0 LINE",
"238 128 LINE",
"156 128 LINE"
);
},
{
closed = 1;
nodes = (
"252 0 LINE",
"334 0 LINE",
"334 128 LINE",
"252 128 LINE"
);
},
{
closed = 1;
nodes = (
"348 0 LINE",
"430 0 LINE",
"430 128 LINE",
"348 128 LINE"
);
},
{
closed = 1;
nodes = (
"444 0 LINE",
"526 0 LINE",
"526 128 LINE",
"444 128 LINE"
);
},
{
closed = 1;
nodes = (
"540 0 LINE",
"622 0 LINE",
"622 128 LINE",
"540 128 LINE"
);
}
);
width = 682;
}
);
unicode = 005A;
},
{
glyphname = a;
lastChange = "2019-02-09 05:39:33 +0000";
layers = (
{
layerId = "3BA1B4B2-6ACF-4D2C-A9DD-A548EEBF9DB3";
paths = (
{
closed = 1;
nodes = (
"156 572 LINE",
"238 572 LINE",
"238 700 LINE",
"156 700 LINE"
);
},
{
closed = 1;
nodes = (
"252 572 LINE",
"334 572 LINE",
"334 700 LINE",
"252 700 LINE"
);
},
{
closed = 1;
nodes = (
"348 572 LINE",
"430 572 LINE",
"430 700 LINE",
"348 700 LINE"
);
},
{
closed = 1;
nodes = (
"444 572 LINE",
"526 572 LINE",
"526 700 LINE",
"444 700 LINE"
);
},
{
closed = 1;
nodes = (
"60 429 LINE",
"142 429 LINE",
"142 557 LINE",
"60 557 LINE"
);
},
{
closed = 1;
nodes = (
"156 429 LINE",
"238 429 LINE",
"238 557 LINE",
"156 557 LINE"
);
},
{
closed = 1;
nodes = (
"444 429 LINE",
"526 429 LINE",
"526 557 LINE",
"444 557 LINE"
);
},
{
closed = 1;
nodes = (
"540 429 LINE",
"622 429 LINE",
"622 557 LINE",
"540 557 LINE"
);
},
{
closed = 1;
nodes = (
"60 286 LINE",
"142 286 LINE",
"142 414 LINE",
"60 414 LINE"
);
},
{
closed = 1;
nodes = (
"156 286 LINE",
"238 286 LINE",
"238 414 LINE",
"156 414 LINE"
);
},
{
closed = 1;
nodes = (
"444 286 LINE",
"526 286 LINE",
"526 414 LINE",
"444 414 LINE"
);
},
{
closed = 1;
nodes = (
"540 286 LINE",
"622 286 LINE",
"622 414 LINE",
"540 414 LINE"
);
},
{
closed = 1;
nodes = (
"60 143 LINE",
"142 143 LINE",
"142 271 LINE",
"60 271 LINE"
);
},
{
closed = 1;
nodes = (
"156 143 LINE",
"238 143 LINE",
"238 271 LINE",
"156 271 LINE"
);
},
{
closed = 1;
nodes = (
"60 0 LINE",
"142 0 LINE",
"142 128 LINE",
"60 128 LINE"
);
},
{
closed = 1;
nodes = (
"156 0 LINE",
"238 0 LINE",
"238 128 LINE",
"156 128 LINE"
);
},
{
closed = 1;
nodes = (
"444 143 LINE",
"526 143 LINE",
"526 271 LINE",
"444 271 LINE"
);
},
{
closed = 1;
nodes = (
"540 143 LINE",
"622 143 LINE",
"622 271 LINE",
"540 271 LINE"
);
},
{
closed = 1;
nodes = (
"444 0 LINE",
"526 0 LINE",
"526 128 LINE",
"444 128 LINE"
);
},
{
closed = 1;
nodes = (
"540 0 LINE",
"622 0 LINE",
"622 128 LINE",
"540 128 LINE"
);
},
{
closed = 1;
nodes = (
"252 286 LINE",
"334 286 LINE",
"334 414 LINE",
"252 414 LINE"
);
},
{
closed = 1;
nodes = (
"348 286 LINE",
"430 286 LINE",
"430 414 LINE",
"348 414 LINE"
);
}
);
width = 682;
}
);
unicode = 0061;
},
{
glyphname = b;
lastChange = "2019-02-09 05:39:33 +0000";
layers = (
{
layerId = "3BA1B4B2-6ACF-4D2C-A9DD-A548EEBF9DB3";
paths = (
{
closed = 1;
nodes = (
"60 572 LINE",
"142 572 LINE",
"142 700 LINE",
"60 700 LINE"
);
},
{
closed = 1;
nodes = (
"156 572 LINE",
"238 572 LINE",
"238 700 LINE",
"156 700 LINE"
);
},
{
closed = 1;
nodes = (
"60 429 LINE",
"142 429 LINE",
"142 557 LINE",
"60 557 LINE"
);
},
{
closed = 1;
nodes = (
"156 429 LINE",
"238 429 LINE",
"238 557 LINE",
"156 557 LINE"
);
},
{
closed = 1;
nodes = (
"60 286 LINE",
"142 286 LINE",
"142 414 LINE",
"60 414 LINE"
);
},
{
closed = 1;
nodes = (
"156 286 LINE",
"238 286 LINE",
"238 414 LINE",
"156 414 LINE"
);
},
{
closed = 1;
nodes = (
"60 143 LINE",
"142 143 LINE",
"142 271 LINE",
"60 271 LINE"
);
},
{
closed = 1;
nodes = (
"156 143 LINE",
"238 143 LINE",
"238 271 LINE",
"156 271 LINE"
);
},
{
closed = 1;
nodes = (
"60 0 LINE",
"142 0 LINE",
"142 128 LINE",
"60 128 LINE"
);
},
{
closed = 1;
nodes = (
"156 0 LINE",
"238 0 LINE",
"238 128 LINE",
"156 128 LINE"
);
},
{
closed = 1;
nodes = (
"252 286 LINE",
"334 286 LINE",
"334 414 LINE",
"252 414 LINE"
);
},
{
closed = 1;
nodes = (
"348 286 LINE",
"430 286 LINE",
"430 414 LINE",
"348 414 LINE"
);
},
{
closed = 1;
nodes = (
"444 286 LINE",
"526 286 LINE",
"526 414 LINE",
"444 414 LINE"
);
},
{
closed = 1;
nodes = (
"444 429 LINE",
"526 429 LINE",
"526 557 LINE",
"444 557 LINE"
);
},
{
closed = 1;
nodes = (
"540 429 LINE",
"622 429 LINE",
"622 557 LINE",
"540 557 LINE"
);
},
{
closed = 1;
nodes = (
"444 572 LINE",
"526 572 LINE",
"526 700 LINE",
"444 700 LINE"
);
},
{
closed = 1;
nodes = (
"252 572 LINE",
"334 572 LINE",
"334 700 LINE",
"252 700 LINE"
);
},
{
closed = 1;
nodes = (
"348 572 LINE",
"430 572 LINE",
"430 700 LINE",
"348 700 LINE"
);
},
{
closed = 1;
nodes = (
"444 143 LINE",
"526 143 LINE",
"526 271 LINE",
"444 271 LINE"
);
},
{
closed = 1;
nodes = (
"540 143 LINE",
"622 143 LINE",
"622 271 LINE",
"540 271 LINE"
);
},
{
closed = 1;
nodes = (
"444 0 LINE",
"526 0 LINE",
"526 128 LINE",
"444 128 LINE"
);
},
{
closed = 1;
nodes = (
"252 0 LINE",
"334 0 LINE",
"334 128 LINE",
"252 128 LINE"
);
},
{
closed = 1;
nodes = (
"348 0 LINE",
"430 0 LINE",
"430 128 LINE",
"348 128 LINE"
);
}
);
width = 682;
}
);
unicode = 0062;
},
{
glyphname = c;
lastChange = "2019-02-09 05:39:33 +0000";
layers = (
{
layerId = "3BA1B4B2-6ACF-4D2C-A9DD-A548EEBF9DB3";
paths = (
{
closed = 1;
nodes = (
"156 572 LINE",
"238 572 LINE",
"238 700 LINE",
"156 700 LINE"
);
},
{
closed = 1;
nodes = (
"252 572 LINE",
"334 572 LINE",
"334 700 LINE",
"252 700 LINE"
);
},
{
closed = 1;
nodes = (
"348 572 LINE",
"430 572 LINE",
"430 700 LINE",
"348 700 LINE"
);
},
{
closed = 1;
nodes = (
"444 572 LINE",
"526 572 LINE",
"526 700 LINE",
"444 700 LINE"
);
},
{
closed = 1;
nodes = (
"444 429 LINE",
"526 429 LINE",
"526 557 LINE",
"444 557 LINE"
);
},
{
closed = 1;
nodes = (
"540 429 LINE",
"622 429 LINE",
"622 557 LINE",
"540 557 LINE"
);
},
{
closed = 1;
nodes = (
"60 429 LINE",
"142 429 LINE",
"142 557 LINE",
"60 557 LINE"
);
},
{
closed = 1;
nodes = (
"156 429 LINE",
"238 429 LINE",
"238 557 LINE",
"156 557 LINE"
);
},
{
closed = 1;
nodes = (
"60 286 LINE",
"142 286 LINE",
"142 414 LINE",
"60 414 LINE"
);
},
{
closed = 1;
nodes = (
"156 286 LINE",
"238 286 LINE",
"238 414 LINE",
"156 414 LINE"
);
},
{
closed = 1;
nodes = (
"60 143 LINE",
"142 143 LINE",
"142 271 LINE",
"60 271 LINE"
);
},
{
closed = 1;
nodes = (
"156 143 LINE",
"238 143 LINE",
"238 271 LINE",
"156 271 LINE"
);
},
{
closed = 1;
nodes = (
"156 0 LINE",
"238 0 LINE",
"238 128 LINE",
"156 128 LINE"
);
},
{
closed = 1;
nodes = (
"252 0 LINE",
"334 0 LINE",
"334 128 LINE",
"252 128 LINE"
);
},
{
closed = 1;
nodes = (
"348 0 LINE",
"430 0 LINE",
"430 128 LINE",
"348 128 LINE"
);
},
{
closed = 1;
nodes = (
"444 0 LINE",
"526 0 LINE",
"526 128 LINE",
"444 128 LINE"
);
},
{
closed = 1;
nodes = (
"444 143 LINE",
"526 143 LINE",
"526 271 LINE",
"444 271 LINE"
);
},
{
closed = 1;
nodes = (
"540 143 LINE",
"622 143 LINE",
"622 271 LINE",
"540 271 LINE"
);
}
);
width = 682;
}
);
unicode = 0063;
},
{
glyphname = d;
lastChange = "2019-02-09 05:39:33 +0000";
layers = (
{
layerId = "3BA1B4B2-6ACF-4D2C-A9DD-A548EEBF9DB3";
paths = (
{
closed = 1;
nodes = (
"60 572 LINE",
"142 572 LINE",
"142 700 LINE",
"60 700 LINE"
);
},
{
closed = 1;
nodes = (
"156 572 LINE",
"238 572 LINE",
"238 700 LINE",
"156 700 LINE"
);
},
{
closed = 1;
nodes = (
"60 429 LINE",
"142 429 LINE",
"142 557 LINE",
"60 557 LINE"
);
},
{
closed = 1;
nodes = (
"156 429 LINE",
"238 429 LINE",
"238 557 LINE",
"156 557 LINE"
);
},
{
closed = 1;
nodes = (
"60 286 LINE",
"142 286 LINE",
"142 414 LINE",
"60 414 LINE"
);
},
{
closed = 1;
nodes = (
"156 286 LINE",
"238 286 LINE",
"238 414 LINE",
"156 414 LINE"
);
},
{
closed = 1;
nodes = (
"60 143 LINE",
"142 143 LINE",
"142 271 LINE",
"60 271 LINE"
);
},
{
closed = 1;
nodes = (
"156 143 LINE",
"238 143 LINE",
"238 271 LINE",
"156 271 LINE"
);
},
{
closed = 1;
nodes = (
"60 0 LINE",
"142 0 LINE",
"142 128 LINE",
"60 128 LINE"
);
},
{
closed = 1;
nodes = (
"156 0 LINE",
"238 0 LINE",
"238 128 LINE",
"156 128 LINE"
);
},
{
closed = 1;
nodes = (
"252 572 LINE",
"334 572 LINE",
"334 700 LINE",
"252 700 LINE"
);
},
{
closed = 1;
nodes = (
"348 572 LINE",
"430 572 LINE",
"430 700 LINE",
"348 700 LINE"
);
},
{
closed = 1;
nodes = (
"252 0 LINE",
"334 0 LINE",
"334 128 LINE",
"252 128 LINE"
);
},
{
closed = 1;
nodes = (
"348 0 LINE",
"430 0 LINE",
"430 128 LINE",
"348 128 LINE"
);
},
{
closed = 1;
nodes = (
"444 572 LINE",
"526 572 LINE",
"526 700 LINE",
"444 700 LINE"
);
},
{
closed = 1;
nodes = (
"444 429 LINE",
"526 429 LINE",
"526 557 LINE",
"444 557 LINE"
);
},
{
closed = 1;
nodes = (
"540 429 LINE",
"622 429 LINE",
"622 557 LINE",
"540 557 LINE"
);
},
{
closed = 1;
nodes = (
"444 0 LINE",
"526 0 LINE",
"526 128 LINE",
"444 128 LINE"
);
},
{
closed = 1;
nodes = (
"444 143 LINE",
"526 143 LINE",
"526 271 LINE",
"444 271 LINE"
);
},
{
closed = 1;
nodes = (
"540 143 LINE",
"622 143 LINE",
"622 271 LINE",
"540 271 LINE"
);
},
{
closed = 1;
nodes = (
"444 286 LINE",
"526 286 LINE",
"526 414 LINE",
"444 414 LINE"
);
},
{
closed = 1;
nodes = (
"540 286 LINE",
"622 286 LINE",
"622 414 LINE",
"540 414 LINE"
);
}
);
width = 682;
}
);
unicode = 0064;
},
{
glyphname = e;
lastChange = "2019-02-09 05:39:33 +0000";
layers = (
{
layerId = "3BA1B4B2-6ACF-4D2C-A9DD-A548EEBF9DB3";
paths = (
{
closed = 1;
nodes = (
"60 572 LINE",
"142 572 LINE",
"142 700 LINE",
"60 700 LINE"
);
},
{
closed = 1;
nodes = (
"156 572 LINE",
"238 572 LINE",
"238 700 LINE",
"156 700 LINE"
);
},
{
closed = 1;
nodes = (
"252 572 LINE",
"334 572 LINE",
"334 700 LINE",
"252 700 LINE"
);
},
{
closed = 1;
nodes = (
"348 572 LINE",
"430 572 LINE",
"430 700 LINE",
"348 700 LINE"
);
},
{
closed = 1;
nodes = (
"444 572 LINE",
"526 572 LINE",
"526 700 LINE",
"444 700 LINE"
);
},
{
closed = 1;
nodes = (
"540 572 LINE",
"622 572 LINE",
"622 700 LINE",
"540 700 LINE"
);
},
{
closed = 1;
nodes = (
"60 429 LINE",
"142 429 LINE",
"142 557 LINE",
"60 557 LINE"
);
},
{
closed = 1;
nodes = (
"156 429 LINE",
"238 429 LINE",
"238 557 LINE",
"156 557 LINE"
);
},
{
closed = 1;
nodes = (
"60 286 LINE",
"142 286 LINE",
"142 414 LINE",
"60 414 LINE"
);
},
{
closed = 1;
nodes = (
"156 286 LINE",
"238 286 LINE",
"238 414 LINE",
"156 414 LINE"
);
},
{
closed = 1;
nodes = (
"252 286 LINE",
"334 286 LINE",
"334 414 LINE",
"252 414 LINE"
);
},
{
closed = 1;
nodes = (
"348 286 LINE",
"430 286 LINE",
"430 414 LINE",
"348 414 LINE"
);
},
{
closed = 1;
nodes = (
"444 286 LINE",
"526 286 LINE",
"526 414 LINE",
"444 414 LINE"
);
},
{
closed = 1;
nodes = (
"60 143 LINE",
"142 143 LINE",
"142 271 LINE",
"60 271 LINE"
);
},
{
closed = 1;
nodes = (
"156 143 LINE",
"238 143 LINE",
"238 271 LINE",
"156 271 LINE"
);
},
{
closed = 1;
nodes = (
"60 0 LINE",
"142 0 LINE",
"142 128 LINE",
"60 128 LINE"
);
},
{
closed = 1;
nodes = (
"156 0 LINE",
"238 0 LINE",
"238 128 LINE",
"156 128 LINE"
);
},
{
closed = 1;
nodes = (
"252 0 LINE",
"334 0 LINE",
"334 128 LINE",
"252 128 LINE"
);
},
{
closed = 1;
nodes = (
"348 0 LINE",
"430 0 LINE",
"430 128 LINE",
"348 128 LINE"
);
},
{
closed = 1;
nodes = (
"444 0 LINE",
"526 0 LINE",
"526 128 LINE",
"444 128 LINE"
);
},
{
closed = 1;
nodes = (
"540 0 LINE",
"622 0 LINE",
"622 128 LINE",
"540 128 LINE"
);
}
);
width = 682;
}
);
unicode = 0065;
},
{
glyphname = f;
lastChange = "2019-02-09 05:39:33 +0000";
layers = (
{
layerId = "3BA1B4B2-6ACF-4D2C-A9DD-A548EEBF9DB3";
paths = (
{
closed = 1;
nodes = (
"60 572 LINE",
"142 572 LINE",
"142 700 LINE",
"60 700 LINE"
);
},
{
closed = 1;
nodes = (
"156 572 LINE",
"238 572 LINE",
"238 700 LINE",
"156 700 LINE"
);
},
{
closed = 1;
nodes = (
"252 572 LINE",
"334 572 LINE",
"334 700 LINE",
"252 700 LINE"
);
},
{
closed = 1;
nodes = (
"348 572 LINE",
"430 572 LINE",
"430 700 LINE",
"348 700 LINE"
);
},
{
closed = 1;
nodes = (
"444 572 LINE",
"526 572 LINE",
"526 700 LINE",
"444 700 LINE"
);
},
{
closed = 1;
nodes = (
"540 572 LINE",
"622 572 LINE",
"622 700 LINE",
"540 700 LINE"
);
},
{
closed = 1;
nodes = (
"60 429 LINE",
"142 429 LINE",
"142 557 LINE",
"60 557 LINE"
);
},
{
closed = 1;
nodes = (
"156 429 LINE",
"238 429 LINE",
"238 557 LINE",
"156 557 LINE"
);
},
{
closed = 1;
nodes = (
"60 286 LINE",
"142 286 LINE",
"142 414 LINE",
"60 414 LINE"
);
},
{
closed = 1;
nodes = (
"156 286 LINE",
"238 286 LINE",
"238 414 LINE",
"156 414 LINE"
);
},
{
closed = 1;
nodes = (
"60 143 LINE",
"142 143 LINE",
"142 271 LINE",
"60 271 LINE"
);
},
{
closed = 1;
nodes = (
"156 143 LINE",
"238 143 LINE",
"238 271 LINE",
"156 271 LINE"
);
},
{
closed = 1;
nodes = (
"60 0 LINE",
"142 0 LINE",
"142 128 LINE",
"60 128 LINE"
);
},
{
closed = 1;
nodes = (
"156 0 LINE",
"238 0 LINE",
"238 128 LINE",
"156 128 LINE"
);
},
{
closed = 1;
nodes = (
"252 286 LINE",
"334 286 LINE",
"334 414 LINE",
"252 414 LINE"
);
},
{
closed = 1;
nodes = (
"348 286 LINE",
"430 286 LINE",
"430 414 LINE",
"348 414 LINE"
);
},
{
closed = 1;
nodes = (
"444 286 LINE",
"526 286 LINE",
"526 414 LINE",
"444 414 LINE"
);
}
);
width = 682;
}
);
unicode = 0066;
},
{
glyphname = g;
lastChange = "2019-02-09 05:39:33 +0000";
layers = (
{
layerId = "3BA1B4B2-6ACF-4D2C-A9DD-A548EEBF9DB3";
paths = (
{
closed = 1;
nodes = (
"540 572 LINE",
"622 572 LINE",
"622 700 LINE",
"540 700 LINE"
);
},
{
closed = 1;
nodes = (
"444 572 LINE",
"526 572 LINE",
"526 700 LINE",
"444 700 LINE"
);
},
{
closed = 1;
nodes = (
"348 572 LINE",
"430 572 LINE",
"430 700 LINE",
"348 700 LINE"
);
},
{
closed = 1;
nodes = (
"252 572 LINE",
"334 572 LINE",
"334 700 LINE",
"252 700 LINE"
);
},
{
closed = 1;
nodes = (
"156 572 LINE",
"238 572 LINE",
"238 700 LINE",
"156 700 LINE"
);
},
{
closed = 1;
nodes = (
"60 429 LINE",
"142 429 LINE",
"142 557 LINE",
"60 557 LINE"
);
},
{
closed = 1;
nodes = (
"156 429 LINE",
"238 429 LINE",
"238 557 LINE",
"156 557 LINE"
);
},
{
closed = 1;
nodes = (
"60 286 LINE",
"142 286 LINE",
"142 414 LINE",
"60 414 LINE"
);
},
{
closed = 1;
nodes = (
"156 286 LINE",
"238 286 LINE",
"238 414 LINE",
"156 414 LINE"
);
},
{
closed = 1;
nodes = (
"60 143 LINE",
"142 143 LINE",
"142 271 LINE",
"60 271 LINE"
);
},
{
closed = 1;
nodes = (
"156 143 LINE",
"238 143 LINE",
"238 271 LINE",
"156 271 LINE"
);
},
{
closed = 1;
nodes = (
"156 0 LINE",
"238 0 LINE",
"238 128 LINE",
"156 128 LINE"
);
},
{
closed = 1;
nodes = (
"252 0 LINE",
"334 0 LINE",
"334 128 LINE",
"252 128 LINE"
);
},
{
closed = 1;
nodes = (
"348 0 LINE",
"430 0 LINE",
"430 128 LINE",
"348 128 LINE"
);
},
{
closed = 1;
nodes = (
"444 0 LINE",
"526 0 LINE",
"526 128 LINE",
"444 128 LINE"
);
},
{
closed = 1;
nodes = (
"540 0 LINE",
"622 0 LINE",
"622 128 LINE",
"540 128 LINE"
);
},
{
closed = 1;
nodes = (
"540 143 LINE",
"622 143 LINE",
"622 271 LINE",
"540 271 LINE"
);
},
{
closed = 1;
nodes = (
"540 286 LINE",
"622 286 LINE",
"622 414 LINE",
"540 414 LINE"
);
},
{
closed = 1;
nodes = (
"444 286 LINE",
"526 286 LINE",
"526 414 LINE",
"444 414 LINE"
);
},
{
closed = 1;
nodes = (
"348 286 LINE",
"430 286 LINE",
"430 414 LINE",
"348 414 LINE"
);
}
);
width = 682;
}
);
unicode = 0067;
},
{
glyphname = h;
lastChange = "2019-02-09 05:39:33 +0000";
layers = (
{
layerId = "3BA1B4B2-6ACF-4D2C-A9DD-A548EEBF9DB3";
paths = (
{
closed = 1;
nodes = (
"60 572 LINE",
"142 572 LINE",
"142 700 LINE",
"60 700 LINE"
);
},
{
closed = 1;
nodes = (
"156 572 LINE",
"238 572 LINE",
"238 700 LINE",
"156 700 LINE"
);
},
{
closed = 1;
nodes = (
"60 429 LINE",
"142 429 LINE",
"142 557 LINE",
"60 557 LINE"
);
},
{
closed = 1;
nodes = (
"156 429 LINE",
"238 429 LINE",
"238 557 LINE",
"156 557 LINE"
);
},
{
closed = 1;
nodes = (
"60 286 LINE",
"142 286 LINE",
"142 414 LINE",
"60 414 LINE"
);
},
{
closed = 1;
nodes = (
"156 286 LINE",
"238 286 LINE",
"238 414 LINE",
"156 414 LINE"
);
},
{
closed = 1;
nodes = (
"60 143 LINE",
"142 143 LINE",
"142 271 LINE",
"60 271 LINE"
);
},
{
closed = 1;
nodes = (
"156 143 LINE",
"238 143 LINE",
"238 271 LINE",
"156 271 LINE"
);
},
{
closed = 1;
nodes = (
"60 0 LINE",
"142 0 LINE",
"142 128 LINE",
"60 128 LINE"
);
},
{
closed = 1;
nodes = (
"156 0 LINE",
"238 0 LINE",
"238 128 LINE",
"156 128 LINE"
);
},
{
closed = 1;
nodes = (
"252 286 LINE",
"334 286 LINE",
"334 414 LINE",
"252 414 LINE"
);
},
{
closed = 1;
nodes = (
"348 286 LINE",
"430 286 LINE",
"430 414 LINE",
"348 414 LINE"
);
},
{
closed = 1;
nodes = (
"444 286 LINE",
"526 286 LINE",
"526 414 LINE",
"444 414 LINE"
);
},
{
closed = 1;
nodes = (
"540 286 LINE",
"622 286 LINE",
"622 414 LINE",
"540 414 LINE"
);
},
{
closed = 1;
nodes = (
"444 429 LINE",
"526 429 LINE",
"526 557 LINE",
"444 557 LINE"
);
},
{
closed = 1;
nodes = (
"540 429 LINE",
"622 429 LINE",
"622 557 LINE",
"540 557 LINE"
);
},
{
closed = 1;
nodes = (
"444 572 LINE",
"526 572 LINE",
"526 700 LINE",
"444 700 LINE"
);
},
{
closed = 1;
nodes = (
"540 572 LINE",
"622 572 LINE",
"622 700 LINE",
"540 700 LINE"
);
},
{
closed = 1;
nodes = (
"444 143 LINE",
"526 143 LINE",
"526 271 LINE",
"444 271 LINE"
);
},
{
closed = 1;
nodes = (
"540 143 LINE",
"622 143 LINE",
"622 271 LINE",
"540 271 LINE"
);
},
{
closed = 1;
nodes = (
"444 0 LINE",
"526 0 LINE",
"526 128 LINE",
"444 128 LINE"
);
},
{
closed = 1;
nodes = (
"540 0 LINE",
"622 0 LINE",
"622 128 LINE",
"540 128 LINE"
);
}
);
width = 682;
}
);
unicode = 0068;
},
{
glyphname = i;
lastChange = "2019-02-09 05:39:33 +0000";
layers = (
{
layerId = "3BA1B4B2-6ACF-4D2C-A9DD-A548EEBF9DB3";
paths = (
{
closed = 1;
nodes = (
"60 572 LINE",
"142 572 LINE",
"142 700 LINE",
"60 700 LINE"
);
},
{
closed = 1;
nodes = (
"156 572 LINE",
"238 572 LINE",
"238 700 LINE",
"156 700 LINE"
);
},
{
closed = 1;
nodes = (
"252 572 LINE",
"334 572 LINE",
"334 700 LINE",
"252 700 LINE"
);
},
{
closed = 1;
nodes = (
"348 572 LINE",
"430 572 LINE",
"430 700 LINE",
"348 700 LINE"
);
},
{
closed = 1;
nodes = (
"444 572 LINE",
"526 572 LINE",
"526 700 LINE",
"444 700 LINE"
);
},
{
closed = 1;
nodes = (
"540 572 LINE",
"622 572 LINE",
"622 700 LINE",
"540 700 LINE"
);
},
{
closed = 1;
nodes = (
"252 429 LINE",
"334 429 LINE",
"334 557 LINE",
"252 557 LINE"
);
},
{
closed = 1;
nodes = (
"348 429 LINE",
"430 429 LINE",
"430 557 LINE",
"348 557 LINE"
);
},
{
closed = 1;
nodes = (
"252 286 LINE",
"334 286 LINE",
"334 414 LINE",
"252 414 LINE"
);
},
{
closed = 1;
nodes = (
"348 286 LINE",
"430 286 LINE",
"430 414 LINE",
"348 414 LINE"
);
},
{
closed = 1;
nodes = (
"252 143 LINE",
"334 143 LINE",
"334 271 LINE",
"252 271 LINE"
);
},
{
closed = 1;
nodes = (
"348 143 LINE",
"430 143 LINE",
"430 271 LINE",
"348 271 LINE"
);
},
{
closed = 1;
nodes = (
"252 0 LINE",
"334 0 LINE",
"334 128 LINE",
"252 128 LINE"
);
},
{
closed = 1;
nodes = (
"348 0 LINE",
"430 0 LINE",
"430 128 LINE",
"348 128 LINE"
);
},
{
closed = 1;
nodes = (
"156 0 LINE",
"238 0 LINE",
"238 128 LINE",
"156 128 LINE"
);
},
{
closed = 1;
nodes = (
"444 0 LINE",
"526 0 LINE",
"526 128 LINE",
"444 128 LINE"
);
},
{
closed = 1;
nodes = (
"60 0 LINE",
"142 0 LINE",
"142 128 LINE",
"60 128 LINE"
);
},
{
closed = 1;
nodes = (
"540 0 LINE",
"622 0 LINE",
"622 128 LINE",
"540 128 LINE"
);
}
);
width = 682;
}
);
unicode = 0069;
},
{
glyphname = j;
lastChange = "2019-02-09 05:39:33 +0000";
layers = (
{
layerId = "3BA1B4B2-6ACF-4D2C-A9DD-A548EEBF9DB3";
paths = (
{
closed = 1;
nodes = (
"444 572 LINE",
"526 572 LINE",
"526 700 LINE",
"444 700 LINE"
);
},
{
closed = 1;
nodes = (
"540 572 LINE",
"622 572 LINE",
"622 700 LINE",
"540 700 LINE"
);
},
{
closed = 1;
nodes = (
"444 429 LINE",
"526 429 LINE",
"526 557 LINE",
"444 557 LINE"
);
},
{
closed = 1;
nodes = (
"540 429 LINE",
"622 429 LINE",
"622 557 LINE",
"540 557 LINE"
);
},
{
closed = 1;
nodes = (
"444 286 LINE",
"526 286 LINE",
"526 414 LINE",
"444 414 LINE"
);
},
{
closed = 1;
nodes = (
"540 286 LINE",
"622 286 LINE",
"622 414 LINE",
"540 414 LINE"
);
},
{
closed = 1;
nodes = (
"444 143 LINE",
"526 143 LINE",
"526 271 LINE",
"444 271 LINE"
);
},
{
closed = 1;
nodes = (
"540 143 LINE",
"622 143 LINE",
"622 271 LINE",
"540 271 LINE"
);
},
{
closed = 1;
nodes = (
"444 0 LINE",
"526 0 LINE",
"526 128 LINE",
"444 128 LINE"
);
},
{
closed = 1;
nodes = (
"348 0 LINE",
"430 0 LINE",
"430 128 LINE",
"348 128 LINE"
);
},
{
closed = 1;
nodes = (
"252 0 LINE",
"334 0 LINE",
"334 128 LINE",
"252 128 LINE"
);
},
{
closed = 1;
nodes = (
"156 0 LINE",
"238 0 LINE",
"238 128 LINE",
"156 128 LINE"
);
},
{
closed = 1;
nodes = (
"156 143 LINE",
"238 143 LINE",
"238 271 LINE",
"156 271 LINE"
);
},
{
closed = 1;
nodes = (
"60 143 LINE",
"142 143 LINE",
"142 271 LINE",
"60 271 LINE"
);
}
);
width = 682;
}
);
unicode = 006A;
},
{
glyphname = k;
lastChange = "2019-02-09 05:39:33 +0000";
layers = (
{
layerId = "3BA1B4B2-6ACF-4D2C-A9DD-A548EEBF9DB3";
paths = (
{
closed = 1;
nodes = (
"60 572 LINE",
"142 572 LINE",
"142 700 LINE",
"60 700 LINE"
);
},
{
closed = 1;
nodes = (
"156 572 LINE",
"238 572 LINE",
"238 700 LINE",
"156 700 LINE"
);
},
{
closed = 1;
nodes = (
"60 429 LINE",
"142 429 LINE",
"142 557 LINE",
"60 557 LINE"
);
},
{
closed = 1;
nodes = (
"156 429 LINE",
"238 429 LINE",
"238 557 LINE",
"156 557 LINE"
);
},
{
closed = 1;
nodes = (
"60 286 LINE",
"142 286 LINE",
"142 414 LINE",
"60 414 LINE"
);
},
{
closed = 1;
nodes = (
"156 286 LINE",
"238 286 LINE",
"238 414 LINE",
"156 414 LINE"
);
},
{
closed = 1;
nodes = (
"60 143 LINE",
"142 143 LINE",
"142 271 LINE",
"60 271 LINE"
);
},
{
closed = 1;
nodes = (
"156 143 LINE",
"238 143 LINE",
"238 271 LINE",
"156 271 LINE"
);
},
{
closed = 1;
nodes = (
"60 0 LINE",
"142 0 LINE",
"142 128 LINE",
"60 128 LINE"
);
},
{
closed = 1;
nodes = (
"156 0 LINE",
"238 0 LINE",
"238 128 LINE",
"156 128 LINE"
);
},
{
closed = 1;
nodes = (
"252 286 LINE",
"334 286 LINE",
"334 414 LINE",
"252 414 LINE"
);
},
{
closed = 1;
nodes = (
"348 286 LINE",
"430 286 LINE",
"430 414 LINE",
"348 414 LINE"
);
},
{
closed = 1;
nodes = (
"348 429 LINE",
"430 429 LINE",
"430 557 LINE",
"348 557 LINE"
);
},
{
closed = 1;
nodes = (
"444 429 LINE",
"526 429 LINE",
"526 557 LINE",
"444 557 LINE"
);
},
{
closed = 1;
nodes = (
"444 572 LINE",
"526 572 LINE",
"526 700 LINE",
"444 700 LINE"
);
},
{
closed = 1;
nodes = (
"540 572 LINE",
"622 572 LINE",
"622 700 LINE",
"540 700 LINE"
);
},
{
closed = 1;
nodes = (
"348 143 LINE",
"430 143 LINE",
"430 271 LINE",
"348 271 LINE"
);
},
{
closed = 1;
nodes = (
"444 143 LINE",
"526 143 LINE",
"526 271 LINE",
"444 271 LINE"
);
},
{
closed = 1;
nodes = (
"444 0 LINE",
"526 0 LINE",
"526 128 LINE",
"444 128 LINE"
);
},
{
closed = 1;
nodes = (
"540 0 LINE",
"622 0 LINE",
"622 128 LINE",
"540 128 LINE"
);
}
);
width = 682;
}
);
unicode = 006B;
},
{
glyphname = l;
lastChange = "2019-02-09 05:39:33 +0000";
layers = (
{
layerId = "3BA1B4B2-6ACF-4D2C-A9DD-A548EEBF9DB3";
paths = (
{
closed = 1;
nodes = (
"60 572 LINE",
"142 572 LINE",
"142 700 LINE",
"60 700 LINE"
);
},
{
closed = 1;
nodes = (
"156 572 LINE",
"238 572 LINE",
"238 700 LINE",
"156 700 LINE"
);
},
{
closed = 1;
nodes = (
"60 429 LINE",
"142 429 LINE",
"142 557 LINE",
"60 557 LINE"
);
},
{
closed = 1;
nodes = (
"156 429 LINE",
"238 429 LINE",
"238 557 LINE",
"156 557 LINE"
);
},
{
closed = 1;
nodes = (
"60 286 LINE",
"142 286 LINE",
"142 414 LINE",
"60 414 LINE"
);
},
{
closed = 1;
nodes = (
"156 286 LINE",
"238 286 LINE",
"238 414 LINE",
"156 414 LINE"
);
},
{
closed = 1;
nodes = (
"60 143 LINE",
"142 143 LINE",
"142 271 LINE",
"60 271 LINE"
);
},
{
closed = 1;
nodes = (
"156 143 LINE",
"238 143 LINE",
"238 271 LINE",
"156 271 LINE"
);
},
{
closed = 1;
nodes = (
"60 0 LINE",
"142 0 LINE",
"142 128 LINE",
"60 128 LINE"
);
},
{
closed = 1;
nodes = (
"156 0 LINE",
"238 0 LINE",
"238 128 LINE",
"156 128 LINE"
);
},
{
closed = 1;
nodes = (
"252 0 LINE",
"334 0 LINE",
"334 128 LINE",
"252 128 LINE"
);
},
{
closed = 1;
nodes = (
"348 0 LINE",
"430 0 LINE",
"430 128 LINE",
"348 128 LINE"
);
},
{
closed = 1;
nodes = (
"444 0 LINE",
"526 0 LINE",
"526 128 LINE",
"444 128 LINE"
);
},
{
closed = 1;
nodes = (
"540 0 LINE",
"622 0 LINE",
"622 128 LINE",
"540 128 LINE"
);
}
);
width = 682;
}
);
unicode = 006C;
},
{
glyphname = m;
lastChange = "2019-02-09 05:39:33 +0000";
layers = (
{
layerId = "3BA1B4B2-6ACF-4D2C-A9DD-A548EEBF9DB3";
paths = (
{
closed = 1;
nodes = (
"60 572 LINE",
"142 572 LINE",
"142 700 LINE",
"60 700 LINE"
);
},
{
closed = 1;
nodes = (
"60 429 LINE",
"142 429 LINE",
"142 557 LINE",
"60 557 LINE"
);
},
{
closed = 1;
nodes = (
"156 429 LINE",
"238 429 LINE",
"238 557 LINE",
"156 557 LINE"
);
},
{
closed = 1;
nodes = (
"60 286 LINE",
"142 286 LINE",
"142 414 LINE",
"60 414 LINE"
);
},
{
closed = 1;
nodes = (
"156 286 LINE",
"238 286 LINE",
"238 414 LINE",
"156 414 LINE"
);
},
{
closed = 1;
nodes = (
"60 143 LINE",
"142 143 LINE",
"142 271 LINE",
"60 271 LINE"
);
},
{
closed = 1;
nodes = (
"156 143 LINE",
"238 143 LINE",
"238 271 LINE",
"156 271 LINE"
);
},
{
closed = 1;
nodes = (
"60 0 LINE",
"142 0 LINE",
"142 128 LINE",
"60 128 LINE"
);
},
{
closed = 1;
nodes = (
"156 0 LINE",
"238 0 LINE",
"238 128 LINE",
"156 128 LINE"
);
},
{
closed = 1;
nodes = (
"252 286 LINE",
"334 286 LINE",
"334 414 LINE",
"252 414 LINE"
);
},
{
closed = 1;
nodes = (
"348 286 LINE",
"430 286 LINE",
"430 414 LINE",
"348 414 LINE"
);
},
{
closed = 1;
nodes = (
"444 286 LINE",
"526 286 LINE",
"526 414 LINE",
"444 414 LINE"
);
},
{
closed = 1;
nodes = (
"540 286 LINE",
"622 286 LINE",
"622 414 LINE",
"540 414 LINE"
);
},
{
closed = 1;
nodes = (
"444 429 LINE",
"526 429 LINE",
"526 557 LINE",
"444 557 LINE"
);
},
{
closed = 1;
nodes = (
"540 429 LINE",
"622 429 LINE",
"622 557 LINE",
"540 557 LINE"
);
},
{
closed = 1;
nodes = (
"540 572 LINE",
"622 572 LINE",
"622 700 LINE",
"540 700 LINE"
);
},
{
closed = 1;
nodes = (
"444 143 LINE",
"526 143 LINE",
"526 271 LINE",
"444 271 LINE"
);
},
{
closed = 1;
nodes = (
"540 143 LINE",
"622 143 LINE",
"622 271 LINE",
"540 271 LINE"
);
},
{
closed = 1;
nodes = (
"444 0 LINE",
"526 0 LINE",
"526 128 LINE",
"444 128 LINE"
);
},
{
closed = 1;
nodes = (
"540 0 LINE",
"622 0 LINE",
"622 128 LINE",
"540 128 LINE"
);
}
);
width = 682;
}
);
unicode = 006D;
},
{
glyphname = n;
lastChange = "2019-02-09 05:39:33 +0000";
layers = (
{
layerId = "3BA1B4B2-6ACF-4D2C-A9DD-A548EEBF9DB3";
paths = (
{
closed = 1;
nodes = (
"60 572 LINE",
"142 572 LINE",
"142 700 LINE",
"60 700 LINE"
);
},
{
closed = 1;
nodes = (
"156 572 LINE",
"238 572 LINE",
"238 700 LINE",
"156 700 LINE"
);
},
{
closed = 1;
nodes = (
"60 429 LINE",
"142 429 LINE",
"142 557 LINE",
"60 557 LINE"
);
},
{
closed = 1;
nodes = (
"156 429 LINE",
"238 429 LINE",
"238 557 LINE",
"156 557 LINE"
);
},
{
closed = 1;
nodes = (
"60 286 LINE",
"142 286 LINE",
"142 414 LINE",
"60 414 LINE"
);
},
{
closed = 1;
nodes = (
"156 286 LINE",
"238 286 LINE",
"238 414 LINE",
"156 414 LINE"
);
},
{
closed = 1;
nodes = (
"60 143 LINE",
"142 143 LINE",
"142 271 LINE",
"60 271 LINE"
);
},
{
closed = 1;
nodes = (
"156 143 LINE",
"238 143 LINE",
"238 271 LINE",
"156 271 LINE"
);
},
{
closed = 1;
nodes = (
"60 0 LINE",
"142 0 LINE",
"142 128 LINE",
"60 128 LINE"
);
},
{
closed = 1;
nodes = (
"156 0 LINE",
"238 0 LINE",
"238 128 LINE",
"156 128 LINE"
);
},
{
closed = 1;
nodes = (
"444 572 LINE",
"526 572 LINE",
"526 700 LINE",
"444 700 LINE"
);
},
{
closed = 1;
nodes = (
"540 572 LINE",
"622 572 LINE",
"622 700 LINE",
"540 700 LINE"
);
},
{
closed = 1;
nodes = (
"444 429 LINE",
"526 429 LINE",
"526 557 LINE",
"444 557 LINE"
);
},
{
closed = 1;
nodes = (
"540 429 LINE",
"622 429 LINE",
"622 557 LINE",
"540 557 LINE"
);
},
{
closed = 1;
nodes = (
"444 286 LINE",
"526 286 LINE",
"526 414 LINE",
"444 414 LINE"
);
},
{
closed = 1;
nodes = (
"540 286 LINE",
"622 286 LINE",
"622 414 LINE",
"540 414 LINE"
);
},
{
closed = 1;
nodes = (
"444 143 LINE",
"526 143 LINE",
"526 271 LINE",
"444 271 LINE"
);
},
{
closed = 1;
nodes = (
"540 143 LINE",
"622 143 LINE",
"622 271 LINE",
"540 271 LINE"
);
},
{
closed = 1;
nodes = (
"444 0 LINE",
"526 0 LINE",
"526 128 LINE",
"444 128 LINE"
);
},
{
closed = 1;
nodes = (
"540 0 LINE",
"622 0 LINE",
"622 128 LINE",
"540 128 LINE"
);
},
{
closed = 1;
nodes = (
"252 429 LINE",
"334 429 LINE",
"334 557 LINE",
"252 557 LINE"
);
},
{
closed = 1;
nodes = (
"252 286 LINE",
"334 286 LINE",
"334 414 LINE",
"252 414 LINE"
);
},
{
closed = 1;
nodes = (
"348 286 LINE",
"430 286 LINE",
"430 414 LINE",
"348 414 LINE"
);
},
{
closed = 1;
nodes = (
"348 143 LINE",
"430 143 LINE",
"430 271 LINE",
"348 271 LINE"
);
}
);
width = 682;
}
);
unicode = 006E;
},
{
glyphname = o;
lastChange = "2019-02-09 05:39:33 +0000";
layers = (
{
layerId = "3BA1B4B2-6ACF-4D2C-A9DD-A548EEBF9DB3";
paths = (
{
closed = 1;
nodes = (
"156 572 LINE",
"238 572 LINE",
"238 700 LINE",
"156 700 LINE"
);
},
{
closed = 1;
nodes = (
"252 572 LINE",
"334 572 LINE",
"334 700 LINE",
"252 700 LINE"
);
},
{
closed = 1;
nodes = (
"348 572 LINE",
"430 572 LINE",
"430 700 LINE",
"348 700 LINE"
);
},
{
closed = 1;
nodes = (
"444 572 LINE",
"526 572 LINE",
"526 700 LINE",
"444 700 LINE"
);
},
{
closed = 1;
nodes = (
"60 429 LINE",
"142 429 LINE",
"142 557 LINE",
"60 557 LINE"
);
},
{
closed = 1;
nodes = (
"156 429 LINE",
"238 429 LINE",
"238 557 LINE",
"156 557 LINE"
);
},
{
closed = 1;
nodes = (
"444 429 LINE",
"526 429 LINE",
"526 557 LINE",
"444 557 LINE"
);
},
{
closed = 1;
nodes = (
"540 429 LINE",
"622 429 LINE",
"622 557 LINE",
"540 557 LINE"
);
},
{
closed = 1;
nodes = (
"60 286 LINE",
"142 286 LINE",
"142 414 LINE",
"60 414 LINE"
);
},
{
closed = 1;
nodes = (
"156 286 LINE",
"238 286 LINE",
"238 414 LINE",
"156 414 LINE"
);
},
{
closed = 1;
nodes = (
"444 286 LINE",
"526 286 LINE",
"526 414 LINE",
"444 414 LINE"
);
},
{
closed = 1;
nodes = (
"540 286 LINE",
"622 286 LINE",
"622 414 LINE",
"540 414 LINE"
);
},
{
closed = 1;
nodes = (
"60 143 LINE",
"142 143 LINE",
"142 271 LINE",
"60 271 LINE"
);
},
{
closed = 1;
nodes = (
"156 143 LINE",
"238 143 LINE",
"238 271 LINE",
"156 271 LINE"
);
},
{
closed = 1;
nodes = (
"444 143 LINE",
"526 143 LINE",
"526 271 LINE",
"444 271 LINE"
);
},
{
closed = 1;
nodes = (
"540 143 LINE",
"622 143 LINE",
"622 271 LINE",
"540 271 LINE"
);
},
{
closed = 1;
nodes = (
"156 0 LINE",
"238 0 LINE",
"238 128 LINE",
"156 128 LINE"
);
},
{
closed = 1;
nodes = (
"252 0 LINE",
"334 0 LINE",
"334 128 LINE",
"252 128 LINE"
);
},
{
closed = 1;
nodes = (
"348 0 LINE",
"430 0 LINE",
"430 128 LINE",
"348 128 LINE"
);
},
{
closed = 1;
nodes = (
"444 0 LINE",
"526 0 LINE",
"526 128 LINE",
"444 128 LINE"
);
}
);
width = 682;
}
);
unicode = 006F;
},
{
glyphname = p;
lastChange = "2019-02-09 05:39:33 +0000";
layers = (
{
layerId = "3BA1B4B2-6ACF-4D2C-A9DD-A548EEBF9DB3";
paths = (
{
closed = 1;
nodes = (
"60 572 LINE",
"142 572 LINE",
"142 700 LINE",
"60 700 LINE"
);
},
{
closed = 1;
nodes = (
"156 572 LINE",
"238 572 LINE",
"238 700 LINE",
"156 700 LINE"
);
},
{
closed = 1;
nodes = (
"252 572 LINE",
"334 572 LINE",
"334 700 LINE",
"252 700 LINE"
);
},
{
closed = 1;
nodes = (
"348 572 LINE",
"430 572 LINE",
"430 700 LINE",
"348 700 LINE"
);
},
{
closed = 1;
nodes = (
"444 572 LINE",
"526 572 LINE",
"526 700 LINE",
"444 700 LINE"
);
},
{
closed = 1;
nodes = (
"444 429 LINE",
"526 429 LINE",
"526 557 LINE",
"444 557 LINE"
);
},
{
closed = 1;
nodes = (
"540 429 LINE",
"622 429 LINE",
"622 557 LINE",
"540 557 LINE"
);
},
{
closed = 1;
nodes = (
"60 429 LINE",
"142 429 LINE",
"142 557 LINE",
"60 557 LINE"
);
},
{
closed = 1;
nodes = (
"156 429 LINE",
"238 429 LINE",
"238 557 LINE",
"156 557 LINE"
);
},
{
closed = 1;
nodes = (
"60 286 LINE",
"142 286 LINE",
"142 414 LINE",
"60 414 LINE"
);
},
{
closed = 1;
nodes = (
"156 286 LINE",
"238 286 LINE",
"238 414 LINE",
"156 414 LINE"
);
},
{
closed = 1;
nodes = (
"252 286 LINE",
"334 286 LINE",
"334 414 LINE",
"252 414 LINE"
);
},
{
closed = 1;
nodes = (
"348 286 LINE",
"430 286 LINE",
"430 414 LINE",
"348 414 LINE"
);
},
{
closed = 1;
nodes = (
"444 286 LINE",
"526 286 LINE",
"526 414 LINE",
"444 414 LINE"
);
},
{
closed = 1;
nodes = (
"60 143 LINE",
"142 143 LINE",
"142 271 LINE",
"60 271 LINE"
);
},
{
closed = 1;
nodes = (
"156 143 LINE",
"238 143 LINE",
"238 271 LINE",
"156 271 LINE"
);
},
{
closed = 1;
nodes = (
"60 0 LINE",
"142 0 LINE",
"142 128 LINE",
"60 128 LINE"
);
},
{
closed = 1;
nodes = (
"156 0 LINE",
"238 0 LINE",
"238 128 LINE",
"156 128 LINE"
);
}
);
width = 682;
}
);
unicode = 0070;
},
{
glyphname = q;
lastChange = "2019-02-09 05:39:33 +0000";
layers = (
{
layerId = "3BA1B4B2-6ACF-4D2C-A9DD-A548EEBF9DB3";
paths = (
{
closed = 1;
nodes = (
"60 429 LINE",
"142 429 LINE",
"142 557 LINE",
"60 557 LINE"
);
},
{
closed = 1;
nodes = (
"156 429 LINE",
"238 429 LINE",
"238 557 LINE",
"156 557 LINE"
);
},
{
closed = 1;
nodes = (
"156 572 LINE",
"238 572 LINE",
"238 700 LINE",
"156 700 LINE"
);
},
{
closed = 1;
nodes = (
"252 572 LINE",
"334 572 LINE",
"334 700 LINE",
"252 700 LINE"
);
},
{
closed = 1;
nodes = (
"348 572 LINE",
"430 572 LINE",
"430 700 LINE",
"348 700 LINE"
);
},
{
closed = 1;
nodes = (
"444 572 LINE",
"526 572 LINE",
"526 700 LINE",
"444 700 LINE"
);
},
{
closed = 1;
nodes = (
"540 572 LINE",
"622 572 LINE",
"622 700 LINE",
"540 700 LINE"
);
},
{
closed = 1;
nodes = (
"156 286 LINE",
"238 286 LINE",
"238 414 LINE",
"156 414 LINE"
);
},
{
closed = 1;
nodes = (
"252 286 LINE",
"334 286 LINE",
"334 414 LINE",
"252 414 LINE"
);
},
{
closed = 1;
nodes = (
"348 286 LINE",
"430 286 LINE",
"430 414 LINE",
"348 414 LINE"
);
},
{
closed = 1;
nodes = (
"444 286 LINE",
"526 286 LINE",
"526 414 LINE",
"444 414 LINE"
);
},
{
closed = 1;
nodes = (
"540 286 LINE",
"622 286 LINE",
"622 414 LINE",
"540 414 LINE"
);
},
{
closed = 1;
nodes = (
"444 429 LINE",
"526 429 LINE",
"526 557 LINE",
"444 557 LINE"
);
},
{
closed = 1;
nodes = (
"540 429 LINE",
"622 429 LINE",
"622 557 LINE",
"540 557 LINE"
);
},
{
closed = 1;
nodes = (
"444 143 LINE",
"526 143 LINE",
"526 271 LINE",
"444 271 LINE"
);
},
{
closed = 1;
nodes = (
"540 143 LINE",
"622 143 LINE",
"622 271 LINE",
"540 271 LINE"
);
},
{
closed = 1;
nodes = (
"444 0 LINE",
"526 0 LINE",
"526 128 LINE",
"444 128 LINE"
);
},
{
closed = 1;
nodes = (
"540 0 LINE",
"622 0 LINE",
"622 128 LINE",
"540 128 LINE"
);
}
);
width = 682;
}
);
unicode = 0071;
},
{
glyphname = r;
lastChange = "2019-02-09 05:39:33 +0000";
layers = (
{
layerId = "3BA1B4B2-6ACF-4D2C-A9DD-A548EEBF9DB3";
paths = (
{
closed = 1;
nodes = (
"60 572 LINE",
"142 572 LINE",
"142 700 LINE",
"60 700 LINE"
);
},
{
closed = 1;
nodes = (
"156 572 LINE",
"238 572 LINE",
"238 700 LINE",
"156 700 LINE"
);
},
{
closed = 1;
nodes = (
"60 429 LINE",
"142 429 LINE",
"142 557 LINE",
"60 557 LINE"
);
},
{
closed = 1;
nodes = (
"156 429 LINE",
"238 429 LINE",
"238 557 LINE",
"156 557 LINE"
);
},
{
closed = 1;
nodes = (
"60 286 LINE",
"142 286 LINE",
"142 414 LINE",
"60 414 LINE"
);
},
{
closed = 1;
nodes = (
"156 286 LINE",
"238 286 LINE",
"238 414 LINE",
"156 414 LINE"
);
},
{
closed = 1;
nodes = (
"60 143 LINE",
"142 143 LINE",
"142 271 LINE",
"60 271 LINE"
);
},
{
closed = 1;
nodes = (
"156 143 LINE",
"238 143 LINE",
"238 271 LINE",
"156 271 LINE"
);
},
{
closed = 1;
nodes = (
"60 0 LINE",
"142 0 LINE",
"142 128 LINE",
"60 128 LINE"
);
},
{
closed = 1;
nodes = (
"156 0 LINE",
"238 0 LINE",
"238 128 LINE",
"156 128 LINE"
);
},
{
closed = 1;
nodes = (
"252 572 LINE",
"334 572 LINE",
"334 700 LINE",
"252 700 LINE"
);
},
{
closed = 1;
nodes = (
"348 572 LINE",
"430 572 LINE",
"430 700 LINE",
"348 700 LINE"
);
},
{
closed = 1;
nodes = (
"444 572 LINE",
"526 572 LINE",
"526 700 LINE",
"444 700 LINE"
);
},
{
closed = 1;
nodes = (
"444 429 LINE",
"526 429 LINE",
"526 557 LINE",
"444 557 LINE"
);
},
{
closed = 1;
nodes = (
"540 429 LINE",
"622 429 LINE",
"622 557 LINE",
"540 557 LINE"
);
},
{
closed = 1;
nodes = (
"444 286 LINE",
"526 286 LINE",
"526 414 LINE",
"444 414 LINE"
);
},
{
closed = 1;
nodes = (
"348 286 LINE",
"430 286 LINE",
"430 414 LINE",
"348 414 LINE"
);
},
{
closed = 1;
nodes = (
"252 286 LINE",
"334 286 LINE",
"334 414 LINE",
"252 414 LINE"
);
},
{
closed = 1;
nodes = (
"444 143 LINE",
"526 143 LINE",
"526 271 LINE",
"444 271 LINE"
);
},
{
closed = 1;
nodes = (
"540 143 LINE",
"622 143 LINE",
"622 271 LINE",
"540 271 LINE"
);
},
{
closed = 1;
nodes = (
"444 0 LINE",
"526 0 LINE",
"526 128 LINE",
"444 128 LINE"
);
},
{
closed = 1;
nodes = (
"540 0 LINE",
"622 0 LINE",
"622 128 LINE",
"540 128 LINE"
);
}
);
width = 682;
}
);
unicode = 0072;
},
{
glyphname = s;
lastChange = "2019-02-09 05:39:33 +0000";
layers = (
{
layerId = "3BA1B4B2-6ACF-4D2C-A9DD-A548EEBF9DB3";
paths = (
{
closed = 1;
nodes = (
"540 572 LINE",
"622 572 LINE",
"622 700 LINE",
"540 700 LINE"
);
},
{
closed = 1;
nodes = (
"444 572 LINE",
"526 572 LINE",
"526 700 LINE",
"444 700 LINE"
);
},
{
closed = 1;
nodes = (
"348 572 LINE",
"430 572 LINE",
"430 700 LINE",
"348 700 LINE"
);
},
{
closed = 1;
nodes = (
"252 572 LINE",
"334 572 LINE",
"334 700 LINE",
"252 700 LINE"
);
},
{
closed = 1;
nodes = (
"156 572 LINE",
"238 572 LINE",
"238 700 LINE",
"156 700 LINE"
);
},
{
closed = 1;
nodes = (
"60 572 LINE",
"142 572 LINE",
"142 700 LINE",
"60 700 LINE"
);
},
{
closed = 1;
nodes = (
"60 429 LINE",
"142 429 LINE",
"142 557 LINE",
"60 557 LINE"
);
},
{
closed = 1;
nodes = (
"156 429 LINE",
"238 429 LINE",
"238 557 LINE",
"156 557 LINE"
);
},
{
closed = 1;
nodes = (
"252 286 LINE",
"334 286 LINE",
"334 414 LINE",
"252 414 LINE"
);
},
{
closed = 1;
nodes = (
"348 286 LINE",
"430 286 LINE",
"430 414 LINE",
"348 414 LINE"
);
},
{
closed = 1;
nodes = (
"444 143 LINE",
"526 143 LINE",
"526 271 LINE",
"444 271 LINE"
);
},
{
closed = 1;
nodes = (
"540 143 LINE",
"622 143 LINE",
"622 271 LINE",
"540 271 LINE"
);
},
{
closed = 1;
nodes = (
"444 0 LINE",
"526 0 LINE",
"526 128 LINE",
"444 128 LINE"
);
},
{
closed = 1;
nodes = (
"540 0 LINE",
"622 0 LINE",
"622 128 LINE",
"540 128 LINE"
);
},
{
closed = 1;
nodes = (
"348 0 LINE",
"430 0 LINE",
"430 128 LINE",
"348 128 LINE"
);
},
{
closed = 1;
nodes = (
"252 0 LINE",
"334 0 LINE",
"334 128 LINE",
"252 128 LINE"
);
},
{
closed = 1;
nodes = (
"156 0 LINE",
"238 0 LINE",
"238 128 LINE",
"156 128 LINE"
);
},
{
closed = 1;
nodes = (
"60 0 LINE",
"142 0 LINE",
"142 128 LINE",
"60 128 LINE"
);
}
);
width = 682;
}
);
unicode = 0073;
},
{
glyphname = t;
lastChange = "2019-02-09 05:39:33 +0000";
layers = (
{
layerId = "3BA1B4B2-6ACF-4D2C-A9DD-A548EEBF9DB3";
paths = (
{
closed = 1;
nodes = (
"60 572 LINE",
"142 572 LINE",
"142 700 LINE",
"60 700 LINE"
);
},
{
closed = 1;
nodes = (
"156 572 LINE",
"238 572 LINE",
"238 700 LINE",
"156 700 LINE"
);
},
{
closed = 1;
nodes = (
"252 572 LINE",
"334 572 LINE",
"334 700 LINE",
"252 700 LINE"
);
},
{
closed = 1;
nodes = (
"348 572 LINE",
"430 572 LINE",
"430 700 LINE",
"348 700 LINE"
);
},
{
closed = 1;
nodes = (
"252 429 LINE",
"334 429 LINE",
"334 557 LINE",
"252 557 LINE"
);
},
{
closed = 1;
nodes = (
"348 429 LINE",
"430 429 LINE",
"430 557 LINE",
"348 557 LINE"
);
},
{
closed = 1;
nodes = (
"444 572 LINE",
"526 572 LINE",
"526 700 LINE",
"444 700 LINE"
);
},
{
closed = 1;
nodes = (
"540 572 LINE",
"622 572 LINE",
"622 700 LINE",
"540 700 LINE"
);
},
{
closed = 1;
nodes = (
"252 286 LINE",
"334 286 LINE",
"334 414 LINE",
"252 414 LINE"
);
},
{
closed = 1;
nodes = (
"348 286 LINE",
"430 286 LINE",
"430 414 LINE",
"348 414 LINE"
);
},
{
closed = 1;
nodes = (
"252 143 LINE",
"334 143 LINE",
"334 271 LINE",
"252 271 LINE"
);
},
{
closed = 1;
nodes = (
"348 143 LINE",
"430 143 LINE",
"430 271 LINE",
"348 271 LINE"
);
},
{
closed = 1;
nodes = (
"252 0 LINE",
"334 0 LINE",
"334 128 LINE",
"252 128 LINE"
);
},
{
closed = 1;
nodes = (
"348 0 LINE",
"430 0 LINE",
"430 128 LINE",
"348 128 LINE"
);
}
);
width = 682;
}
);
unicode = 0074;
},
{
glyphname = u;
lastChange = "2019-02-09 05:39:33 +0000";
layers = (
{
layerId = "3BA1B4B2-6ACF-4D2C-A9DD-A548EEBF9DB3";
paths = (
{
closed = 1;
nodes = (
"156 0 LINE",
"238 0 LINE",
"238 128 LINE",
"156 128 LINE"
);
},
{
closed = 1;
nodes = (
"252 0 LINE",
"334 0 LINE",
"334 128 LINE",
"252 128 LINE"
);
},
{
closed = 1;
nodes = (
"348 0 LINE",
"430 0 LINE",
"430 128 LINE",
"348 128 LINE"
);
},
{
closed = 1;
nodes = (
"444 0 LINE",
"526 0 LINE",
"526 128 LINE",
"444 128 LINE"
);
},
{
closed = 1;
nodes = (
"60 572 LINE",
"142 572 LINE",
"142 700 LINE",
"60 700 LINE"
);
},
{
closed = 1;
nodes = (
"156 572 LINE",
"238 572 LINE",
"238 700 LINE",
"156 700 LINE"
);
},
{
closed = 1;
nodes = (
"60 429 LINE",
"142 429 LINE",
"142 557 LINE",
"60 557 LINE"
);
},
{
closed = 1;
nodes = (
"156 429 LINE",
"238 429 LINE",
"238 557 LINE",
"156 557 LINE"
);
},
{
closed = 1;
nodes = (
"60 286 LINE",
"142 286 LINE",
"142 414 LINE",
"60 414 LINE"
);
},
{
closed = 1;
nodes = (
"156 286 LINE",
"238 286 LINE",
"238 414 LINE",
"156 414 LINE"
);
},
{
closed = 1;
nodes = (
"60 143 LINE",
"142 143 LINE",
"142 271 LINE",
"60 271 LINE"
);
},
{
closed = 1;
nodes = (
"156 143 LINE",
"238 143 LINE",
"238 271 LINE",
"156 271 LINE"
);
},
{
closed = 1;
nodes = (
"444 143 LINE",
"526 143 LINE",
"526 271 LINE",
"444 271 LINE"
);
},
{
closed = 1;
nodes = (
"540 143 LINE",
"622 143 LINE",
"622 271 LINE",
"540 271 LINE"
);
},
{
closed = 1;
nodes = (
"444 286 LINE",
"526 286 LINE",
"526 414 LINE",
"444 414 LINE"
);
},
{
closed = 1;
nodes = (
"540 286 LINE",
"622 286 LINE",
"622 414 LINE",
"540 414 LINE"
);
},
{
closed = 1;
nodes = (
"444 429 LINE",
"526 429 LINE",
"526 557 LINE",
"444 557 LINE"
);
},
{
closed = 1;
nodes = (
"540 429 LINE",
"622 429 LINE",
"622 557 LINE",
"540 557 LINE"
);
},
{
closed = 1;
nodes = (
"444 572 LINE",
"526 572 LINE",
"526 700 LINE",
"444 700 LINE"
);
},
{
closed = 1;
nodes = (
"540 572 LINE",
"622 572 LINE",
"622 700 LINE",
"540 700 LINE"
);
}
);
width = 682;
}
);
unicode = 0075;
},
{
glyphname = v;
lastChange = "2019-02-09 05:39:33 +0000";
layers = (
{
layerId = "3BA1B4B2-6ACF-4D2C-A9DD-A548EEBF9DB3";
paths = (
{
closed = 1;
nodes = (
"60 572 LINE",
"142 572 LINE",
"142 700 LINE",
"60 700 LINE"
);
},
{
closed = 1;
nodes = (
"156 572 LINE",
"238 572 LINE",
"238 700 LINE",
"156 700 LINE"
);
},
{
closed = 1;
nodes = (
"60 429 LINE",
"142 429 LINE",
"142 557 LINE",
"60 557 LINE"
);
},
{
closed = 1;
nodes = (
"156 429 LINE",
"238 429 LINE",
"238 557 LINE",
"156 557 LINE"
);
},
{
closed = 1;
nodes = (
"60 286 LINE",
"142 286 LINE",
"142 414 LINE",
"60 414 LINE"
);
},
{
closed = 1;
nodes = (
"156 286 LINE",
"238 286 LINE",
"238 414 LINE",
"156 414 LINE"
);
},
{
closed = 1;
nodes = (
"444 572 LINE",
"526 572 LINE",
"526 700 LINE",
"444 700 LINE"
);
},
{
closed = 1;
nodes = (
"540 572 LINE",
"622 572 LINE",
"622 700 LINE",
"540 700 LINE"
);
},
{
closed = 1;
nodes = (
"444 429 LINE",
"526 429 LINE",
"526 557 LINE",
"444 557 LINE"
);
},
{
closed = 1;
nodes = (
"540 429 LINE",
"622 429 LINE",
"622 557 LINE",
"540 557 LINE"
);
},
{
closed = 1;
nodes = (
"444 286 LINE",
"526 286 LINE",
"526 414 LINE",
"444 414 LINE"
);
},
{
closed = 1;
nodes = (
"540 286 LINE",
"622 286 LINE",
"622 414 LINE",
"540 414 LINE"
);
},
{
closed = 1;
nodes = (
"156 143 LINE",
"238 143 LINE",
"238 271 LINE",
"156 271 LINE"
);
},
{
closed = 1;
nodes = (
"252 143 LINE",
"334 143 LINE",
"334 271 LINE",
"252 271 LINE"
);
},
{
closed = 1;
nodes = (
"348 143 LINE",
"430 143 LINE",
"430 271 LINE",
"348 271 LINE"
);
},
{
closed = 1;
nodes = (
"444 143 LINE",
"526 143 LINE",
"526 271 LINE",
"444 271 LINE"
);
},
{
closed = 1;
nodes = (
"252 0 LINE",
"334 0 LINE",
"334 128 LINE",
"252 128 LINE"
);
},
{
closed = 1;
nodes = (
"348 0 LINE",
"430 0 LINE",
"430 128 LINE",
"348 128 LINE"
);
}
);
width = 682;
}
);
unicode = 0076;
},
{
glyphname = w;
lastChange = "2019-02-09 05:39:33 +0000";
layers = (
{
layerId = "3BA1B4B2-6ACF-4D2C-A9DD-A548EEBF9DB3";
paths = (
{
closed = 1;
nodes = (
"60 572 LINE",
"142 572 LINE",
"142 700 LINE",
"60 700 LINE"
);
},
{
closed = 1;
nodes = (
"60 429 LINE",
"142 429 LINE",
"142 557 LINE",
"60 557 LINE"
);
},
{
closed = 1;
nodes = (
"60 286 LINE",
"142 286 LINE",
"142 414 LINE",
"60 414 LINE"
);
},
{
closed = 1;
nodes = (
"60 143 LINE",
"142 143 LINE",
"142 271 LINE",
"60 271 LINE"
);
},
{
closed = 1;
nodes = (
"156 0 LINE",
"238 0 LINE",
"238 128 LINE",
"156 128 LINE"
);
},
{
closed = 1;
nodes = (
"252 0 LINE",
"334 0 LINE",
"334 128 LINE",
"252 128 LINE"
);
},
{
closed = 1;
nodes = (
"348 0 LINE",
"430 0 LINE",
"430 128 LINE",
"348 128 LINE"
);
},
{
closed = 1;
nodes = (
"444 0 LINE",
"526 0 LINE",
"526 128 LINE",
"444 128 LINE"
);
},
{
closed = 1;
nodes = (
"540 572 LINE",
"622 572 LINE",
"622 700 LINE",
"540 700 LINE"
);
},
{
closed = 1;
nodes = (
"540 429 LINE",
"622 429 LINE",
"622 557 LINE",
"540 557 LINE"
);
},
{
closed = 1;
nodes = (
"540 286 LINE",
"622 286 LINE",
"622 414 LINE",
"540 414 LINE"
);
},
{
closed = 1;
nodes = (
"540 143 LINE",
"622 143 LINE",
"622 271 LINE",
"540 271 LINE"
);
},
{
closed = 1;
nodes = (
"252 429 LINE",
"334 429 LINE",
"334 557 LINE",
"252 557 LINE"
);
},
{
closed = 1;
nodes = (
"348 429 LINE",
"430 429 LINE",
"430 557 LINE",
"348 557 LINE"
);
},
{
closed = 1;
nodes = (
"252 286 LINE",
"334 286 LINE",
"334 414 LINE",
"252 414 LINE"
);
},
{
closed = 1;
nodes = (
"348 286 LINE",
"430 286 LINE",
"430 414 LINE",
"348 414 LINE"
);
},
{
closed = 1;
nodes = (
"252 143 LINE",
"334 143 LINE",
"334 271 LINE",
"252 271 LINE"
);
},
{
closed = 1;
nodes = (
"348 143 LINE",
"430 143 LINE",
"430 271 LINE",
"348 271 LINE"
);
}
);
width = 682;
}
);
unicode = 0077;
},
{
glyphname = x;
lastChange = "2019-02-09 05:39:33 +0000";
layers = (
{
layerId = "3BA1B4B2-6ACF-4D2C-A9DD-A548EEBF9DB3";
paths = (
{
closed = 1;
nodes = (
"156 286 LINE",
"238 286 LINE",
"238 414 LINE",
"156 414 LINE"
);
},
{
closed = 1;
nodes = (
"252 286 LINE",
"334 286 LINE",
"334 414 LINE",
"252 414 LINE"
);
},
{
closed = 1;
nodes = (
"348 286 LINE",
"430 286 LINE",
"430 414 LINE",
"348 414 LINE"
);
},
{
closed = 1;
nodes = (
"444 286 LINE",
"526 286 LINE",
"526 414 LINE",
"444 414 LINE"
);
},
{
closed = 1;
nodes = (
"60 429 LINE",
"142 429 LINE",
"142 557 LINE",
"60 557 LINE"
);
},
{
closed = 1;
nodes = (
"156 429 LINE",
"238 429 LINE",
"238 557 LINE",
"156 557 LINE"
);
},
{
closed = 1;
nodes = (
"444 429 LINE",
"526 429 LINE",
"526 557 LINE",
"444 557 LINE"
);
},
{
closed = 1;
nodes = (
"540 429 LINE",
"622 429 LINE",
"622 557 LINE",
"540 557 LINE"
);
},
{
closed = 1;
nodes = (
"444 572 LINE",
"526 572 LINE",
"526 700 LINE",
"444 700 LINE"
);
},
{
closed = 1;
nodes = (
"540 572 LINE",
"622 572 LINE",
"622 700 LINE",
"540 700 LINE"
);
},
{
closed = 1;
nodes = (
"60 572 LINE",
"142 572 LINE",
"142 700 LINE",
"60 700 LINE"
);
},
{
closed = 1;
nodes = (
"156 572 LINE",
"238 572 LINE",
"238 700 LINE",
"156 700 LINE"
);
},
{
closed = 1;
nodes = (
"60 143 LINE",
"142 143 LINE",
"142 271 LINE",
"60 271 LINE"
);
},
{
closed = 1;
nodes = (
"156 143 LINE",
"238 143 LINE",
"238 271 LINE",
"156 271 LINE"
);
},
{
closed = 1;
nodes = (
"444 143 LINE",
"526 143 LINE",
"526 271 LINE",
"444 271 LINE"
);
},
{
closed = 1;
nodes = (
"540 143 LINE",
"622 143 LINE",
"622 271 LINE",
"540 271 LINE"
);
},
{
closed = 1;
nodes = (
"60 0 LINE",
"142 0 LINE",
"142 128 LINE",
"60 128 LINE"
);
},
{
closed = 1;
nodes = (
"156 0 LINE",
"238 0 LINE",
"238 128 LINE",
"156 128 LINE"
);
},
{
closed = 1;
nodes = (
"444 0 LINE",
"526 0 LINE",
"526 128 LINE",
"444 128 LINE"
);
},
{
closed = 1;
nodes = (
"540 0 LINE",
"622 0 LINE",
"622 128 LINE",
"540 128 LINE"
);
}
);
width = 682;
}
);
unicode = 0078;
},
{
glyphname = y;
lastChange = "2019-02-09 05:39:33 +0000";
layers = (
{
layerId = "3BA1B4B2-6ACF-4D2C-A9DD-A548EEBF9DB3";
paths = (
{
closed = 1;
nodes = (
"60 572 LINE",
"142 572 LINE",
"142 700 LINE",
"60 700 LINE"
);
},
{
closed = 1;
nodes = (
"156 572 LINE",
"238 572 LINE",
"238 700 LINE",
"156 700 LINE"
);
},
{
closed = 1;
nodes = (
"60 429 LINE",
"142 429 LINE",
"142 557 LINE",
"60 557 LINE"
);
},
{
closed = 1;
nodes = (
"156 429 LINE",
"238 429 LINE",
"238 557 LINE",
"156 557 LINE"
);
},
{
closed = 1;
nodes = (
"60 286 LINE",
"142 286 LINE",
"142 414 LINE",
"60 414 LINE"
);
},
{
closed = 1;
nodes = (
"156 286 LINE",
"238 286 LINE",
"238 414 LINE",
"156 414 LINE"
);
},
{
closed = 1;
nodes = (
"252 286 LINE",
"334 286 LINE",
"334 414 LINE",
"252 414 LINE"
);
},
{
closed = 1;
nodes = (
"348 286 LINE",
"430 286 LINE",
"430 414 LINE",
"348 414 LINE"
);
},
{
closed = 1;
nodes = (
"444 286 LINE",
"526 286 LINE",
"526 414 LINE",
"444 414 LINE"
);
},
{
closed = 1;
nodes = (
"540 286 LINE",
"622 286 LINE",
"622 414 LINE",
"540 414 LINE"
);
},
{
closed = 1;
nodes = (
"444 429 LINE",
"526 429 LINE",
"526 557 LINE",
"444 557 LINE"
);
},
{
closed = 1;
nodes = (
"540 429 LINE",
"622 429 LINE",
"622 557 LINE",
"540 557 LINE"
);
},
{
closed = 1;
nodes = (
"444 572 LINE",
"526 572 LINE",
"526 700 LINE",
"444 700 LINE"
);
},
{
closed = 1;
nodes = (
"540 572 LINE",
"622 572 LINE",
"622 700 LINE",
"540 700 LINE"
);
},
{
closed = 1;
nodes = (
"252 143 LINE",
"334 143 LINE",
"334 271 LINE",
"252 271 LINE"
);
},
{
closed = 1;
nodes = (
"348 143 LINE",
"430 143 LINE",
"430 271 LINE",
"348 271 LINE"
);
},
{
closed = 1;
nodes = (
"252 0 LINE",
"334 0 LINE",
"334 128 LINE",
"252 128 LINE"
);
},
{
closed = 1;
nodes = (
"348 0 LINE",
"430 0 LINE",
"430 128 LINE",
"348 128 LINE"
);
}
);
width = 682;
}
);
unicode = 0079;
},
{
glyphname = z;
lastChange = "2019-02-09 05:39:33 +0000";
layers = (
{
layerId = "3BA1B4B2-6ACF-4D2C-A9DD-A548EEBF9DB3";
paths = (
{
closed = 1;
nodes = (
"60 572 LINE",
"142 572 LINE",
"142 700 LINE",
"60 700 LINE"
);
},
{
closed = 1;
nodes = (
"156 572 LINE",
"238 572 LINE",
"238 700 LINE",
"156 700 LINE"
);
},
{
closed = 1;
nodes = (
"252 572 LINE",
"334 572 LINE",
"334 700 LINE",
"252 700 LINE"
);
},
{
closed = 1;
nodes = (
"348 572 LINE",
"430 572 LINE",
"430 700 LINE",
"348 700 LINE"
);
},
{
closed = 1;
nodes = (
"444 572 LINE",
"526 572 LINE",
"526 700 LINE",
"444 700 LINE"
);
},
{
closed = 1;
nodes = (
"540 572 LINE",
"622 572 LINE",
"622 700 LINE",
"540 700 LINE"
);
},
{
closed = 1;
nodes = (
"444 429 LINE",
"526 429 LINE",
"526 557 LINE",
"444 557 LINE"
);
},
{
closed = 1;
nodes = (
"540 429 LINE",
"622 429 LINE",
"622 557 LINE",
"540 557 LINE"
);
},
{
closed = 1;
nodes = (
"252 286 LINE",
"334 286 LINE",
"334 414 LINE",
"252 414 LINE"
);
},
{
closed = 1;
nodes = (
"348 286 LINE",
"430 286 LINE",
"430 414 LINE",
"348 414 LINE"
);
},
{
closed = 1;
nodes = (
"60 143 LINE",
"142 143 LINE",
"142 271 LINE",
"60 271 LINE"
);
},
{
closed = 1;
nodes = (
"156 143 LINE",
"238 143 LINE",
"238 271 LINE",
"156 271 LINE"
);
},
{
closed = 1;
nodes = (
"60 0 LINE",
"142 0 LINE",
"142 128 LINE",
"60 128 LINE"
);
},
{
closed = 1;
nodes = (
"156 0 LINE",
"238 0 LINE",
"238 128 LINE",
"156 128 LINE"
);
},
{
closed = 1;
nodes = (
"252 0 LINE",
"334 0 LINE",
"334 128 LINE",
"252 128 LINE"
);
},
{
closed = 1;
nodes = (
"348 0 LINE",
"430 0 LINE",
"430 128 LINE",
"348 128 LINE"
);
},
{
closed = 1;
nodes = (
"444 0 LINE",
"526 0 LINE",
"526 128 LINE",
"444 128 LINE"
);
},
{
closed = 1;
nodes = (
"540 0 LINE",
"622 0 LINE",
"622 128 LINE",
"540 128 LINE"
);
}
);
width = 682;
}
);
unicode = 007A;
},
{
glyphname = zero;
lastChange = "2019-02-09 05:39:33 +0000";
layers = (
{
layerId = "3BA1B4B2-6ACF-4D2C-A9DD-A548EEBF9DB3";
paths = (
{
closed = 1;
nodes = (
"156 572 LINE",
"238 572 LINE",
"238 700 LINE",
"156 700 LINE"
);
},
{
closed = 1;
nodes = (
"252 572 LINE",
"334 572 LINE",
"334 700 LINE",
"252 700 LINE"
);
},
{
closed = 1;
nodes = (
"348 572 LINE",
"430 572 LINE",
"430 700 LINE",
"348 700 LINE"
);
},
{
closed = 1;
nodes = (
"444 572 LINE",
"526 572 LINE",
"526 700 LINE",
"444 700 LINE"
);
},
{
closed = 1;
nodes = (
"60 429 LINE",
"142 429 LINE",
"142 557 LINE",
"60 557 LINE"
);
},
{
closed = 1;
nodes = (
"156 429 LINE",
"238 429 LINE",
"238 557 LINE",
"156 557 LINE"
);
},
{
closed = 1;
nodes = (
"444 429 LINE",
"526 429 LINE",
"526 557 LINE",
"444 557 LINE"
);
},
{
closed = 1;
nodes = (
"540 429 LINE",
"622 429 LINE",
"622 557 LINE",
"540 557 LINE"
);
},
{
closed = 1;
nodes = (
"60 286 LINE",
"142 286 LINE",
"142 414 LINE",
"60 414 LINE"
);
},
{
closed = 1;
nodes = (
"156 286 LINE",
"238 286 LINE",
"238 414 LINE",
"156 414 LINE"
);
},
{
closed = 1;
nodes = (
"444 286 LINE",
"526 286 LINE",
"526 414 LINE",
"444 414 LINE"
);
},
{
closed = 1;
nodes = (
"540 286 LINE",
"622 286 LINE",
"622 414 LINE",
"540 414 LINE"
);
},
{
closed = 1;
nodes = (
"60 143 LINE",
"142 143 LINE",
"142 271 LINE",
"60 271 LINE"
);
},
{
closed = 1;
nodes = (
"156 143 LINE",
"238 143 LINE",
"238 271 LINE",
"156 271 LINE"
);
},
{
closed = 1;
nodes = (
"444 143 LINE",
"526 143 LINE",
"526 271 LINE",
"444 271 LINE"
);
},
{
closed = 1;
nodes = (
"540 143 LINE",
"622 143 LINE",
"622 271 LINE",
"540 271 LINE"
);
},
{
closed = 1;
nodes = (
"156 0 LINE",
"238 0 LINE",
"238 128 LINE",
"156 128 LINE"
);
},
{
closed = 1;
nodes = (
"252 0 LINE",
"334 0 LINE",
"334 128 LINE",
"252 128 LINE"
);
},
{
closed = 1;
nodes = (
"348 0 LINE",
"430 0 LINE",
"430 128 LINE",
"348 128 LINE"
);
},
{
closed = 1;
nodes = (
"444 0 LINE",
"526 0 LINE",
"526 128 LINE",
"444 128 LINE"
);
},
{
closed = 1;
nodes = (
"300 286 LINE",
"382 286 LINE",
"382 414 LINE",
"300 414 LINE"
);
}
);
width = 682;
}
);
unicode = 0030;
},
{
glyphname = one;
lastChange = "2019-02-09 05:39:33 +0000";
layers = (
{
layerId = "3BA1B4B2-6ACF-4D2C-A9DD-A548EEBF9DB3";
paths = (
{
closed = 1;
nodes = (
"252 572 LINE",
"334 572 LINE",
"334 700 LINE",
"252 700 LINE"
);
},
{
closed = 1;
nodes = (
"348 572 LINE",
"430 572 LINE",
"430 700 LINE",
"348 700 LINE"
);
},
{
closed = 1;
nodes = (
"156 429 LINE",
"238 429 LINE",
"238 557 LINE",
"156 557 LINE"
);
},
{
closed = 1;
nodes = (
"252 429 LINE",
"334 429 LINE",
"334 557 LINE",
"252 557 LINE"
);
},
{
closed = 1;
nodes = (
"348 429 LINE",
"430 429 LINE",
"430 557 LINE",
"348 557 LINE"
);
},
{
closed = 1;
nodes = (
"252 286 LINE",
"334 286 LINE",
"334 414 LINE",
"252 414 LINE"
);
},
{
closed = 1;
nodes = (
"348 286 LINE",
"430 286 LINE",
"430 414 LINE",
"348 414 LINE"
);
},
{
closed = 1;
nodes = (
"252 143 LINE",
"334 143 LINE",
"334 271 LINE",
"252 271 LINE"
);
},
{
closed = 1;
nodes = (
"348 143 LINE",
"430 143 LINE",
"430 271 LINE",
"348 271 LINE"
);
},
{
closed = 1;
nodes = (
"60 0 LINE",
"142 0 LINE",
"142 128 LINE",
"60 128 LINE"
);
},
{
closed = 1;
nodes = (
"156 0 LINE",
"238 0 LINE",
"238 128 LINE",
"156 128 LINE"
);
},
{
closed = 1;
nodes = (
"252 0 LINE",
"334 0 LINE",
"334 128 LINE",
"252 128 LINE"
);
},
{
closed = 1;
nodes = (
"348 0 LINE",
"430 0 LINE",
"430 128 LINE",
"348 128 LINE"
);
},
{
closed = 1;
nodes = (
"444 0 LINE",
"526 0 LINE",
"526 128 LINE",
"444 128 LINE"
);
},
{
closed = 1;
nodes = (
"540 0 LINE",
"622 0 LINE",
"622 128 LINE",
"540 128 LINE"
);
}
);
width = 682;
}
);
unicode = 0031;
},
{
glyphname = two;
lastChange = "2019-02-09 05:39:33 +0000";
layers = (
{
layerId = "3BA1B4B2-6ACF-4D2C-A9DD-A548EEBF9DB3";
paths = (
{
closed = 1;
nodes = (
"156 572 LINE",
"238 572 LINE",
"238 700 LINE",
"156 700 LINE"
);
},
{
closed = 1;
nodes = (
"252 572 LINE",
"334 572 LINE",
"334 700 LINE",
"252 700 LINE"
);
},
{
closed = 1;
nodes = (
"348 572 LINE",
"430 572 LINE",
"430 700 LINE",
"348 700 LINE"
);
},
{
closed = 1;
nodes = (
"444 572 LINE",
"526 572 LINE",
"526 700 LINE",
"444 700 LINE"
);
},
{
closed = 1;
nodes = (
"60 429 LINE",
"142 429 LINE",
"142 557 LINE",
"60 557 LINE"
);
},
{
closed = 1;
nodes = (
"444 429 LINE",
"526 429 LINE",
"526 557 LINE",
"444 557 LINE"
);
},
{
closed = 1;
nodes = (
"540 429 LINE",
"622 429 LINE",
"622 557 LINE",
"540 557 LINE"
);
},
{
closed = 1;
nodes = (
"252 286 LINE",
"334 286 LINE",
"334 414 LINE",
"252 414 LINE"
);
},
{
closed = 1;
nodes = (
"348 286 LINE",
"430 286 LINE",
"430 414 LINE",
"348 414 LINE"
);
},
{
closed = 1;
nodes = (
"156 143 LINE",
"238 143 LINE",
"238 271 LINE",
"156 271 LINE"
);
},
{
closed = 1;
nodes = (
"60 0 LINE",
"142 0 LINE",
"142 128 LINE",
"60 128 LINE"
);
},
{
closed = 1;
nodes = (
"156 0 LINE",
"238 0 LINE",
"238 128 LINE",
"156 128 LINE"
);
},
{
closed = 1;
nodes = (
"252 0 LINE",
"334 0 LINE",
"334 128 LINE",
"252 128 LINE"
);
},
{
closed = 1;
nodes = (
"348 0 LINE",
"430 0 LINE",
"430 128 LINE",
"348 128 LINE"
);
},
{
closed = 1;
nodes = (
"444 0 LINE",
"526 0 LINE",
"526 128 LINE",
"444 128 LINE"
);
},
{
closed = 1;
nodes = (
"540 0 LINE",
"622 0 LINE",
"622 128 LINE",
"540 128 LINE"
);
}
);
width = 682;
}
);
unicode = 0032;
},
{
glyphname = three;
lastChange = "2019-02-09 05:39:33 +0000";
layers = (
{
layerId = "3BA1B4B2-6ACF-4D2C-A9DD-A548EEBF9DB3";
paths = (
{
closed = 1;
nodes = (
"156 572 LINE",
"238 572 LINE",
"238 700 LINE",
"156 700 LINE"
);
},
{
closed = 1;
nodes = (
"252 572 LINE",
"334 572 LINE",
"334 700 LINE",
"252 700 LINE"
);
},
{
closed = 1;
nodes = (
"348 572 LINE",
"430 572 LINE",
"430 700 LINE",
"348 700 LINE"
);
},
{
closed = 1;
nodes = (
"444 572 LINE",
"526 572 LINE",
"526 700 LINE",
"444 700 LINE"
);
},
{
closed = 1;
nodes = (
"444 429 LINE",
"526 429 LINE",
"526 557 LINE",
"444 557 LINE"
);
},
{
closed = 1;
nodes = (
"540 429 LINE",
"622 429 LINE",
"622 557 LINE",
"540 557 LINE"
);
},
{
closed = 1;
nodes = (
"60 429 LINE",
"142 429 LINE",
"142 557 LINE",
"60 557 LINE"
);
},
{
closed = 1;
nodes = (
"252 286 LINE",
"334 286 LINE",
"334 414 LINE",
"252 414 LINE"
);
},
{
closed = 1;
nodes = (
"348 286 LINE",
"430 286 LINE",
"430 414 LINE",
"348 414 LINE"
);
},
{
closed = 1;
nodes = (
"444 286 LINE",
"526 286 LINE",
"526 414 LINE",
"444 414 LINE"
);
},
{
closed = 1;
nodes = (
"444 143 LINE",
"526 143 LINE",
"526 271 LINE",
"444 271 LINE"
);
},
{
closed = 1;
nodes = (
"540 143 LINE",
"622 143 LINE",
"622 271 LINE",
"540 271 LINE"
);
},
{
closed = 1;
nodes = (
"444 0 LINE",
"526 0 LINE",
"526 128 LINE",
"444 128 LINE"
);
},
{
closed = 1;
nodes = (
"348 0 LINE",
"430 0 LINE",
"430 128 LINE",
"348 128 LINE"
);
},
{
closed = 1;
nodes = (
"252 0 LINE",
"334 0 LINE",
"334 128 LINE",
"252 128 LINE"
);
},
{
closed = 1;
nodes = (
"156 0 LINE",
"238 0 LINE",
"238 128 LINE",
"156 128 LINE"
);
},
{
closed = 1;
nodes = (
"60 143 LINE",
"142 143 LINE",
"142 271 LINE",
"60 271 LINE"
);
}
);
width = 682;
}
);
unicode = 0033;
},
{
glyphname = four;
lastChange = "2019-02-09 05:39:33 +0000";
layers = (
{
layerId = "3BA1B4B2-6ACF-4D2C-A9DD-A548EEBF9DB3";
paths = (
{
closed = 1;
nodes = (
"60 572 LINE",
"142 572 LINE",
"142 700 LINE",
"60 700 LINE"
);
},
{
closed = 1;
nodes = (
"156 572 LINE",
"238 572 LINE",
"238 700 LINE",
"156 700 LINE"
);
},
{
closed = 1;
nodes = (
"60 429 LINE",
"142 429 LINE",
"142 557 LINE",
"60 557 LINE"
);
},
{
closed = 1;
nodes = (
"156 429 LINE",
"238 429 LINE",
"238 557 LINE",
"156 557 LINE"
);
},
{
closed = 1;
nodes = (
"60 286 LINE",
"142 286 LINE",
"142 414 LINE",
"60 414 LINE"
);
},
{
closed = 1;
nodes = (
"156 286 LINE",
"238 286 LINE",
"238 414 LINE",
"156 414 LINE"
);
},
{
closed = 1;
nodes = (
"252 286 LINE",
"334 286 LINE",
"334 414 LINE",
"252 414 LINE"
);
},
{
closed = 1;
nodes = (
"348 286 LINE",
"430 286 LINE",
"430 414 LINE",
"348 414 LINE"
);
},
{
closed = 1;
nodes = (
"444 286 LINE",
"526 286 LINE",
"526 414 LINE",
"444 414 LINE"
);
},
{
closed = 1;
nodes = (
"540 286 LINE",
"622 286 LINE",
"622 414 LINE",
"540 414 LINE"
);
},
{
closed = 1;
nodes = (
"444 429 LINE",
"526 429 LINE",
"526 557 LINE",
"444 557 LINE"
);
},
{
closed = 1;
nodes = (
"540 429 LINE",
"622 429 LINE",
"622 557 LINE",
"540 557 LINE"
);
},
{
closed = 1;
nodes = (
"444 572 LINE",
"526 572 LINE",
"526 700 LINE",
"444 700 LINE"
);
},
{
closed = 1;
nodes = (
"540 572 LINE",
"622 572 LINE",
"622 700 LINE",
"540 700 LINE"
);
},
{
closed = 1;
nodes = (
"444 143 LINE",
"526 143 LINE",
"526 271 LINE",
"444 271 LINE"
);
},
{
closed = 1;
nodes = (
"540 143 LINE",
"622 143 LINE",
"622 271 LINE",
"540 271 LINE"
);
},
{
closed = 1;
nodes = (
"444 0 LINE",
"526 0 LINE",
"526 128 LINE",
"444 128 LINE"
);
},
{
closed = 1;
nodes = (
"540 0 LINE",
"622 0 LINE",
"622 128 LINE",
"540 128 LINE"
);
}
);
width = 682;
}
);
unicode = 0034;
},
{
glyphname = five;
lastChange = "2019-02-09 05:39:33 +0000";
layers = (
{
layerId = "3BA1B4B2-6ACF-4D2C-A9DD-A548EEBF9DB3";
paths = (
{
closed = 1;
nodes = (
"60 572 LINE",
"142 572 LINE",
"142 700 LINE",
"60 700 LINE"
);
},
{
closed = 1;
nodes = (
"156 572 LINE",
"238 572 LINE",
"238 700 LINE",
"156 700 LINE"
);
},
{
closed = 1;
nodes = (
"252 572 LINE",
"334 572 LINE",
"334 700 LINE",
"252 700 LINE"
);
},
{
closed = 1;
nodes = (
"348 572 LINE",
"430 572 LINE",
"430 700 LINE",
"348 700 LINE"
);
},
{
closed = 1;
nodes = (
"444 572 LINE",
"526 572 LINE",
"526 700 LINE",
"444 700 LINE"
);
},
{
closed = 1;
nodes = (
"540 572 LINE",
"622 572 LINE",
"622 700 LINE",
"540 700 LINE"
);
},
{
closed = 1;
nodes = (
"60 429 LINE",
"142 429 LINE",
"142 557 LINE",
"60 557 LINE"
);
},
{
closed = 1;
nodes = (
"156 429 LINE",
"238 429 LINE",
"238 557 LINE",
"156 557 LINE"
);
},
{
closed = 1;
nodes = (
"156 286 LINE",
"238 286 LINE",
"238 414 LINE",
"156 414 LINE"
);
},
{
closed = 1;
nodes = (
"252 286 LINE",
"334 286 LINE",
"334 414 LINE",
"252 414 LINE"
);
},
{
closed = 1;
nodes = (
"348 286 LINE",
"430 286 LINE",
"430 414 LINE",
"348 414 LINE"
);
},
{
closed = 1;
nodes = (
"444 286 LINE",
"526 286 LINE",
"526 414 LINE",
"444 414 LINE"
);
},
{
closed = 1;
nodes = (
"444 143 LINE",
"526 143 LINE",
"526 271 LINE",
"444 271 LINE"
);
},
{
closed = 1;
nodes = (
"540 143 LINE",
"622 143 LINE",
"622 271 LINE",
"540 271 LINE"
);
},
{
closed = 1;
nodes = (
"444 0 LINE",
"526 0 LINE",
"526 128 LINE",
"444 128 LINE"
);
},
{
closed = 1;
nodes = (
"348 0 LINE",
"430 0 LINE",
"430 128 LINE",
"348 128 LINE"
);
},
{
closed = 1;
nodes = (
"252 0 LINE",
"334 0 LINE",
"334 128 LINE",
"252 128 LINE"
);
},
{
closed = 1;
nodes = (
"156 0 LINE",
"238 0 LINE",
"238 128 LINE",
"156 128 LINE"
);
},
{
closed = 1;
nodes = (
"60 0 LINE",
"142 0 LINE",
"142 128 LINE",
"60 128 LINE"
);
}
);
width = 682;
}
);
unicode = 0035;
},
{
glyphname = six;
lastChange = "2019-02-09 05:39:33 +0000";
layers = (
{
layerId = "3BA1B4B2-6ACF-4D2C-A9DD-A548EEBF9DB3";
paths = (
{
closed = 1;
nodes = (
"444 572 LINE",
"526 572 LINE",
"526 700 LINE",
"444 700 LINE"
);
},
{
closed = 1;
nodes = (
"348 572 LINE",
"430 572 LINE",
"430 700 LINE",
"348 700 LINE"
);
},
{
closed = 1;
nodes = (
"252 572 LINE",
"334 572 LINE",
"334 700 LINE",
"252 700 LINE"
);
},
{
closed = 1;
nodes = (
"156 572 LINE",
"238 572 LINE",
"238 700 LINE",
"156 700 LINE"
);
},
{
closed = 1;
nodes = (
"60 429 LINE",
"142 429 LINE",
"142 557 LINE",
"60 557 LINE"
);
},
{
closed = 1;
nodes = (
"156 429 LINE",
"238 429 LINE",
"238 557 LINE",
"156 557 LINE"
);
},
{
closed = 1;
nodes = (
"60 286 LINE",
"142 286 LINE",
"142 414 LINE",
"60 414 LINE"
);
},
{
closed = 1;
nodes = (
"156 286 LINE",
"238 286 LINE",
"238 414 LINE",
"156 414 LINE"
);
},
{
closed = 1;
nodes = (
"252 286 LINE",
"334 286 LINE",
"334 414 LINE",
"252 414 LINE"
);
},
{
closed = 1;
nodes = (
"348 286 LINE",
"430 286 LINE",
"430 414 LINE",
"348 414 LINE"
);
},
{
closed = 1;
nodes = (
"444 286 LINE",
"526 286 LINE",
"526 414 LINE",
"444 414 LINE"
);
},
{
closed = 1;
nodes = (
"444 143 LINE",
"526 143 LINE",
"526 271 LINE",
"444 271 LINE"
);
},
{
closed = 1;
nodes = (
"540 143 LINE",
"622 143 LINE",
"622 271 LINE",
"540 271 LINE"
);
},
{
closed = 1;
nodes = (
"60 143 LINE",
"142 143 LINE",
"142 271 LINE",
"60 271 LINE"
);
},
{
closed = 1;
nodes = (
"156 143 LINE",
"238 143 LINE",
"238 271 LINE",
"156 271 LINE"
);
},
{
closed = 1;
nodes = (
"156 0 LINE",
"238 0 LINE",
"238 128 LINE",
"156 128 LINE"
);
},
{
closed = 1;
nodes = (
"252 0 LINE",
"334 0 LINE",
"334 128 LINE",
"252 128 LINE"
);
},
{
closed = 1;
nodes = (
"348 0 LINE",
"430 0 LINE",
"430 128 LINE",
"348 128 LINE"
);
},
{
closed = 1;
nodes = (
"444 0 LINE",
"526 0 LINE",
"526 128 LINE",
"444 128 LINE"
);
}
);
width = 682;
}
);
unicode = 0036;
},
{
glyphname = seven;
lastChange = "2019-02-09 05:39:33 +0000";
layers = (
{
layerId = "3BA1B4B2-6ACF-4D2C-A9DD-A548EEBF9DB3";
paths = (
{
closed = 1;
nodes = (
"60 572 LINE",
"142 572 LINE",
"142 700 LINE",
"60 700 LINE"
);
},
{
closed = 1;
nodes = (
"156 572 LINE",
"238 572 LINE",
"238 700 LINE",
"156 700 LINE"
);
},
{
closed = 1;
nodes = (
"252 572 LINE",
"334 572 LINE",
"334 700 LINE",
"252 700 LINE"
);
},
{
closed = 1;
nodes = (
"348 572 LINE",
"430 572 LINE",
"430 700 LINE",
"348 700 LINE"
);
},
{
closed = 1;
nodes = (
"444 572 LINE",
"526 572 LINE",
"526 700 LINE",
"444 700 LINE"
);
},
{
closed = 1;
nodes = (
"540 572 LINE",
"622 572 LINE",
"622 700 LINE",
"540 700 LINE"
);
},
{
closed = 1;
nodes = (
"444 429 LINE",
"526 429 LINE",
"526 557 LINE",
"444 557 LINE"
);
},
{
closed = 1;
nodes = (
"540 429 LINE",
"622 429 LINE",
"622 557 LINE",
"540 557 LINE"
);
},
{
closed = 1;
nodes = (
"252 286 LINE",
"334 286 LINE",
"334 414 LINE",
"252 414 LINE"
);
},
{
closed = 1;
nodes = (
"348 286 LINE",
"430 286 LINE",
"430 414 LINE",
"348 414 LINE"
);
},
{
closed = 1;
nodes = (
"252 143 LINE",
"334 143 LINE",
"334 271 LINE",
"252 271 LINE"
);
},
{
closed = 1;
nodes = (
"348 143 LINE",
"430 143 LINE",
"430 271 LINE",
"348 271 LINE"
);
},
{
closed = 1;
nodes = (
"252 0 LINE",
"334 0 LINE",
"334 128 LINE",
"252 128 LINE"
);
},
{
closed = 1;
nodes = (
"348 0 LINE",
"430 0 LINE",
"430 128 LINE",
"348 128 LINE"
);
}
);
width = 682;
}
);
unicode = 0037;
},
{
glyphname = eight;
lastChange = "2019-02-09 05:39:33 +0000";
layers = (
{
layerId = "3BA1B4B2-6ACF-4D2C-A9DD-A548EEBF9DB3";
paths = (
{
closed = 1;
nodes = (
"156 572 LINE",
"238 572 LINE",
"238 700 LINE",
"156 700 LINE"
);
},
{
closed = 1;
nodes = (
"252 572 LINE",
"334 572 LINE",
"334 700 LINE",
"252 700 LINE"
);
},
{
closed = 1;
nodes = (
"348 572 LINE",
"430 572 LINE",
"430 700 LINE",
"348 700 LINE"
);
},
{
closed = 1;
nodes = (
"444 572 LINE",
"526 572 LINE",
"526 700 LINE",
"444 700 LINE"
);
},
{
closed = 1;
nodes = (
"156 286 LINE",
"238 286 LINE",
"238 414 LINE",
"156 414 LINE"
);
},
{
closed = 1;
nodes = (
"252 286 LINE",
"334 286 LINE",
"334 414 LINE",
"252 414 LINE"
);
},
{
closed = 1;
nodes = (
"348 286 LINE",
"430 286 LINE",
"430 414 LINE",
"348 414 LINE"
);
},
{
closed = 1;
nodes = (
"444 286 LINE",
"526 286 LINE",
"526 414 LINE",
"444 414 LINE"
);
},
{
closed = 1;
nodes = (
"60 429 LINE",
"142 429 LINE",
"142 557 LINE",
"60 557 LINE"
);
},
{
closed = 1;
nodes = (
"156 429 LINE",
"238 429 LINE",
"238 557 LINE",
"156 557 LINE"
);
},
{
closed = 1;
nodes = (
"444 429 LINE",
"526 429 LINE",
"526 557 LINE",
"444 557 LINE"
);
},
{
closed = 1;
nodes = (
"540 429 LINE",
"622 429 LINE",
"622 557 LINE",
"540 557 LINE"
);
},
{
closed = 1;
nodes = (
"60 143 LINE",
"142 143 LINE",
"142 271 LINE",
"60 271 LINE"
);
},
{
closed = 1;
nodes = (
"156 143 LINE",
"238 143 LINE",
"238 271 LINE",
"156 271 LINE"
);
},
{
closed = 1;
nodes = (
"444 143 LINE",
"526 143 LINE",
"526 271 LINE",
"444 271 LINE"
);
},
{
closed = 1;
nodes = (
"540 143 LINE",
"622 143 LINE",
"622 271 LINE",
"540 271 LINE"
);
},
{
closed = 1;
nodes = (
"156 0 LINE",
"238 0 LINE",
"238 128 LINE",
"156 128 LINE"
);
},
{
closed = 1;
nodes = (
"252 0 LINE",
"334 0 LINE",
"334 128 LINE",
"252 128 LINE"
);
},
{
closed = 1;
nodes = (
"348 0 LINE",
"430 0 LINE",
"430 128 LINE",
"348 128 LINE"
);
},
{
closed = 1;
nodes = (
"444 0 LINE",
"526 0 LINE",
"526 128 LINE",
"444 128 LINE"
);
}
);
width = 682;
}
);
unicode = 0038;
},
{
glyphname = nine;
lastChange = "2019-02-09 05:39:33 +0000";
layers = (
{
layerId = "3BA1B4B2-6ACF-4D2C-A9DD-A548EEBF9DB3";
paths = (
{
closed = 1;
nodes = (
"156 572 LINE",
"238 572 LINE",
"238 700 LINE",
"156 700 LINE"
);
},
{
closed = 1;
nodes = (
"252 572 LINE",
"334 572 LINE",
"334 700 LINE",
"252 700 LINE"
);
},
{
closed = 1;
nodes = (
"348 572 LINE",
"430 572 LINE",
"430 700 LINE",
"348 700 LINE"
);
},
{
closed = 1;
nodes = (
"444 572 LINE",
"526 572 LINE",
"526 700 LINE",
"444 700 LINE"
);
},
{
closed = 1;
nodes = (
"60 429 LINE",
"142 429 LINE",
"142 557 LINE",
"60 557 LINE"
);
},
{
closed = 1;
nodes = (
"156 429 LINE",
"238 429 LINE",
"238 557 LINE",
"156 557 LINE"
);
},
{
closed = 1;
nodes = (
"444 429 LINE",
"526 429 LINE",
"526 557 LINE",
"444 557 LINE"
);
},
{
closed = 1;
nodes = (
"540 429 LINE",
"622 429 LINE",
"622 557 LINE",
"540 557 LINE"
);
},
{
closed = 1;
nodes = (
"156 286 LINE",
"238 286 LINE",
"238 414 LINE",
"156 414 LINE"
);
},
{
closed = 1;
nodes = (
"252 286 LINE",
"334 286 LINE",
"334 414 LINE",
"252 414 LINE"
);
},
{
closed = 1;
nodes = (
"348 286 LINE",
"430 286 LINE",
"430 414 LINE",
"348 414 LINE"
);
},
{
closed = 1;
nodes = (
"444 286 LINE",
"526 286 LINE",
"526 414 LINE",
"444 414 LINE"
);
},
{
closed = 1;
nodes = (
"540 286 LINE",
"622 286 LINE",
"622 414 LINE",
"540 414 LINE"
);
},
{
closed = 1;
nodes = (
"444 143 LINE",
"526 143 LINE",
"526 271 LINE",
"444 271 LINE"
);
},
{
closed = 1;
nodes = (
"540 143 LINE",
"622 143 LINE",
"622 271 LINE",
"540 271 LINE"
);
},
{
closed = 1;
nodes = (
"444 0 LINE",
"526 0 LINE",
"526 128 LINE",
"444 128 LINE"
);
},
{
closed = 1;
nodes = (
"348 0 LINE",
"430 0 LINE",
"430 128 LINE",
"348 128 LINE"
);
},
{
closed = 1;
nodes = (
"252 0 LINE",
"334 0 LINE",
"334 128 LINE",
"252 128 LINE"
);
},
{
closed = 1;
nodes = (
"156 0 LINE",
"238 0 LINE",
"238 128 LINE",
"156 128 LINE"
);
}
);
width = 682;
}
);
unicode = 0039;
},
{
glyphname = period;
lastChange = "2019-01-31 01:29:30 +0000";
layers = (
{
layerId = "3BA1B4B2-6ACF-4D2C-A9DD-A548EEBF9DB3";
paths = (
{
closed = 1;
nodes = (
"211 143 LINE",
"293 143 LINE",
"293 271 LINE",
"211 271 LINE"
);
},
{
closed = 1;
nodes = (
"307 143 LINE",
"389 143 LINE",
"389 271 LINE",
"307 271 LINE"
);
},
{
closed = 1;
nodes = (
"211 0 LINE",
"293 0 LINE",
"293 128 LINE",
"211 128 LINE"
);
},
{
closed = 1;
nodes = (
"307 0 LINE",
"389 0 LINE",
"389 128 LINE",
"307 128 LINE"
);
}
);
width = 600;
}
);
unicode = 002E;
},
{
glyphname = comma;
lastChange = "2019-01-31 01:30:55 +0000";
layers = (
{
layerId = "3BA1B4B2-6ACF-4D2C-A9DD-A548EEBF9DB3";
paths = (
{
closed = 1;
nodes = (
"211 143 LINE",
"293 143 LINE",
"293 271 LINE",
"211 271 LINE"
);
},
{
closed = 1;
nodes = (
"307 143 LINE",
"389 143 LINE",
"389 271 LINE",
"307 271 LINE"
);
},
{
closed = 1;
nodes = (
"307 0 LINE",
"389 0 LINE",
"389 128 LINE",
"307 128 LINE"
);
},
{
closed = 1;
nodes = (
"211 -128 LINE",
"293 -128 LINE",
"293 0 LINE",
"211 0 LINE"
);
}
);
width = 600;
}
);
unicode = 002C;
},
{
glyphname = colon;
lastChange = "2019-02-09 05:40:09 +0000";
layers = (
{
layerId = "3BA1B4B2-6ACF-4D2C-A9DD-A548EEBF9DB3";
paths = (
{
closed = 1;
nodes = (
"211 572 LINE",
"293 572 LINE",
"293 700 LINE",
"211 700 LINE"
);
},
{
closed = 1;
nodes = (
"307 572 LINE",
"389 572 LINE",
"389 700 LINE",
"307 700 LINE"
);
},
{
closed = 1;
nodes = (
"211 429 LINE",
"293 429 LINE",
"293 557 LINE",
"211 557 LINE"
);
},
{
closed = 1;
nodes = (
"307 429 LINE",
"389 429 LINE",
"389 557 LINE",
"307 557 LINE"
);
},
{
closed = 1;
nodes = (
"211 143 LINE",
"293 143 LINE",
"293 271 LINE",
"211 271 LINE"
);
},
{
closed = 1;
nodes = (
"307 143 LINE",
"389 143 LINE",
"389 271 LINE",
"307 271 LINE"
);
},
{
closed = 1;
nodes = (
"211 0 LINE",
"293 0 LINE",
"293 128 LINE",
"211 128 LINE"
);
},
{
closed = 1;
nodes = (
"307 0 LINE",
"389 0 LINE",
"389 128 LINE",
"307 128 LINE"
);
}
);
width = 600;
}
);
unicode = 003A;
},
{
glyphname = semicolon;
lastChange = "2019-02-09 05:40:24 +0000";
layers = (
{
layerId = "3BA1B4B2-6ACF-4D2C-A9DD-A548EEBF9DB3";
paths = (
{
closed = 1;
nodes = (
"211 572 LINE",
"293 572 LINE",
"293 700 LINE",
"211 700 LINE"
);
},
{
closed = 1;
nodes = (
"307 572 LINE",
"389 572 LINE",
"389 700 LINE",
"307 700 LINE"
);
},
{
closed = 1;
nodes = (
"211 286 LINE",
"293 286 LINE",
"293 414 LINE",
"211 414 LINE"
);
},
{
closed = 1;
nodes = (
"307 286 LINE",
"389 286 LINE",
"389 414 LINE",
"307 414 LINE"
);
},
{
closed = 1;
nodes = (
"307 143 LINE",
"389 143 LINE",
"389 271 LINE",
"307 271 LINE"
);
},
{
closed = 1;
nodes = (
"211 0 LINE",
"293 0 LINE",
"293 128 LINE",
"211 128 LINE"
);
}
);
width = 600;
}
);
unicode = 003B;
},
{
glyphname = exclam;
lastChange = "2019-02-09 05:40:43 +0000";
layers = (
{
layerId = "3BA1B4B2-6ACF-4D2C-A9DD-A548EEBF9DB3";
paths = (
{
closed = 1;
nodes = (
"211 572 LINE",
"293 572 LINE",
"293 700 LINE",
"211 700 LINE"
);
},
{
closed = 1;
nodes = (
"307 572 LINE",
"389 572 LINE",
"389 700 LINE",
"307 700 LINE"
);
},
{
closed = 1;
nodes = (
"211 429 LINE",
"293 429 LINE",
"293 557 LINE",
"211 557 LINE"
);
},
{
closed = 1;
nodes = (
"307 429 LINE",
"389 429 LINE",
"389 557 LINE",
"307 557 LINE"
);
},
{
closed = 1;
nodes = (
"211 286 LINE",
"293 286 LINE",
"293 414 LINE",
"211 414 LINE"
);
},
{
closed = 1;
nodes = (
"307 286 LINE",
"389 286 LINE",
"389 414 LINE",
"307 414 LINE"
);
},
{
closed = 1;
nodes = (
"211 0 LINE",
"293 0 LINE",
"293 128 LINE",
"211 128 LINE"
);
},
{
closed = 1;
nodes = (
"307 0 LINE",
"389 0 LINE",
"389 128 LINE",
"307 128 LINE"
);
}
);
width = 600;
}
);
unicode = 0021;
},
{
glyphname = question;
lastChange = "2019-02-09 05:39:33 +0000";
layers = (
{
layerId = "3BA1B4B2-6ACF-4D2C-A9DD-A548EEBF9DB3";
paths = (
{
closed = 1;
nodes = (
"60 429 LINE",
"142 429 LINE",
"142 557 LINE",
"60 557 LINE"
);
},
{
closed = 1;
nodes = (
"60 572 LINE",
"142 572 LINE",
"142 700 LINE",
"60 700 LINE"
);
},
{
closed = 1;
nodes = (
"156 572 LINE",
"238 572 LINE",
"238 700 LINE",
"156 700 LINE"
);
},
{
closed = 1;
nodes = (
"252 572 LINE",
"334 572 LINE",
"334 700 LINE",
"252 700 LINE"
);
},
{
closed = 1;
nodes = (
"348 572 LINE",
"430 572 LINE",
"430 700 LINE",
"348 700 LINE"
);
},
{
closed = 1;
nodes = (
"444 572 LINE",
"526 572 LINE",
"526 700 LINE",
"444 700 LINE"
);
},
{
closed = 1;
nodes = (
"540 572 LINE",
"622 572 LINE",
"622 700 LINE",
"540 700 LINE"
);
},
{
closed = 1;
nodes = (
"444 429 LINE",
"526 429 LINE",
"526 557 LINE",
"444 557 LINE"
);
},
{
closed = 1;
nodes = (
"540 429 LINE",
"622 429 LINE",
"622 557 LINE",
"540 557 LINE"
);
},
{
closed = 1;
nodes = (
"252 286 LINE",
"334 286 LINE",
"334 414 LINE",
"252 414 LINE"
);
},
{
closed = 1;
nodes = (
"348 286 LINE",
"430 286 LINE",
"430 414 LINE",
"348 414 LINE"
);
},
{
closed = 1;
nodes = (
"252 0 LINE",
"334 0 LINE",
"334 128 LINE",
"252 128 LINE"
);
},
{
closed = 1;
nodes = (
"348 0 LINE",
"430 0 LINE",
"430 128 LINE",
"348 128 LINE"
);
}
);
width = 682;
}
);
unicode = 003F;
},
{
glyphname = asterisk;
lastChange = "2019-02-09 05:39:33 +0000";
layers = (
{
layerId = "3BA1B4B2-6ACF-4D2C-A9DD-A548EEBF9DB3";
paths = (
{
closed = 1;
nodes = (
"252 572 LINE",
"334 572 LINE",
"334 700 LINE",
"252 700 LINE"
);
},
{
closed = 1;
nodes = (
"348 572 LINE",
"430 572 LINE",
"430 700 LINE",
"348 700 LINE"
);
},
{
closed = 1;
nodes = (
"252 429 LINE",
"334 429 LINE",
"334 557 LINE",
"252 557 LINE"
);
},
{
closed = 1;
nodes = (
"348 429 LINE",
"430 429 LINE",
"430 557 LINE",
"348 557 LINE"
);
},
{
closed = 1;
nodes = (
"252 286 LINE",
"334 286 LINE",
"334 414 LINE",
"252 414 LINE"
);
},
{
closed = 1;
nodes = (
"348 286 LINE",
"430 286 LINE",
"430 414 LINE",
"348 414 LINE"
);
},
{
closed = 1;
nodes = (
"252 143 LINE",
"334 143 LINE",
"334 271 LINE",
"252 271 LINE"
);
},
{
closed = 1;
nodes = (
"348 143 LINE",
"430 143 LINE",
"430 271 LINE",
"348 271 LINE"
);
},
{
closed = 1;
nodes = (
"252 0 LINE",
"334 0 LINE",
"334 128 LINE",
"252 128 LINE"
);
},
{
closed = 1;
nodes = (
"348 0 LINE",
"430 0 LINE",
"430 128 LINE",
"348 128 LINE"
);
},
{
closed = 1;
nodes = (
"156 286 LINE",
"238 286 LINE",
"238 414 LINE",
"156 414 LINE"
);
},
{
closed = 1;
nodes = (
"444 286 LINE",
"526 286 LINE",
"526 414 LINE",
"444 414 LINE"
);
},
{
closed = 1;
nodes = (
"60 429 LINE",
"142 429 LINE",
"142 557 LINE",
"60 557 LINE"
);
},
{
closed = 1;
nodes = (
"60 143 LINE",
"142 143 LINE",
"142 271 LINE",
"60 271 LINE"
);
},
{
closed = 1;
nodes = (
"540 143 LINE",
"622 143 LINE",
"622 271 LINE",
"540 271 LINE"
);
},
{
closed = 1;
nodes = (
"540 429 LINE",
"622 429 LINE",
"622 557 LINE",
"540 557 LINE"
);
}
);
width = 682;
}
);
unicode = 002A;
},
{
glyphname = numbersign;
lastChange = "2019-02-09 05:39:33 +0000";
layers = (
{
layerId = "3BA1B4B2-6ACF-4D2C-A9DD-A548EEBF9DB3";
paths = (
{
closed = 1;
nodes = (
"60 429 LINE",
"142 429 LINE",
"142 557 LINE",
"60 557 LINE"
);
},
{
closed = 1;
nodes = (
"156 429 LINE",
"238 429 LINE",
"238 557 LINE",
"156 557 LINE"
);
},
{
closed = 1;
nodes = (
"252 429 LINE",
"334 429 LINE",
"334 557 LINE",
"252 557 LINE"
);
},
{
closed = 1;
nodes = (
"348 429 LINE",
"430 429 LINE",
"430 557 LINE",
"348 557 LINE"
);
},
{
closed = 1;
nodes = (
"444 429 LINE",
"526 429 LINE",
"526 557 LINE",
"444 557 LINE"
);
},
{
closed = 1;
nodes = (
"540 429 LINE",
"622 429 LINE",
"622 557 LINE",
"540 557 LINE"
);
},
{
closed = 1;
nodes = (
"60 143 LINE",
"142 143 LINE",
"142 271 LINE",
"60 271 LINE"
);
},
{
closed = 1;
nodes = (
"156 143 LINE",
"238 143 LINE",
"238 271 LINE",
"156 271 LINE"
);
},
{
closed = 1;
nodes = (
"252 143 LINE",
"334 143 LINE",
"334 271 LINE",
"252 271 LINE"
);
},
{
closed = 1;
nodes = (
"348 143 LINE",
"430 143 LINE",
"430 271 LINE",
"348 271 LINE"
);
},
{
closed = 1;
nodes = (
"444 143 LINE",
"526 143 LINE",
"526 271 LINE",
"444 271 LINE"
);
},
{
closed = 1;
nodes = (
"540 143 LINE",
"622 143 LINE",
"622 271 LINE",
"540 271 LINE"
);
},
{
closed = 1;
nodes = (
"156 572 LINE",
"238 572 LINE",
"238 700 LINE",
"156 700 LINE"
);
},
{
closed = 1;
nodes = (
"444 572 LINE",
"526 572 LINE",
"526 700 LINE",
"444 700 LINE"
);
},
{
closed = 1;
nodes = (
"156 286 LINE",
"238 286 LINE",
"238 414 LINE",
"156 414 LINE"
);
},
{
closed = 1;
nodes = (
"444 286 LINE",
"526 286 LINE",
"526 414 LINE",
"444 414 LINE"
);
},
{
closed = 1;
nodes = (
"156 0 LINE",
"238 0 LINE",
"238 128 LINE",
"156 128 LINE"
);
},
{
closed = 1;
nodes = (
"444 0 LINE",
"526 0 LINE",
"526 128 LINE",
"444 128 LINE"
);
}
);
width = 682;
}
);
unicode = 0023;
},
{
glyphname = slash;
lastChange = "2019-02-09 05:39:33 +0000";
layers = (
{
layerId = "3BA1B4B2-6ACF-4D2C-A9DD-A548EEBF9DB3";
paths = (
{
closed = 1;
nodes = (
"60 0 LINE",
"142 0 LINE",
"142 128 LINE",
"60 128 LINE"
);
},
{
closed = 1;
nodes = (
"156 0 LINE",
"238 0 LINE",
"238 128 LINE",
"156 128 LINE"
);
},
{
closed = 1;
nodes = (
"156 143 LINE",
"238 143 LINE",
"238 271 LINE",
"156 271 LINE"
);
},
{
closed = 1;
nodes = (
"252 143 LINE",
"334 143 LINE",
"334 271 LINE",
"252 271 LINE"
);
},
{
closed = 1;
nodes = (
"252 286 LINE",
"334 286 LINE",
"334 414 LINE",
"252 414 LINE"
);
},
{
closed = 1;
nodes = (
"348 286 LINE",
"430 286 LINE",
"430 414 LINE",
"348 414 LINE"
);
},
{
closed = 1;
nodes = (
"348 429 LINE",
"430 429 LINE",
"430 557 LINE",
"348 557 LINE"
);
},
{
closed = 1;
nodes = (
"444 429 LINE",
"526 429 LINE",
"526 557 LINE",
"444 557 LINE"
);
},
{
closed = 1;
nodes = (
"444 572 LINE",
"526 572 LINE",
"526 700 LINE",
"444 700 LINE"
);
},
{
closed = 1;
nodes = (
"540 572 LINE",
"622 572 LINE",
"622 700 LINE",
"540 700 LINE"
);
}
);
width = 682;
}
);
unicode = 002F;
},
{
glyphname = backslash;
lastChange = "2019-02-09 06:03:47 +0000";
layers = (
{
layerId = "3BA1B4B2-6ACF-4D2C-A9DD-A548EEBF9DB3";
paths = (
{
closed = 1;
nodes = (
"60 572 LINE",
"142 572 LINE",
"142 700 LINE",
"60 700 LINE"
);
},
{
closed = 1;
nodes = (
"156 572 LINE",
"238 572 LINE",
"238 700 LINE",
"156 700 LINE"
);
},
{
closed = 1;
nodes = (
"156 429 LINE",
"238 429 LINE",
"238 557 LINE",
"156 557 LINE"
);
},
{
closed = 1;
nodes = (
"252 429 LINE",
"334 429 LINE",
"334 557 LINE",
"252 557 LINE"
);
},
{
closed = 1;
nodes = (
"252 286 LINE",
"334 286 LINE",
"334 414 LINE",
"252 414 LINE"
);
},
{
closed = 1;
nodes = (
"348 286 LINE",
"430 286 LINE",
"430 414 LINE",
"348 414 LINE"
);
},
{
closed = 1;
nodes = (
"348 143 LINE",
"430 143 LINE",
"430 271 LINE",
"348 271 LINE"
);
},
{
closed = 1;
nodes = (
"444 143 LINE",
"526 143 LINE",
"526 271 LINE",
"444 271 LINE"
);
},
{
closed = 1;
nodes = (
"444 0 LINE",
"526 0 LINE",
"526 128 LINE",
"444 128 LINE"
);
},
{
closed = 1;
nodes = (
"540 0 LINE",
"622 0 LINE",
"622 128 LINE",
"540 128 LINE"
);
}
);
width = 682;
}
);
unicode = 005C;
},
{
glyphname = parenleft;
lastChange = "2019-01-31 03:24:25 +0000";
layers = (
{
layerId = "3BA1B4B2-6ACF-4D2C-A9DD-A548EEBF9DB3";
paths = (
{
closed = 1;
nodes = (
"307 572 LINE",
"389 572 LINE",
"389 700 LINE",
"307 700 LINE"
);
},
{
closed = 1;
nodes = (
"211 429 LINE",
"293 429 LINE",
"293 557 LINE",
"211 557 LINE"
);
},
{
closed = 1;
nodes = (
"211 286 LINE",
"293 286 LINE",
"293 414 LINE",
"211 414 LINE"
);
},
{
closed = 1;
nodes = (
"211 143 LINE",
"293 143 LINE",
"293 271 LINE",
"211 271 LINE"
);
},
{
closed = 1;
nodes = (
"307 0 LINE",
"389 0 LINE",
"389 128 LINE",
"307 128 LINE"
);
}
);
width = 600;
}
);
unicode = 0028;
},
{
glyphname = parenright;
lastChange = "2019-01-31 03:25:04 +0000";
layers = (
{
layerId = "3BA1B4B2-6ACF-4D2C-A9DD-A548EEBF9DB3";
paths = (
{
closed = 1;
nodes = (
"211 572 LINE",
"293 572 LINE",
"293 700 LINE",
"211 700 LINE"
);
},
{
closed = 1;
nodes = (
"307 429 LINE",
"389 429 LINE",
"389 557 LINE",
"307 557 LINE"
);
},
{
closed = 1;
nodes = (
"307 286 LINE",
"389 286 LINE",
"389 414 LINE",
"307 414 LINE"
);
},
{
closed = 1;
nodes = (
"307 143 LINE",
"389 143 LINE",
"389 271 LINE",
"307 271 LINE"
);
},
{
closed = 1;
nodes = (
"211 0 LINE",
"293 0 LINE",
"293 128 LINE",
"211 128 LINE"
);
}
);
width = 600;
}
);
unicode = 0029;
},
{
glyphname = braceleft;
lastChange = "2019-01-31 03:29:53 +0000";
layers = (
{
layerId = "3BA1B4B2-6ACF-4D2C-A9DD-A548EEBF9DB3";
paths = (
{
closed = 1;
nodes = (
"403 572 LINE",
"485 572 LINE",
"485 700 LINE",
"403 700 LINE"
);
},
{
closed = 1;
nodes = (
"307 572 LINE",
"389 572 LINE",
"389 700 LINE",
"307 700 LINE"
);
},
{
closed = 1;
nodes = (
"307 429 LINE",
"389 429 LINE",
"389 557 LINE",
"307 557 LINE"
);
},
{
closed = 1;
nodes = (
"307 286 LINE",
"389 286 LINE",
"389 414 LINE",
"307 414 LINE"
);
},
{
closed = 1;
nodes = (
"307 143 LINE",
"389 143 LINE",
"389 271 LINE",
"307 271 LINE"
);
},
{
closed = 1;
nodes = (
"307 0 LINE",
"389 0 LINE",
"389 128 LINE",
"307 128 LINE"
);
},
{
closed = 1;
nodes = (
"403 0 LINE",
"485 0 LINE",
"485 128 LINE",
"403 128 LINE"
);
},
{
closed = 1;
nodes = (
"211 286 LINE",
"293 286 LINE",
"293 414 LINE",
"211 414 LINE"
);
}
);
width = 600;
}
);
unicode = 007B;
},
{
glyphname = braceright;
lastChange = "2019-01-31 03:30:45 +0000";
layers = (
{
layerId = "3BA1B4B2-6ACF-4D2C-A9DD-A548EEBF9DB3";
paths = (
{
closed = 1;
nodes = (
"115 572 LINE",
"197 572 LINE",
"197 700 LINE",
"115 700 LINE"
);
},
{
closed = 1;
nodes = (
"211 572 LINE",
"293 572 LINE",
"293 700 LINE",
"211 700 LINE"
);
},
{
closed = 1;
nodes = (
"211 429 LINE",
"293 429 LINE",
"293 557 LINE",
"211 557 LINE"
);
},
{
closed = 1;
nodes = (
"211 286 LINE",
"293 286 LINE",
"293 414 LINE",
"211 414 LINE"
);
},
{
closed = 1;
nodes = (
"211 143 LINE",
"293 143 LINE",
"293 271 LINE",
"211 271 LINE"
);
},
{
closed = 1;
nodes = (
"211 0 LINE",
"293 0 LINE",
"293 128 LINE",
"211 128 LINE"
);
},
{
closed = 1;
nodes = (
"115 0 LINE",
"197 0 LINE",
"197 128 LINE",
"115 128 LINE"
);
},
{
closed = 1;
nodes = (
"307 286 LINE",
"389 286 LINE",
"389 414 LINE",
"307 414 LINE"
);
}
);
width = 600;
}
);
unicode = 007D;
},
{
glyphname = bracketleft;
lastChange = "2019-01-31 02:59:00 +0000";
layers = (
{
layerId = "3BA1B4B2-6ACF-4D2C-A9DD-A548EEBF9DB3";
paths = (
{
closed = 1;
nodes = (
"211 572 LINE",
"293 572 LINE",
"293 700 LINE",
"211 700 LINE"
);
},
{
closed = 1;
nodes = (
"307 572 LINE",
"389 572 LINE",
"389 700 LINE",
"307 700 LINE"
);
},
{
closed = 1;
nodes = (
"211 429 LINE",
"293 429 LINE",
"293 557 LINE",
"211 557 LINE"
);
},
{
closed = 1;
nodes = (
"211 286 LINE",
"293 286 LINE",
"293 414 LINE",
"211 414 LINE"
);
},
{
closed = 1;
nodes = (
"211 143 LINE",
"293 143 LINE",
"293 271 LINE",
"211 271 LINE"
);
},
{
closed = 1;
nodes = (
"211 0 LINE",
"293 0 LINE",
"293 128 LINE",
"211 128 LINE"
);
},
{
closed = 1;
nodes = (
"307 0 LINE",
"389 0 LINE",
"389 128 LINE",
"307 128 LINE"
);
}
);
width = 600;
}
);
unicode = 005B;
},
{
glyphname = bracketright;
lastChange = "2019-01-31 02:59:53 +0000";
layers = (
{
layerId = "3BA1B4B2-6ACF-4D2C-A9DD-A548EEBF9DB3";
paths = (
{
closed = 1;
nodes = (
"211 572 LINE",
"293 572 LINE",
"293 700 LINE",
"211 700 LINE"
);
},
{
closed = 1;
nodes = (
"307 572 LINE",
"389 572 LINE",
"389 700 LINE",
"307 700 LINE"
);
},
{
closed = 1;
nodes = (
"307 429 LINE",
"389 429 LINE",
"389 557 LINE",
"307 557 LINE"
);
},
{
closed = 1;
nodes = (
"307 286 LINE",
"389 286 LINE",
"389 414 LINE",
"307 414 LINE"
);
},
{
closed = 1;
nodes = (
"307 143 LINE",
"389 143 LINE",
"389 271 LINE",
"307 271 LINE"
);
},
{
closed = 1;
nodes = (
"307 0 LINE",
"389 0 LINE",
"389 128 LINE",
"307 128 LINE"
);
},
{
closed = 1;
nodes = (
"211 0 LINE",
"293 0 LINE",
"293 128 LINE",
"211 128 LINE"
);
}
);
width = 600;
}
);
unicode = 005D;
},
{
glyphname = hyphen;
lastChange = "2019-02-09 05:39:33 +0000";
layers = (
{
layerId = "3BA1B4B2-6ACF-4D2C-A9DD-A548EEBF9DB3";
paths = (
{
closed = 1;
nodes = (
"60 286 LINE",
"142 286 LINE",
"142 414 LINE",
"60 414 LINE"
);
},
{
closed = 1;
nodes = (
"156 286 LINE",
"238 286 LINE",
"238 414 LINE",
"156 414 LINE"
);
},
{
closed = 1;
nodes = (
"252 286 LINE",
"334 286 LINE",
"334 414 LINE",
"252 414 LINE"
);
},
{
closed = 1;
nodes = (
"348 286 LINE",
"430 286 LINE",
"430 414 LINE",
"348 414 LINE"
);
},
{
closed = 1;
nodes = (
"444 286 LINE",
"526 286 LINE",
"526 414 LINE",
"444 414 LINE"
);
},
{
closed = 1;
nodes = (
"540 286 LINE",
"622 286 LINE",
"622 414 LINE",
"540 414 LINE"
);
}
);
width = 682;
}
);
unicode = 002D;
},
{
glyphname = underscore;
lastChange = "2019-02-09 06:05:42 +0000";
layers = (
{
layerId = "3BA1B4B2-6ACF-4D2C-A9DD-A548EEBF9DB3";
paths = (
{
closed = 1;
nodes = (
"60 0 LINE",
"142 0 LINE",
"142 128 LINE",
"60 128 LINE"
);
},
{
closed = 1;
nodes = (
"156 0 LINE",
"238 0 LINE",
"238 128 LINE",
"156 128 LINE"
);
},
{
closed = 1;
nodes = (
"252 0 LINE",
"334 0 LINE",
"334 128 LINE",
"252 128 LINE"
);
},
{
closed = 1;
nodes = (
"348 0 LINE",
"430 0 LINE",
"430 128 LINE",
"348 128 LINE"
);
},
{
closed = 1;
nodes = (
"444 0 LINE",
"526 0 LINE",
"526 128 LINE",
"444 128 LINE"
);
},
{
closed = 1;
nodes = (
"540 0 LINE",
"622 0 LINE",
"622 128 LINE",
"540 128 LINE"
);
}
);
width = 682;
}
);
unicode = 005F;
},
{
glyphname = quotedbl;
lastChange = "2019-01-31 02:49:12 +0000";
layers = (
{
layerId = "3BA1B4B2-6ACF-4D2C-A9DD-A548EEBF9DB3";
paths = (
{
closed = 1;
nodes = (
"161 572 LINE",
"161 700 LINE"
);
},
{
closed = 1;
nodes = (
"435 572 LINE",
"435 700 LINE"
);
},
{
closed = 1;
nodes = (
"161 429 LINE",
"243 429 LINE",
"243 557 LINE",
"161 557 LINE"
);
},
{
closed = 1;
nodes = (
"353 429 LINE",
"435 429 LINE",
"435 557 LINE",
"353 557 LINE"
);
},
{
closed = 1;
nodes = (
"161 572 LINE",
"243 572 LINE",
"243 700 LINE",
"161 700 LINE"
);
},
{
closed = 1;
nodes = (
"353 572 LINE",
"435 572 LINE",
"435 700 LINE",
"353 700 LINE"
);
}
);
width = 600;
}
);
unicode = 0022;
},
{
glyphname = quotesingle;
lastChange = "2019-01-31 02:57:32 +0000";
layers = (
{
layerId = "3BA1B4B2-6ACF-4D2C-A9DD-A548EEBF9DB3";
paths = (
{
closed = 1;
nodes = (
"259 572 LINE",
"341 572 LINE",
"341 700 LINE",
"259 700 LINE"
);
},
{
closed = 1;
nodes = (
"259 429 LINE",
"341 429 LINE",
"341 557 LINE",
"259 557 LINE"
);
}
);
width = 600;
}
);
unicode = 0027;
},
{
glyphname = dollar;
lastChange = "2019-02-09 05:39:33 +0000";
layers = (
{
layerId = "3BA1B4B2-6ACF-4D2C-A9DD-A548EEBF9DB3";
paths = (
{
closed = 1;
nodes = (
"60 572 LINE",
"142 572 LINE",
"142 700 LINE",
"60 700 LINE"
);
},
{
closed = 1;
nodes = (
"156 572 LINE",
"238 572 LINE",
"238 700 LINE",
"156 700 LINE"
);
},
{
closed = 1;
nodes = (
"252 572 LINE",
"334 572 LINE",
"334 700 LINE",
"252 700 LINE"
);
},
{
closed = 1;
nodes = (
"348 572 LINE",
"430 572 LINE",
"430 700 LINE",
"348 700 LINE"
);
},
{
closed = 1;
nodes = (
"444 572 LINE",
"526 572 LINE",
"526 700 LINE",
"444 700 LINE"
);
},
{
closed = 1;
nodes = (
"540 572 LINE",
"622 572 LINE",
"622 700 LINE",
"540 700 LINE"
);
},
{
closed = 1;
nodes = (
"60 429 LINE",
"142 429 LINE",
"142 557 LINE",
"60 557 LINE"
);
},
{
closed = 1;
nodes = (
"60 286 LINE",
"142 286 LINE",
"142 414 LINE",
"60 414 LINE"
);
},
{
closed = 1;
nodes = (
"156 286 LINE",
"238 286 LINE",
"238 414 LINE",
"156 414 LINE"
);
},
{
closed = 1;
nodes = (
"252 286 LINE",
"334 286 LINE",
"334 414 LINE",
"252 414 LINE"
);
},
{
closed = 1;
nodes = (
"348 286 LINE",
"430 286 LINE",
"430 414 LINE",
"348 414 LINE"
);
},
{
closed = 1;
nodes = (
"444 286 LINE",
"526 286 LINE",
"526 414 LINE",
"444 414 LINE"
);
},
{
closed = 1;
nodes = (
"540 286 LINE",
"622 286 LINE",
"622 414 LINE",
"540 414 LINE"
);
},
{
closed = 1;
nodes = (
"540 143 LINE",
"622 143 LINE",
"622 271 LINE",
"540 271 LINE"
);
},
{
closed = 1;
nodes = (
"540 0 LINE",
"622 0 LINE",
"622 128 LINE",
"540 128 LINE"
);
},
{
closed = 1;
nodes = (
"444 0 LINE",
"526 0 LINE",
"526 128 LINE",
"444 128 LINE"
);
},
{
closed = 1;
nodes = (
"348 0 LINE",
"430 0 LINE",
"430 128 LINE",
"348 128 LINE"
);
},
{
closed = 1;
nodes = (
"252 0 LINE",
"334 0 LINE",
"334 128 LINE",
"252 128 LINE"
);
},
{
closed = 1;
nodes = (
"156 0 LINE",
"238 0 LINE",
"238 128 LINE",
"156 128 LINE"
);
},
{
closed = 1;
nodes = (
"60 0 LINE",
"142 0 LINE",
"142 128 LINE",
"60 128 LINE"
);
},
{
closed = 1;
nodes = (
"252 429 LINE",
"334 429 LINE",
"334 557 LINE",
"252 557 LINE"
);
},
{
closed = 1;
nodes = (
"348 429 LINE",
"430 429 LINE",
"430 557 LINE",
"348 557 LINE"
);
},
{
closed = 1;
nodes = (
"252 143 LINE",
"334 143 LINE",
"334 271 LINE",
"252 271 LINE"
);
},
{
closed = 1;
nodes = (
"348 143 LINE",
"430 143 LINE",
"430 271 LINE",
"348 271 LINE"
);
}
);
width = 682;
}
);
unicode = 0024;
},
{
glyphname = plus;
lastChange = "2019-02-09 05:39:33 +0000";
layers = (
{
layerId = "3BA1B4B2-6ACF-4D2C-A9DD-A548EEBF9DB3";
paths = (
{
closed = 1;
nodes = (
"252 429 LINE",
"334 429 LINE",
"334 557 LINE",
"252 557 LINE"
);
},
{
closed = 1;
nodes = (
"348 429 LINE",
"430 429 LINE",
"430 557 LINE",
"348 557 LINE"
);
},
{
closed = 1;
nodes = (
"252 286 LINE",
"334 286 LINE",
"334 414 LINE",
"252 414 LINE"
);
},
{
closed = 1;
nodes = (
"348 286 LINE",
"430 286 LINE",
"430 414 LINE",
"348 414 LINE"
);
},
{
closed = 1;
nodes = (
"252 143 LINE",
"334 143 LINE",
"334 271 LINE",
"252 271 LINE"
);
},
{
closed = 1;
nodes = (
"348 143 LINE",
"430 143 LINE",
"430 271 LINE",
"348 271 LINE"
);
},
{
closed = 1;
nodes = (
"252 572 LINE",
"334 572 LINE",
"334 700 LINE",
"252 700 LINE"
);
},
{
closed = 1;
nodes = (
"348 572 LINE",
"430 572 LINE",
"430 700 LINE",
"348 700 LINE"
);
},
{
closed = 1;
nodes = (
"252 0 LINE",
"334 0 LINE",
"334 128 LINE",
"252 128 LINE"
);
},
{
closed = 1;
nodes = (
"348 0 LINE",
"430 0 LINE",
"430 128 LINE",
"348 128 LINE"
);
},
{
closed = 1;
nodes = (
"156 286 LINE",
"238 286 LINE",
"238 414 LINE",
"156 414 LINE"
);
},
{
closed = 1;
nodes = (
"60 286 LINE",
"142 286 LINE",
"142 414 LINE",
"60 414 LINE"
);
},
{
closed = 1;
nodes = (
"444 286 LINE",
"526 286 LINE",
"526 414 LINE",
"444 414 LINE"
);
},
{
closed = 1;
nodes = (
"540 286 LINE",
"622 286 LINE",
"622 414 LINE",
"540 414 LINE"
);
}
);
width = 682;
}
);
unicode = 002B;
},
{
glyphname = equal;
lastChange = "2019-02-09 05:39:33 +0000";
layers = (
{
layerId = "3BA1B4B2-6ACF-4D2C-A9DD-A548EEBF9DB3";
paths = (
{
closed = 1;
nodes = (
"60 429 LINE",
"142 429 LINE",
"142 557 LINE",
"60 557 LINE"
);
},
{
closed = 1;
nodes = (
"156 429 LINE",
"238 429 LINE",
"238 557 LINE",
"156 557 LINE"
);
},
{
closed = 1;
nodes = (
"252 429 LINE",
"334 429 LINE",
"334 557 LINE",
"252 557 LINE"
);
},
{
closed = 1;
nodes = (
"348 429 LINE",
"430 429 LINE",
"430 557 LINE",
"348 557 LINE"
);
},
{
closed = 1;
nodes = (
"444 429 LINE",
"526 429 LINE",
"526 557 LINE",
"444 557 LINE"
);
},
{
closed = 1;
nodes = (
"540 429 LINE",
"622 429 LINE",
"622 557 LINE",
"540 557 LINE"
);
},
{
closed = 1;
nodes = (
"60 143 LINE",
"142 143 LINE",
"142 271 LINE",
"60 271 LINE"
);
},
{
closed = 1;
nodes = (
"156 143 LINE",
"238 143 LINE",
"238 271 LINE",
"156 271 LINE"
);
},
{
closed = 1;
nodes = (
"252 143 LINE",
"334 143 LINE",
"334 271 LINE",
"252 271 LINE"
);
},
{
closed = 1;
nodes = (
"348 143 LINE",
"430 143 LINE",
"430 271 LINE",
"348 271 LINE"
);
},
{
closed = 1;
nodes = (
"444 143 LINE",
"526 143 LINE",
"526 271 LINE",
"444 271 LINE"
);
},
{
closed = 1;
nodes = (
"540 143 LINE",
"622 143 LINE",
"622 271 LINE",
"540 271 LINE"
);
}
);
width = 682;
}
);
unicode = 003D;
},
{
glyphname = greater;
lastChange = "2019-02-09 05:39:33 +0000";
layers = (
{
layerId = "3BA1B4B2-6ACF-4D2C-A9DD-A548EEBF9DB3";
paths = (
{
closed = 1;
nodes = (
"60 572 LINE",
"142 572 LINE",
"142 700 LINE",
"60 700 LINE"
);
},
{
closed = 1;
nodes = (
"156 572 LINE",
"238 572 LINE",
"238 700 LINE",
"156 700 LINE"
);
},
{
closed = 1;
nodes = (
"252 429 LINE",
"334 429 LINE",
"334 557 LINE",
"252 557 LINE"
);
},
{
closed = 1;
nodes = (
"348 429 LINE",
"430 429 LINE",
"430 557 LINE",
"348 557 LINE"
);
},
{
closed = 1;
nodes = (
"444 286 LINE",
"526 286 LINE",
"526 414 LINE",
"444 414 LINE"
);
},
{
closed = 1;
nodes = (
"540 286 LINE",
"622 286 LINE",
"622 414 LINE",
"540 414 LINE"
);
},
{
closed = 1;
nodes = (
"252 143 LINE",
"334 143 LINE",
"334 271 LINE",
"252 271 LINE"
);
},
{
closed = 1;
nodes = (
"348 143 LINE",
"430 143 LINE",
"430 271 LINE",
"348 271 LINE"
);
},
{
closed = 1;
nodes = (
"60 0 LINE",
"142 0 LINE",
"142 128 LINE",
"60 128 LINE"
);
},
{
closed = 1;
nodes = (
"156 0 LINE",
"238 0 LINE",
"238 128 LINE",
"156 128 LINE"
);
}
);
width = 682;
}
);
unicode = 003E;
},
{
glyphname = less;
lastChange = "2019-02-09 05:39:33 +0000";
layers = (
{
layerId = "3BA1B4B2-6ACF-4D2C-A9DD-A548EEBF9DB3";
paths = (
{
closed = 1;
nodes = (
"444 572 LINE",
"526 572 LINE",
"526 700 LINE",
"444 700 LINE"
);
},
{
closed = 1;
nodes = (
"540 572 LINE",
"622 572 LINE",
"622 700 LINE",
"540 700 LINE"
);
},
{
closed = 1;
nodes = (
"348 429 LINE",
"430 429 LINE",
"430 557 LINE",
"348 557 LINE"
);
},
{
closed = 1;
nodes = (
"252 429 LINE",
"334 429 LINE",
"334 557 LINE",
"252 557 LINE"
);
},
{
closed = 1;
nodes = (
"156 286 LINE",
"238 286 LINE",
"238 414 LINE",
"156 414 LINE"
);
},
{
closed = 1;
nodes = (
"60 286 LINE",
"142 286 LINE",
"142 414 LINE",
"60 414 LINE"
);
},
{
closed = 1;
nodes = (
"252 143 LINE",
"334 143 LINE",
"334 271 LINE",
"252 271 LINE"
);
},
{
closed = 1;
nodes = (
"348 143 LINE",
"430 143 LINE",
"430 271 LINE",
"348 271 LINE"
);
},
{
closed = 1;
nodes = (
"444 0 LINE",
"526 0 LINE",
"526 128 LINE",
"444 128 LINE"
);
},
{
closed = 1;
nodes = (
"540 0 LINE",
"622 0 LINE",
"622 128 LINE",
"540 128 LINE"
);
}
);
width = 682;
}
);
unicode = 003C;
},
{
glyphname = asciitilde;
lastChange = "2019-02-09 05:41:53 +0000";
layers = (
{
layerId = "3BA1B4B2-6ACF-4D2C-A9DD-A548EEBF9DB3";
paths = (
{
closed = 1;
nodes = (
"60 143 LINE",
"142 143 LINE",
"142 271 LINE",
"60 271 LINE"
);
},
{
closed = 1;
nodes = (
"156 286 LINE",
"238 286 LINE",
"238 414 LINE",
"156 414 LINE"
);
},
{
closed = 1;
nodes = (
"252 286 LINE",
"334 286 LINE",
"334 414 LINE",
"252 414 LINE"
);
},
{
closed = 1;
nodes = (
"348 143 LINE",
"430 143 LINE",
"430 271 LINE",
"348 271 LINE"
);
},
{
closed = 1;
nodes = (
"444 143 LINE",
"526 143 LINE",
"526 271 LINE",
"444 271 LINE"
);
},
{
closed = 1;
nodes = (
"540 286 LINE",
"622 286 LINE",
"622 414 LINE",
"540 414 LINE"
);
}
);
width = 682;
}
);
unicode = 007E;
},
{
glyphname = asciicircum;
lastChange = "2019-01-31 03:27:26 +0000";
layers = (
{
layerId = "3BA1B4B2-6ACF-4D2C-A9DD-A548EEBF9DB3";
paths = (
{
closed = 1;
nodes = (
"115 429 LINE",
"197 429 LINE",
"197 557 LINE",
"115 557 LINE"
);
},
{
closed = 1;
nodes = (
"211 572 LINE",
"293 572 LINE",
"293 700 LINE",
"211 700 LINE"
);
},
{
closed = 1;
nodes = (
"307 572 LINE",
"389 572 LINE",
"389 700 LINE",
"307 700 LINE"
);
},
{
closed = 1;
nodes = (
"403 429 LINE",
"485 429 LINE",
"485 557 LINE",
"403 557 LINE"
);
}
);
width = 600;
}
);
unicode = 005E;
},
{
glyphname = percent;
lastChange = "2019-02-09 05:39:33 +0000";
layers = (
{
layerId = "3BA1B4B2-6ACF-4D2C-A9DD-A548EEBF9DB3";
paths = (
{
closed = 1;
nodes = (
"60 572 LINE",
"142 572 LINE",
"142 700 LINE",
"60 700 LINE"
);
},
{
closed = 1;
nodes = (
"156 572 LINE",
"238 572 LINE",
"238 700 LINE",
"156 700 LINE"
);
},
{
closed = 1;
nodes = (
"60 429 LINE",
"142 429 LINE",
"142 557 LINE",
"60 557 LINE"
);
},
{
closed = 1;
nodes = (
"156 429 LINE",
"238 429 LINE",
"238 557 LINE",
"156 557 LINE"
);
},
{
closed = 1;
nodes = (
"60 0 LINE",
"142 0 LINE",
"142 128 LINE",
"60 128 LINE"
);
},
{
closed = 1;
nodes = (
"156 0 LINE",
"238 0 LINE",
"238 128 LINE",
"156 128 LINE"
);
},
{
closed = 1;
nodes = (
"156 143 LINE",
"238 143 LINE",
"238 271 LINE",
"156 271 LINE"
);
},
{
closed = 1;
nodes = (
"252 143 LINE",
"334 143 LINE",
"334 271 LINE",
"252 271 LINE"
);
},
{
closed = 1;
nodes = (
"252 286 LINE",
"334 286 LINE",
"334 414 LINE",
"252 414 LINE"
);
},
{
closed = 1;
nodes = (
"348 286 LINE",
"430 286 LINE",
"430 414 LINE",
"348 414 LINE"
);
},
{
closed = 1;
nodes = (
"348 429 LINE",
"430 429 LINE",
"430 557 LINE",
"348 557 LINE"
);
},
{
closed = 1;
nodes = (
"444 429 LINE",
"526 429 LINE",
"526 557 LINE",
"444 557 LINE"
);
},
{
closed = 1;
nodes = (
"444 572 LINE",
"526 572 LINE",
"526 700 LINE",
"444 700 LINE"
);
},
{
closed = 1;
nodes = (
"540 572 LINE",
"622 572 LINE",
"622 700 LINE",
"540 700 LINE"
);
},
{
closed = 1;
nodes = (
"444 143 LINE",
"526 143 LINE",
"526 271 LINE",
"444 271 LINE"
);
},
{
closed = 1;
nodes = (
"540 143 LINE",
"622 143 LINE",
"622 271 LINE",
"540 271 LINE"
);
},
{
closed = 1;
nodes = (
"444 0 LINE",
"526 0 LINE",
"526 128 LINE",
"444 128 LINE"
);
},
{
closed = 1;
nodes = (
"540 0 LINE",
"622 0 LINE",
"622 128 LINE",
"540 128 LINE"
);
}
);
width = 682;
}
);
unicode = 0025;
},
{
glyphname = at;
lastChange = "2019-02-09 05:39:33 +0000";
layers = (
{
layerId = "3BA1B4B2-6ACF-4D2C-A9DD-A548EEBF9DB3";
paths = (
{
closed = 1;
nodes = (
"156 572 LINE",
"238 572 LINE",
"238 700 LINE",
"156 700 LINE"
);
},
{
closed = 1;
nodes = (
"252 572 LINE",
"334 572 LINE",
"334 700 LINE",
"252 700 LINE"
);
},
{
closed = 1;
nodes = (
"348 572 LINE",
"430 572 LINE",
"430 700 LINE",
"348 700 LINE"
);
},
{
closed = 1;
nodes = (
"444 572 LINE",
"526 572 LINE",
"526 700 LINE",
"444 700 LINE"
);
},
{
closed = 1;
nodes = (
"540 429 LINE",
"622 429 LINE",
"622 557 LINE",
"540 557 LINE"
);
},
{
closed = 1;
nodes = (
"540 286 LINE",
"622 286 LINE",
"622 414 LINE",
"540 414 LINE"
);
},
{
closed = 1;
nodes = (
"444 143 LINE",
"526 143 LINE",
"526 271 LINE",
"444 271 LINE"
);
},
{
closed = 1;
nodes = (
"444 0 LINE",
"526 0 LINE",
"526 128 LINE",
"444 128 LINE"
);
},
{
closed = 1;
nodes = (
"540 0 LINE",
"622 0 LINE",
"622 128 LINE",
"540 128 LINE"
);
},
{
closed = 1;
nodes = (
"252 143 LINE",
"334 143 LINE",
"334 271 LINE",
"252 271 LINE"
);
},
{
closed = 1;
nodes = (
"348 143 LINE",
"430 143 LINE",
"430 271 LINE",
"348 271 LINE"
);
},
{
closed = 1;
nodes = (
"252 286 LINE",
"334 286 LINE",
"334 414 LINE",
"252 414 LINE"
);
},
{
closed = 1;
nodes = (
"348 286 LINE",
"430 286 LINE",
"430 414 LINE",
"348 414 LINE"
);
},
{
closed = 1;
nodes = (
"60 429 LINE",
"142 429 LINE",
"142 557 LINE",
"60 557 LINE"
);
},
{
closed = 1;
nodes = (
"60 286 LINE",
"142 286 LINE",
"142 414 LINE",
"60 414 LINE"
);
},
{
closed = 1;
nodes = (
"60 143 LINE",
"142 143 LINE",
"142 271 LINE",
"60 271 LINE"
);
},
{
closed = 1;
nodes = (
"156 0 LINE",
"238 0 LINE",
"238 128 LINE",
"156 128 LINE"
);
},
{
closed = 1;
nodes = (
"252 0 LINE",
"334 0 LINE",
"334 128 LINE",
"252 128 LINE"
);
},
{
closed = 1;
nodes = (
"348 0 LINE",
"430 0 LINE",
"430 128 LINE",
"348 128 LINE"
);
}
);
width = 682;
}
);
unicode = 0040;
},
{
glyphname = ampersand;
lastChange = "2019-02-09 05:39:33 +0000";
layers = (
{
layerId = "3BA1B4B2-6ACF-4D2C-A9DD-A548EEBF9DB3";
paths = (
{
closed = 1;
nodes = (
"348 572 LINE",
"430 572 LINE",
"430 700 LINE",
"348 700 LINE"
);
},
{
closed = 1;
nodes = (
"252 572 LINE",
"334 572 LINE",
"334 700 LINE",
"252 700 LINE"
);
},
{
closed = 1;
nodes = (
"156 572 LINE",
"238 572 LINE",
"238 700 LINE",
"156 700 LINE"
);
},
{
closed = 1;
nodes = (
"156 429 LINE",
"238 429 LINE",
"238 557 LINE",
"156 557 LINE"
);
},
{
closed = 1;
nodes = (
"156 286 LINE",
"238 286 LINE",
"238 414 LINE",
"156 414 LINE"
);
},
{
closed = 1;
nodes = (
"60 429 LINE",
"142 429 LINE",
"142 557 LINE",
"60 557 LINE"
);
},
{
closed = 1;
nodes = (
"252 286 LINE",
"334 286 LINE",
"334 414 LINE",
"252 414 LINE"
);
},
{
closed = 1;
nodes = (
"348 286 LINE",
"430 286 LINE",
"430 414 LINE",
"348 414 LINE"
);
},
{
closed = 1;
nodes = (
"60 143 LINE",
"142 143 LINE",
"142 271 LINE",
"60 271 LINE"
);
},
{
closed = 1;
nodes = (
"60 0 LINE",
"142 0 LINE",
"142 128 LINE",
"60 128 LINE"
);
},
{
closed = 1;
nodes = (
"156 0 LINE",
"238 0 LINE",
"238 128 LINE",
"156 128 LINE"
);
},
{
closed = 1;
nodes = (
"252 0 LINE",
"334 0 LINE",
"334 128 LINE",
"252 128 LINE"
);
},
{
closed = 1;
nodes = (
"348 143 LINE",
"430 143 LINE",
"430 271 LINE",
"348 271 LINE"
);
},
{
closed = 1;
nodes = (
"444 143 LINE",
"526 143 LINE",
"526 271 LINE",
"444 271 LINE"
);
},
{
closed = 1;
nodes = (
"540 286 LINE",
"622 286 LINE",
"622 414 LINE",
"540 414 LINE"
);
},
{
closed = 1;
nodes = (
"444 0 LINE",
"526 0 LINE",
"526 128 LINE",
"444 128 LINE"
);
},
{
closed = 1;
nodes = (
"540 0 LINE",
"622 0 LINE",
"622 128 LINE",
"540 128 LINE"
);
}
);
width = 682;
}
);
unicode = 0026;
},
{
glyphname = bar;
lastChange = "2019-01-31 03:31:45 +0000";
layers = (
{
layerId = "3BA1B4B2-6ACF-4D2C-A9DD-A548EEBF9DB3";
paths = (
{
closed = 1;
nodes = (
"211 572 LINE",
"293 572 LINE",
"293 700 LINE",
"211 700 LINE"
);
},
{
closed = 1;
nodes = (
"307 572 LINE",
"389 572 LINE",
"389 700 LINE",
"307 700 LINE"
);
},
{
closed = 1;
nodes = (
"211 429 LINE",
"293 429 LINE",
"293 557 LINE",
"211 557 LINE"
);
},
{
closed = 1;
nodes = (
"307 429 LINE",
"389 429 LINE",
"389 557 LINE",
"307 557 LINE"
);
},
{
closed = 1;
nodes = (
"211 286 LINE",
"293 286 LINE",
"293 414 LINE",
"211 414 LINE"
);
},
{
closed = 1;
nodes = (
"307 286 LINE",
"389 286 LINE",
"389 414 LINE",
"307 414 LINE"
);
},
{
closed = 1;
nodes = (
"211 143 LINE",
"293 143 LINE",
"293 271 LINE",
"211 271 LINE"
);
},
{
closed = 1;
nodes = (
"307 143 LINE",
"389 143 LINE",
"389 271 LINE",
"307 271 LINE"
);
},
{
closed = 1;
nodes = (
"211 0 LINE",
"293 0 LINE",
"293 128 LINE",
"211 128 LINE"
);
},
{
closed = 1;
nodes = (
"307 0 LINE",
"389 0 LINE",
"389 128 LINE",
"307 128 LINE"
);
}
);
width = 600;
}
);
unicode = 007C;
},
{
glyphname = grave;
lastChange = "2019-01-31 03:28:45 +0000";
layers = (
{
layerId = "3BA1B4B2-6ACF-4D2C-A9DD-A548EEBF9DB3";
paths = (
{
closed = 1;
nodes = (
"115 572 LINE",
"197 572 LINE",
"197 700 LINE",
"115 700 LINE"
);
},
{
closed = 1;
nodes = (
"211 572 LINE",
"293 572 LINE",
"293 700 LINE",
"211 700 LINE"
);
},
{
closed = 1;
nodes = (
"211 429 LINE",
"293 429 LINE",
"293 557 LINE",
"211 557 LINE"
);
},
{
closed = 1;
nodes = (
"307 429 LINE",
"389 429 LINE",
"389 557 LINE",
"307 557 LINE"
);
}
